<?xml version="1.0" encoding="UTF-8"?>
<svg width="500pt" height="500pt" version="1.1" viewBox="0 0 500 600" xmlns="http://www.w3.org/2000/svg" xmlns:xlink="http://www.w3.org/1999/xlink">
 <g>
  <path d="m245 267.79c13.441 6.6641 29.902-3.3594 41.496 5.6016-0.89453-1.1758-0.83984-1.9609 0.83984-2.4062-0.50391 2.1289 0.33594 2.9102 2.4648 2.4062 0-1.0625-1.3984-0.72656-1.625-1.625 1.5117-1.0078 7.2227 0.33594 2.4648 1.625 21.336 0 55.047 1.457 78.961 2.4648 1.3438-1.625 0-1.0625 0-3.2461 2.9102 1.3984 4.1992 0 1.625-1.625 3.6953-1.5117 1.0625 3.1914 4.0898 2.4062 0-0.95312 0-2.2969 0.78516-2.4062 1.0078 2.8555 5.6016 1.3984 8.9609 1.625l-0.007812-0.003906c14.363 1.2305 28.812 0.96875 43.121-0.78516-7.6719-6.2148-15.289-7.5586-24.414-12.207-0.74609-1.5391-0.74609-3.3359 0-4.875-25.762-13.215-49-15.23-77.395-25.141 2.2969-9.1836 10.641-1.2305 14.672 0 11.027 3.3828 22.246 6.0938 33.602 8.1172-9.8555-7.3359-19.711-9.6328-27.664-18.703-0.15625-1.1406 0.125-2.3008 0.78516-3.2461 12.434 3.5273 19.543 12.152 31.754 13.832 2.0156 0.95313-1.6797 3.0781 0.78516 4.0898 4.0898 0 4.5938 1.457 2.4648-1.625 5.9375 0 11.199 4.9297 16.297 3.2461-12.375-7.2227-24.922-14.391-35.785-21.953h-0.003906c-5.1758-3.1914-9.6836-7.3555-13.273-12.262 12.711-0.61719 20.105 11.816 31.754 16.297 9.1289 3.4727 19.207 3.9766 29.289 8.1211l-0.003907-0.003906c0.32813 0.94531 0.88672 1.793 1.625 2.4648 23.465 10.641 53.703 18.367 76.496 30.129 7 3.6406 11.48 7.5039 16.238 8.1211 13.105 1.6797 15.398 0.50391 22.008 7.3359-4.0898 7.2812 8.0078 1.9609 7.2812 8.1758-10.809 5.9922-19.098 14.559-33.602 16.801 0 1.0625-1.0625 1.1211-0.83984 2.4648-34.496 12.207-62.719 31.078-91.953 46.367h-4.8711c-10.023 8.3438-21.281 6.6641-33.602 11.199-2.1836-4.8164 3.1367-4.3125 3.2461-8.9609 4.1445 1.0625 8.0078-3.5273 10.586-6.4961-9.9102-0.44922-15.902 10.809-23.574 7.3359 1.2305-2.8555 5.9375-3.8086 4.0898-7.3359-2.6602 1.7539-6.0195 2.0664-8.9609 0.83984 2.5195-9.9688 13.273-11.762 22.008-15.457-2.4648 5.6016-12.77 3.0234-13.047 10.586 9.6875 1.1758 16.297-11.816 25.258-10.586-0.83984-4.0898 4.7617-1.7344 4.8711-4.8711 0-1.3438-3.4727 0.89453-3.2461-2.4648 15.398-4.5352 26.879-12.039 42.336-14.672 2.3516-4.1445 13.945-3.4141 13.777-7.3359-16.406 0.67188-30.969-1.2305-46.367 1.625-1.0078-1.1758-3.1367-1.2305-4.0898-2.4648-0.33594 3.5859-5.6016 2.4062-6.4961 0h-0.003907c-12.18 2.1172-24.676 1.5625-36.621-1.625-9.1289 3.6406-18.09 0-26.039 0.78516-0.78516-1.5117 2.4062-2.7422 0-3.2461-1.2891 1.1758-0.61719 4.2578-3.2461 4.0312-1.5117 0-0.55859-2.6875-2.4062-2.4648 0 1.1211-8.0078 2.9102-8.9609-0.78516h-0.003906c-27.008-0.46094-53.941-2.9141-80.586-7.3359-8.7344-1.2305-19.207-2.2383-26.824-3.2461-20.672-1.9336-41.234-4.9258-61.598-8.9609-3.1367-0.72656-8.5117-1.5117-9.7422-5.6016 1.0625-3.5273 7.0547-2.1836 8.9609-4.8711 1.7344 2.0703 7.1133 4.7617 9.8008 3.2461-1.0625-2.1289-1.793-2.4648-0.83984-4.8711 3.9766-2.8008 15.961-1.9609 21.168-0.83984-1.9023 2.6875-8.3438 0.83984-10.586 3.2461 9.6328-1.0078 18.984 2.7422 24.414-2.4648-1.0078 3.4141 2.2383 10.246 4.8711 4.0312-1.1758 1.1758-2.5742 0.61719-2.4648-1.625 3.9766-1.0078 4.1445 1.8477 6.5508 2.4062 7.6172-2.1289 11.816-0.39062 21.953-2.4062 3.3047-8.1758 15.176-3.5859 24.414-4.0312 3.8086-0.61719 3.8086 1.3984 0 0.78516-2.0156 0.72656-4.4258 1.0078-4.8711 3.2461 0.33594-1.3438-4.4258-1.3438-4.0312 0 4.3672 0 7.0547 1.7344 8.9023-1.625 0 2.0703-1.5664 2.5742 0.78516 3.2461 1.793-0.61719 2.0156-2.8008 3.2461-4.0312 4.5938 0.83984 9.9102-2.5742 12.992 2.4648-3.6914 3.6445-10.246-2.2344-14.445 2.0234zm183.06-16.238v-0.003907c10.883 5.8477 22.746 9.6445 35 11.203-10.984-5.6016-22.805-9.3828-35-11.203zm35.785 10.586v-0.003906c0.55469 0.67969 0.85156 1.5312 0.83984 2.4062 1.5664-1.5117 1.457 0.50391 4.0312 0 0.50391-2.9102-2.3516-2.4648-4.8164-2.4062zm-317.3 8.1172c0 2.6875 4.7031 1.2305 7.2812 1.625-0.22266-2.6914-4.6484-1.2891-7.2812-1.625z" fill-rule="evenodd"/>
 </g>
</svg>
