<?xml version="1.0" encoding="UTF-8"?>
<svg width="500pt" height="500pt" version="1.1" viewBox="0 0 500 600" xmlns="http://www.w3.org/2000/svg" xmlns:xlink="http://www.w3.org/1999/xlink">
 <g>
  <path d="m424.87 266.17c3.1367-5.0391 8.3984-1.625 12.992-2.4648 1.2305 1.2305 1.457 3.4141 3.2461 4.0312 2.3516-0.67188 0.89453-1.2305 0.78516-3.2461 1.8477 3.3594 4.5352 1.8477 8.9023 1.625 0.39062-1.3438-4.4258-1.3438-4.0312 0-0.44922-2.2383-2.8555-2.5195-4.8711-3.2461-3.8086 0.55859-3.8086-1.3984 0-0.78516 9.2383 0.44922 21.113-4.1445 24.414 4.0312 10.137 2.0703 14.336 0.28125 21.953 2.4062 2.4062-0.55859 2.5742-3.4141 6.5508-2.4062 0 2.2383-1.2305 2.8008-2.4648 1.625 2.6328 6.1602 5.8789-0.67188 4.8711-4.0312 5.6016 5.207 14.785 1.457 24.414 2.4648-2.1836-2.4062-8.6797-0.55859-10.586-3.2461 5.207-1.1211 17.191-2.0156 21.168 0.83984 0.95312 2.4062 0 2.7422-0.83984 4.8711 2.6328 1.5117 8.0078-1.1758 9.8008-3.2461 1.9023 2.6875 7.8398 1.3438 8.9609 4.8711-1.2891 4.1445-6.6094 4.9297-9.7422 5.6016l0.003907-0.007812c-20.363 4.0391-40.926 7.0273-61.598 8.9609-7.6172 1.0078-18.09 2.0156-26.824 3.2461-26.645 4.4258-53.578 6.875-80.586 7.3359-0.95312 3.6953-9.1836 1.9023-8.9609 0.78516-1.9023 0-0.89453 2.3516-2.4062 2.4648-2.6328 0-2.0156-2.8555-3.2461-4.0312-2.4062 0.50391 0.78516 1.7344 0 3.2461-7.9531-0.67188-16.801 2.8555-26.039-0.78516h-0.003906c-11.945 3.1914-24.441 3.7422-36.621 1.625-0.89453 2.4062-6.2148 3.5859-6.4961 0-0.95313 1.2305-3.0781 1.2891-4.0898 2.4648-15.398-2.8555-29.961-0.95312-46.367-1.625 0 3.9219 11.199 3.1914 13.777 7.3359 15.457 2.6328 26.879 10.137 42.336 14.672 0 3.3594-3.1367 1.0625-3.2461 2.4648 0 3.1367 5.6016 0.78516 4.8711 4.8711 8.9609-1.2305 15.566 11.762 25.258 10.586 0-7.5586-10.586-5.1523-13.047-10.586 8.7344 3.6953 19.488 5.6016 22.008 15.457h-0.003907c-2.9414 1.2266-6.3008 0.91406-8.9609-0.83984-1.8477 3.5273 2.8008 4.4805 4.0898 7.3359-7.6719 3.4727-13.664-7.7266-23.574-7.3359 2.5742 3.0234 6.4414 7.5586 10.586 6.4961 0 4.6484 5.6016 4.1445 3.2461 8.9609-12.098-4.7031-23.352-3.0781-33.602-11.199h-4.8711c-29.23-15.289-57.457-34.16-91.953-46.367 0-1.3438-0.78516-1.3984-0.83984-2.4648-14.281-2.5195-22.398-11.199-33.602-16.801-0.67187-6.1602 11.199-0.83984 7.2812-8.1758 6.6094-6.832 8.9023-5.6016 22.008-7.3359 4.7617-0.61719 9.2383-4.5352 16.238-8.1211 23.07-12.098 53.312-19.938 76.719-30.574 0.74219-0.67188 1.3008-1.5195 1.625-2.4648 10.078-4.1445 20.16-4.6484 29.289-8.1211 11.648-4.4258 19.039-16.801 31.754-16.297h-0.003906c-3.5312 4.8672-7.957 9.0078-13.047 12.207-10.695 7.6172-23.406 14.785-35.785 21.953 4.9297 1.6797 10.359-3.1914 16.297-3.2461-2.1836 3.0781-1.625 1.625 2.4648 1.625 2.4648-1.0078-1.2305-3.0781 0.78516-4.0898 12.207-1.6797 19.32-10.305 31.754-13.832h-0.003907c0.66016 0.94531 0.94141 2.1055 0.78516 3.2461-7.8945 9.1289-17.809 11.199-27.664 18.703v0.003906c11.352-2.0273 22.574-4.7383 33.598-8.1211 4.0312-1.2305 12.375-9.1836 14.672 0-28.336 9.9688-51.406 11.984-77.281 25.199h0.003906c0.74219 1.5391 0.74219 3.332 0 4.8711-9.1289 4.6484-16.801 5.9922-24.414 12.207l-0.003906 0.003906c14.309 1.7539 28.758 2.0156 43.121 0.78125 3.3047 0 7.9531 1.2305 8.9609-1.625 0.95312 0 0.67188 1.457 0.78516 2.4062 2.9688 0.78516 0.39063-3.9766 4.0898-2.4062-2.5742 1.6797-1.2891 3.0234 1.625 1.625 0 2.2383-1.3438 1.625 0 3.2461 23.855-1.0078 57.625-2.2383 78.961-2.4648-4.7617-1.2891 0.95312-2.6328 2.4648-1.625 0 0.89453-1.625 0.55859-1.625 1.625 2.1289 0.50391 2.9102-0.33594 2.4648-2.4062 1.6797 0.44922 1.7344 1.2305 0.83984 2.4062 11.535-9.0703 28 1.0078 41.496-5.6016-4.543-4.1953-11.094 1.6836-15.016-1.5625zm-203.67-2.9688c12.254-1.5547 24.117-5.3516 35-11.199-12.195 1.8203-24.016 5.6016-35 11.199zm-5.6016 1.625c2.5742 0.50391 2.5195-1.5117 4.0312 0h0.003906c-0.011718-0.875 0.28516-1.7266 0.83984-2.4102-2.2969-0.33594-5.1523-0.78125-4.8711 2.1289zm314.89 7.3359c2.6328-0.33594 7.0547 1.0625 7.2812-1.625-2.4609 0.058594-6.8281-1.3438-7.1094 1.3438z" fill-rule="evenodd"/>
 </g>
</svg>
