<svg style="background: url(/static/svg/pixels-dark.svg)" height="1605" viewBox="0 0 2885 1605" width="2885" xmlns="http://www.w3.org/2000/svg">
<g style="stroke:#fff;stroke-width:2;fill:none;fill-rule:evenodd;stroke-linecap:round;stroke-linejoin:round" transform="translate(-1081 -1078)">
<path fill="url(#pixels)" d="m.5 1979.9c31.25 7.9 73.35 8.4 98.95 30 12.75 10.8 21.75 29.7 26.9 45.35 2.55 7.7 3.15 15.8 6.1 23.4 5 13.05 6 13.7 17.4 11.45 18.3-3.65 25-21.6 35.45-36 10.10548-13.62395 21.674641-26.09852 34.5-37.2 13.112144-11.89402 25.564067-24.49617 37.3-37.75 11.9-13.15 26.05-20.7 39.75-31.5 25-19.5 50.3-54.25 57.7-84.55 9.2-37.7 30-59.65 67.2-71.45 66.5-21.05 141.95 5 205-25 33.65-16 50.25-43.55 77.15-68 12.5-11.35 27.55-20.35 38.65-33.15 12.3-14.15 15.8-30.7 21.1-48.15 19.6-64.1 68.05-125.8 123.45-163.25 28.6-19.35 54.45-43.7 84.45-60.5 31.75-17.75 46.6-49.1 71.25-74.6s61.3-30.45 91.6-47.7 50.55-49.75 58.2-83c7.95-34.35-10-70 3.5-102.95 6.4-15.75 17.65-29.1 25-44.4s11.85-33.45 20-49.25c17.15-33.15 49.3-44.25 77.05-66.05 14.35-11.25 25.75-22.15 33.55-38.85 7.25-15.55 8.7-32.9 16.15-48.2 17.9-36.8 57.2-31.3 87.55-50s47.7-50 65.7-79.3c18.95-31 46.65-49.65 68.95-77.3 23.75-29.4 27.05-73.95-21.75-72.35-36 1.2-65 23.75-99 30.9s-68.85-22.75-102.1-4.6c-31.25 17.05-15.25 67.45-22.2 96.95-9.65 41.15-38.45 50.45-72.8 66.1-31.9 14.55-56.1 40.3-90 52-15.94118 6.078103-33.28161 7.500018-50 4.1-22.3-4.65-30 .8-50.85 6.9-38.25 11.15-66.95-3.4-88.05-35.75-10.6-16.3-17.8-25.8-35.35-35-15-7.75-32.8-16.2-44.2-28.95-25-27.85 2.15-69.15 24.1-90.85 9.55-9.4 33.7-21.15 37.4-34.2 2.45-8.6-4.15-15.65-6.55-23.75-1.826349-9.104274-2.764085-18.364417-2.8-27.65-1.8-18.75-19.75-32.1-32.9-11.3-9.65 15-10 32.55-22.45 47.6-11.1 13.15-23.65 23.65-34.4 37.4-10.525742 14.387409-24.623451 25.779323-40.9 33.05-27.6 11.45-73.1 18.75-102.7 13.3-39.2-7.25-46.65-47.7-77.6-64.3s-67.1-17-100-26.45c-16.6-5-34.15-7.7-50.5-12.8s-28.3-17.2-43.95-24.25c-14.65-6.4-30-8.45-43.5-18s-11.1-23.9-22.65-34.95c-9.15-8.6-24.3-2.4-36.4-5.8-21.55-6.05-22.75-36.4-36.95-53.7s-42.25-20-58.45-36.55c-14.2-14.5-19.55-39.55-39.15-45-21.6-5.45-43.6 18.5-64.7 11.05-10.65-3.7-17.15-14.25-22.75-24.1l-45.7-80.15c-5.45-9.55-11.2-19.45-20.5-25.25-18.9-11.8-43.35-2.3-63.4 7.35"></path><path d="m.5 2024.55c30 1.35 66.5 0 89.1 22.75 25.25 25.35 14.7 57.1 16.5 89.2 1.05 18.45-.3 28.4 15.35 39.25 3.15 2.2 15.45 16.45 16.45 16.75 6.7 1.85 5.9-11 8.3-18 9.4-27.35 35.35-52.15 50.95-76.9 16.6-26.35 31.35-53.55 50.75-78.05 20.4-25.85 43.9-43.1 70.75-61.45 29.35-20 43.55-40 54.75-73.4 10.65-31.9 29.2-53.95 63.15-61.3 60-13.05 125-6.45 184.45-25.3 30.13837-9.2088 56.990139-26.89591 77.35-50.95 10.135886-11.80612 21.594314-22.40894 34.15-31.6 13.15-9.3 30-12.6 42.5-21.4 21.2-15 22.35-62.75 33.45-85.75 14.234297-27.65521 33.398565-52.47895 56.55-73.25 45.584958-42.95189 97.383422-78.78773 153.65-106.3 28.45-13.9 57.65-25.75 90-25.55s58.9 20.25 90 20.95c16.05.35 32.35-2.1 43.75-14.05 13.5-14.1 2.4-24.55 1.2-42.25-1.18639-31.22096 5.70228-62.21995 20-90 15.35-30.9 40.5-45 62.85-69.1 10.65-11.45 16.5-26.15 27.15-37.75 10.77407-11.81613 23.00527-22.216 36.4-30.95 25-16.3 53.45-35 82.4-43.05 15.11955-3.81587 30.73044-5.31627 46.3-4.45 7.25.25 15 .35 22.25 1.35s18.95 7.95 25 6.8c25-4.65 14.4-65.85 22.45-84.4 18.9-43.35 50.55-12.3 79.25-2.85s65 1.95 93.6-2.4c33.7-5 54.4-23.8 82.95-40 15-8.3 27.7-10.4 44.3-13s28.8-9.3 44-14.6c33.4-11.65 59 1.7 90 11 35 10.45 55.75-25 66.25-52.95 2.55-6.85 7.45-14.4 5.8-22.05s-10-12.15-13.65-19.25c-7.65-16 4.35-30.25 5-46.45.95-30.45-25.6-58.35-45-79.1-22.75-24.1-41.95-43.1-52.85-75-10-29.5-11.35-60.95-15-91.75-3.75-32.95 7.65-60.7 17-91.7 7.6-25 12-71.9 42.35-80 25-6.8 66.45 12.5 90.6 20 21.1 6.65 71.9 21.75 82 42.75 13.15 27.45-2.3 64.15-.95 92.55 1.25 27.65 36 57.65 58 71.4 26.85 16.8 60 23 90.35 12.45 25.9-9 67.5-31.15 80.8 7.7 5 15 5 29.5 11.2 44.6 5.9 14.35 5.45 30.4 9.75 45.35s15 30.6 15 45.45c0 16.15-12.5 25-23.35 35.85-11.09575 11.551706-19.22769 25.619623-23.7 41-4.15 13.45-15 32.75-2.1 39.65 6.2 3.3 16.6 1.95 23.6 5s14 6.9 21.4 9.7c14.75152 5.958785 29.09865 12.873465 42.95 20.7 28.7 15.5 46.55 39.15 65.6 65 18.05 24.3 47.4 41.05 71.85 58.65 12.95 9.3 26.7 17.3 40 25.9 12.35 7.95 30.65 22.65 30.3-3.45 0-15.8-6.85-30.55-6-47.1s-.3-30.7 0-46.3c.3-30.3 23.05-60.25 37.7-85.45 15.53377-27.811101 45.31385-44.602201 77.15-43.5 15 .4 31.4 9 45.55 3.55s26.9-15.9 41.5-21.45c30-11.4 53.05-30.35 81-45.3 27.86217-14.62915 56.65786-27.40682 86.2-38.25 14.46755-5.801934 30.04014-8.329064 45.6-7.4 15.65 1.15 31.7 9.7 46.15 6.05s27.55-13.05 41.75-17.55c15.16074-4.720133 29.73723-11.144523 43.45-19.15 12.35-7.05 30-14.55 44.2-12.2s29.45 10 45 12.45c32.9 5.45 56.15 20.65 85.95 33.65 36.4 15.9 38.1 41.4 40.45 76.75 2.5 37.35 43.15 37.8 70.3 51.95 12.75 6.65 25.95 18.6 38.55 23.8 19 7.85 27.6-11.55 32-26.6 7.55-25.9 10.45-73.75 49.45-66.35 13.5 2.55 31.95 11 45 16.5 14.65 6.25 20 21 31.25 31.65 23.95 23.2 58.05 38 73.9-2.55 12.05878-30.424735 1.42701-65.14412-25.6-83.6-12.6602-8.372123-26.47166-14.856776-41-19.25-15-5-29.5-13.75-45-15.8-16.3-2.15-30.65 1.6-44.75-9.15-12.2-9.3-19.25-25-28.7-36.65-19.15-23.95-36.5-50.8-39.3-82.6-2.1-23.5-5.3-22.8-26.3-32.05-14.19577-6.257696-27.91559-13.54374-41.05-21.8-27.75-17.35-57.4-24.2-74.75-54.35-15-26.45-31.85-54.2-40-83.8-4.45-15.85 0-32.05-2.8-46.95s-13.8-26.6-27.55-34.4c-15-8.35-28.65-10.4-41.25-22.85-14.1-13.9-21.9-9.05-41.1-7.35s-26.35 8.15-41.1 19.6-28.9 1.5-43-7.1c-13.20881-7.44775-25.66675-16.154909-37.2-26-12.75-11.55-19.35-23.65-37.2-28-32.95-8.1-56.35 18.65-86.8 26.95-16.9 4.6-28.6 7.75-44.55-2.1-13.05-8.05-21.05-22.25-31.05-33.35s-29.3-17.4-34.3-32.45c-4.5-13.35.35-30.8-2.4-45-2.95-15-17.1-26.45-17.3-41.55s10.85-27.65 9-44.15c-.9-7.75-5.5-14.35-7.05-21.75s.65-14.35.6-22.35c0-15-3.8-30-4.15-45"></path><path d="m2489.3 2675.5c16.3-4.35 25.6-24.3 3.45-28.45-15.8-2.95-20.8 25-3.45 28.45"></path><path d="m1953.05 2644.75c22.85-1.7 27.75-21 19.55-39.3-3.6-8.1-9.15-14.75-11.8-23.35s-.95-18.05-3-26.95c-6.65-28.65-27.6-7.35-33.65 8.6-6.75 17.8-22.5 27.95-15.7 48.5 5.5 16.55 25.4 38.2 44.6 32.55"></path><path d="m3289.55 2398.75c2.35-15.5-13.65-28.5-22.55-10.5-7.7 15.55 16.85 25.85 22.55 10.5"></path><path d="m3239.75 2275.75c-22.8-30.9-22.65 30.65 0 0"></path><path d="m3960.5 1997.5c-13.6-6.05-31.85-12.5-42.3-1.25-8.05 8.7-16.95 26.5-22.4 37.25-15.95 31.55-8.45 56.5 14.6 80.3 11.2 11.55 21.25 20.9 27.3 35.35 5 11.8 20.6 25 21.9 36.65.8 7.3-5.55 14.2-7.1 21.1-1.43582 7.43295-1.04113 15.10367 1.15 22.35 1.55 7.25 5 13.5 3.95 21.15-.95 8.45-8.1 13.7-9.65 21.35-1.85 9.15 3.9 15 5 24.05s-3.25 16.25-4.7 25c-2.85 16.35-4.2 36.6 12.45 45.6"></path><path d="m3960.5 2385.15c-12.35 12.45-10.3 31.25 0 44.4"></path><path d="m3940.5 3065.15c-22.45-28.5-21.3-68.5-17.2-104.55 1.7-15 15-62.1 4.05-73.1-17.35-17.5-23.65 8.9-29 20-2.31844 5.96264-6.44456 11.05035-11.8 14.55-5.43779 2.51376-11.66312 2.71225-17.25.55-23-7.85-30-36.2-35.9-59.75-9.5-36.45-25.5-70.85-37.5-106.55s-20-74-12.8-110.95c5.8-30 21.15-56.8 31.05-85.5s13.9-62.25-2.05-88.05c-1.66092-3.4941-4.766-6.08775-8.5-7.1-2.97008-.12969-5.89095.79083-8.25 2.6-14.65 9.4-22.8 26.1-28.7 42.45-7.79531 21.63393-12.94929 44.13014-15.35 67-1.95 18.5-3.25 39.65-17.75 51.3-15.55 12.5-40.8 8.8-54.15 23.65-11 12.15-8.75 30.8-12.15 46.8-4 18.9-16.3 35-26.65 51.15s-19.2 35.55-15 54.45c4.55 21.6 25.35 40.8 19 61.95-5.75 19.05-32.05 25-50 16.15s-28.55-27.35-37.05-45.35c-8.28684-15.81419-13.672-32.98571-15.9-50.7-1.05-12.4.55-25-.6-37.25s-5.55-25.35-15.7-32.55c-5-3.6-11.35-5.6-15.65-10-15.95-16.7 6.85-50.85-11.15-65.3-3.8-3.05-8.7-4.35-12.55-7.35-22.75-17.6 5.8-58.75-2.5-82-4.55-12.75-10-22.7-10.95-36.5-1.4-25.45 4.15-55.75-24.05-69.25-13.65-6.5-23.25-2.45-35.85-12.45-9.93094-8.19051-20.38656-15.72323-31.3-22.55-22-13.25-42.2-29-63.95-42.55-12.55-7.8-22.6-10.95-28.55-25.55-4.27745-12.16041-6.90094-24.84061-7.8-37.7-2.71845-25.94143-10.95254-51.00168-24.15-73.5-14.55-25-37.05-31.4-56.7-50.4-9.45-9.15-16.55-20.75-26.4-29.6-4.65-4.2-27.6-18.9-31.7-17.95-25.7 6.05 16.65 60.5 22.05 68.65 15.35 23.05 13.65 47.15 18.25 73.55s20 46.6 20.55 74.5 11.4 49.35 26.3 72.05c13.42277 22.08385 19.3016 47.93314 16.75 73.65-1.25 16.1-2.35 26.75-11.85 39.3s-17.7 20.95-22.2 37.9c-8.2 30.75-5.3 65.35-23.4 92.95-2.33869 2.9527-4.04105 6.35743-5 10-1.45 8.25 6 15 10 22.2 15.25 26.3-12.55 61.85.95 89.1 8.8 17.7 31.6 24.2 42.4 40.8 10 15.6 7.2 35.85 10.35 54.15 3.18579 18.4139 12.61415 35.16954 26.7 47.45 36.2 31.3 94.1 26.35 130 58.2 21.09472 19.26592 30.46411 48.22933 24.65 76.2"></path><path d="m2854.8 3061.75c-.8-10-1.95-21.35-9-28.8-10.55-11.15-30.3-10-40-21.95-2.35987-3.42406-4.3383-7.09588-5.9-10.95-8.5-17.65-25.4-28.8-33.95-45.9s-4.2-38.45-11.8-56.35c-11.6-27.35-11.45-2.85-26.65-2.7-3.2 0-15-12.75-15.95-15.9-4.05-13.3 9.7-22.6-.5-37.75-10.85-16.1-17.15 6.55-31.8-6.15s-28.9-38-34.45-56.45c-3.45-11.5 3.3-24.5 3.5-36.1 0-13.7-8-28.75-3.8-40.65 2.15-6.1 7.45-9.3 9.05-16.25s0-14.4 1.45-21.35c2.55-13.9 5-27.6 7.7-41.5 2.25-12.9 10.25-25 9.7-38.75-.65-15.55-13.65-28.9-28.85-19.05-14.35 9.35-9.05 23.35-10.35 36.9s-11.9 25-14.1 39.55c-2.05 13.55 1.2 26.2-2.95 39.7s-11.7 25-12.35 40c-.55 12.6 0 29.3-16.35 33.3-25 6.2-61.05-18.15-58.05-42.3 3.55-28.9 16.4-50 9.6-80.5-6.55-29.35-11.9-58.15-47.8-47.85-24.1 6.95-54 21.95-68.8 43.1-10.25 14.7-6 24.3 1.2 39 5.9 12.05 10.7 28.1-6.3 34.3-25 9.15-36.7-42.1-57.15-51.8-24.2-11.5-54.65-10.25-80.5-17.2-45.7-12.25-121-55-140.6 18.1-4.1 15.3 0 27.4-17.95 32.5-12.65 3.55-27.8 3.95-40.9 6.1-21.95 3.65-65 13.8-74.4-15-5.65-17.35 10-22.1 15-35.95s-.35-28.35-6.4-40c-6.45-12.45-19.4-20-24.2-32.75-5-13.65-3.25-26-12.9-38.55-6.25-8.1-21.9-23.55-31.85-26.05-13.1-3.3-25 13.2-32.7 22.55-16.25 20-23.9 51.6-28.8 76.65-5.8 30-11.9 50.95-2.4 80 10.55 32.5-6.9 48.05-27.7 71-17.95 20-39.45 41.2-67.15 45-30.3 4.15-51.9-18-80-19.15-20.9-.85-14.45 15-17.15 28.55-2.85 14.4-13.1 23.1-23.45 32.75-20 18.8-44.15 32.55-65.8 49.6-10.4 8.2-20.45 20-33.8 22.5s-28.2 1.65-41.3 2.85c-27.44588 2.82143-55.08086-3.11161-78.95-16.95-24.5-14.7-36.1-41.6-59-57.1-29.3-20-51.25 13.3-53.95 40-5.3 52-10.55 115.5-62.1 145-25 14.3-56 10.35-74.15-12.85-8.15-10.45-11.1-26.7-23.55-33.05-13.23529-5.36794-28.32855-3.27166-39.6 5.5-19.5 16.7-4.7 55-4.6 77.4"></path><path d="m.5 2076.6c19.25-5.55 46.6-15.7 66.7-12.95 31.6 4.25 15.4 34.25 9.05 53.6s-14.1 47.75-2.05 65.95c10.95 16.5 37.85 27.2 53.65 39.15 19.15 14.5 46.15 12.05 55.55-13.9 4.05-11.15-1.85-21.25 2.9-32.4 4.2-10 12.15-19.25 17-29.1 19.7-40 39.25-81.25 62.4-119.25 24.45-40 70-56.85 113-68.8 11.4-3.15 21.5-6.1 32.6 0s15 15 28.8 16.2c23.6 2.25 44.45-27.85 20-44.05-21.3-14.15-42.5 20-60.65-11.25-5.799211-9.90011-7.328003-21.73129-4.235781-32.78032 3.092221-11.04904 10.540152-20.36796 20.635781-25.81968 19.5-11.1 44-4.05 65.65-7s44.15-10.35 65.9-16.25 44.1-2.95 65.85-8.75 40-21.4 58.6-33.55c37.9-25 66.65-58.95 106.4-81.6s42.2-77.5 68.85-112.3 67.25-62.15 102.85-86.2c36.95-25 75.85-50 120.85-56.5 22.11639-3.81786 44.86988-.89091 65.3 8.4 23 11.5 35 27.75 61.35 12.4 20-11.7 32.35-30.6 47.7-47.4 18-19.75 19.25-34.45 24.45-60 9.75402-44.08628 30.73178-84.90507 60.9-118.5 32.3-35 62.55-60.75 107.1-78.35 22.95-9.1 36.75-21.85 62.4-22.95 22.2-.95 44.6 1.65 66.7-1.75 45.5-7 73.2-50 116.3-64.7 21.3-7.2 42.7-15 64.1-21.85 23.3-7.65 41.4-7.45 61.15-23.15 34.81023-28.5129 76.17022-47.91275 120.35-56.45 22.25045-4.313186 45.09238-4.61797 67.45-.9 21.3 3.3 46 12.1 66.8 4.35s37.6-24.3 58.85-31.5c21.12303-7.458059 43.97685-8.519005 65.7-3.05 22.33772 5.292828 41.68725 19.180658 53.85 38.65 12 20.9 3.55 44.15 11.2 66.2 9.75 27.95 24.45 34.55 48.45 17.4 18.65-13.3 32.3-31.1 46.35-49.1 24.4-31.2 69.6-69.75 112.75-65 46.05 5 77.35 46 108 76.05 15.85 15.55 30.75 32.25 46.7 47.55 18 17.3 36.85 22.6 60.7 27.4 21.65 4.4 46.85 8.85 61.3-12.15 13.55-19.7 3.2-44.3 3.9-66.3 1.4-44.6 12.2-92.25 51.2-119 18.7-12.8 42-15 63.9-16.65 22.43901-2.024025 44.5786-6.569351 66-13.55 24.3-7.4 41.2-10.4 60.45-27.3 17.4-15 37.05-23.2 57.85-32.45s39.25-22.7 60-31.7c21.8-9.5 42.55-7.65 65.5-9.6 45.25-3.8 81.3-42.7 126.75-42.303063 24.15 0 42.35 12.453063 63.5 22.003063 20 9.1 42.35 14.2 60.5 27.7 35 26.2-4.15 93.85-10.6 126.8-4.5 23.05 10.9 53.05 34.35 30.95 17-16 22.95-38.65 49.2-41.8 24.55-2.95 36.35 21.35 56.6 31.2 19.66785 10.41264 40.23443 19.030858 61.45 25.75 46.1 12.85 87.2-2.05 132.9-11.5 10.73047-3.040586 21.80056-4.720417 32.95-5 10.9.5 22.35 6.9 32.3 4 21.25-6.25 36.25-25.8 59.6-31.15 12.25-2.8 20-2.7 28.35-12.9 3.55-4.25 4.15-10 8.7-13.4s10.85-2.35 15.45-5.3c20.8-13.15 12.3-43.65 43-41.65"></path><path d="m1400.5 2690.85c16.85-14.5 20-33.05 22.95-53.85 2.35-15.5 12.95-46.4-2.15-58.45-19.5-15.55-32.1 22.4-36.7 35.5-6.4 18.35-22.95 34.7-27 53.8-5.4 25.85 24.2 44.3 42.85 22.95"></path><path d="m2569.35 2552.5c39.5-16.45 9.55-91.4-30-58.25-16.15 13.5-18.6 30.55-13.8 50.35 6.1 25 25.65 18.8 43.9 7.9"></path><path d="m1955.5 2444.9c-3.8-12.95-2-23.7-2.5-36.55-.5-13.65-17.05-24.25-22.4-7.05-2.9 9.3 8.3 24.3 9.2 33.35.7 6.8-5 12.35 3.4 17.75 6.95 4.4 12.15 1.25 12.3-7.5"></path><path d="m2318.6 2444.9c45-17.85-11.85-68.95-25-85.8-3.9-5-13.65-18.7-22.1-15-11.7 5-1.25 16.75 1.05 22.3 6.75 16.3-.75 33.85 3.15 51.75 3.2 14.7 26.6 44.6 42.75 26.9"></path><path d="m1935.5 2275.75c7.55-21.95-20-42.3-30.9-18.35-10 21.6 23.05 42.85 30.9 18.35"></path><path d="m3627.5 2260.15c10-3.7 25.4-22.55 5.9-22.3-16.2 0-20 30-5.9 22.3"></path><path d="m3135.75 2122.05c2.28033-17.75283.57219-35.79078-5-52.8-5.95-16.85-25.3-31.05-36.5-11.35-8.23667 16.2052-7.97492 35.42512.7 51.4 7.3 12.15 31.75 32.3 40.95 12.7"></path><path d="m3960.5 1899.7-4.95.85"></path><path d="m1898.05 2482.15-.35 2.05"></path><path d="m1052.65 3059.8c8.2-7.75 11.7-18.1 16.45-28 9.03771-20.1896 15.74758-41.34246 20-63.05 4.15-17.75 4.1-53.05 28.75-54.4 17.9-1 45.4 18.8 60.45 27.55 16.6 9.7 37.15 31.8 56.85 33.75 18.6 1.85 41.2-26.85 52.1-39.5 15.65-18.25 21.3-36.55 25.8-60 6.3-32.6 39.6-109.45 80-68.25 15.8 16.2 24.35 35 45 47.55 19.11809 11.64255 41.44632 16.89625 63.75 15 23.55-2.1 40.5-14.65 60-26.3s41.25-14.1 62.6-21.15 44.1-14.3 48.9-38.9c4.05-20.75 7.2-47.1 34.2-48.05 23.7-.85 40.6 16.1 61 25.55 26.7 12.35 37.3-4.3 49.2-26.7 11.05-20.8 15-40.35 17.6-63.4 3-24.25 16.45-38.7 25.95-60.25 9.1-20.7 8.55-43.15 13.75-65s18-40.6 22.75-62.3c8.6-39.45-14.4-80.85-2.05-119.3 2.3-7.1 5.7-13.75 8.35-20.75 5.5-14.55-6.25-32.25-12.45-45.25-8.5-17.85-11.8-36.35-3.35-55 16.7-36.85 46.75-34.5 63.2 1 5.97707 13.84051 6.7757 29.36934 2.25 43.75-4.3 14.45-17.1 26.25-18.3 41.65-1.35 16.9 12 24.15 21.1 35.9 9.54906 11.92211 17.82726 24.80864 24.7 38.45 6.88945 13.69635 11.11434 28.5768 12.45 43.85.95 17-8.85 25.85 3.25 40.5 18.95 23 35.45 48.7 55 71.35 21.1 24.45 48.65 37.55 79.7 22.8 12.35-5.9 28.15-15.35 34.1-28.2 7.3-15.75-2-28.9-.45-43.9 1.8-17.45 22.4-16.9 35.8-22.05 14.45887-4.58876 25.69843-16.0531 30-30.6 9.32513-28.72204 14.37912-58.65848 15-88.85 1.15-32 14.65-65 51.35-43.6 25.85204 15.09527 48.16962 35.55448 65.45 60 20 30 7.9 55.95 3.4 88.1-4 28.4 3.65 63.7 30.55 78.3 25.25 13.7 62.9 5.35 82.85-15s23.45-56.7 40.5-80.5c7.35-10.3 22.15-25 36.15-22.6 12.45 2 28.45 18.7 36.2 27.85 12.65 15 35.5 74.05 60.7 47 11.2-12.05 11.95-26.6 30.7-31.9 15-4.25 27.4 1.4 36.05 15.4 15 24.4 23.45 59.7 17.3 88.05-3.36394 14.17542-11.01023 26.9716-21.9 36.65-9.45 8.95-29.55 18.9-26.9 33.4 2.8 15.3 23.9 18.15 33.65 27.15 11.45 10.6 19.7 20.3 34.05 27.7s23.05 18.85 37.45 25c8.05 3.4 13.4 3.9 20 10.25s6 11.3 15 14.65c14.4 5.3 30.8.55 43.1-5.95 14.4-7.65 30.9-4.6 38.85-20 3.65-6.95 2.65-15.25 6.1-21.9 4.65-9.05 11-7.15 17.3-13.15s15.4-28.45 15.8-39.1c1.1-28.6-17.2-60-33.95-81.25-9.7-12.35-21.65-24.35-11.75-40.3 8.05-12.9 25.4-18.65 39.35-21.05s28.85-3.1 43-6.85c18.45-5 23.4-12.9 32.75-28.7 12.75-21.55 30-59.65 55-69.1 22.85-8.6 66.2 12.25 85.6 23.7 10.9 6.4 30 23.5 38.5 3.55 6.05-14.55-16.6-21.95-24.75-32.1-16.65-20.8-.35-61.1-5.75-86.85-5.85-28.2-7.5-60.5-17.9-87.35-21.3-55-90-92.25-80.85-155.8 2.15-15.35 8.75-29.05 12.7-43.9 3.5-13.35.8-30.6 10-41.7 16.2-19.7 21.7 5.7 26.8 18.55 5.62022 13.69126 12.49976 26.83101 20.55 39.25 16.1 25.5 19.1 58.1 36.9 82.1 18.55 25 45.85 36.85 70.75 53.6 26.2 17.65 39.55 42.45 50.5 71.45 5.7 15 12.15 31.3 22.75 43.75 14.2 16.75 35.3 7.6 35-13.35-.72796-30.09499 1.0448-60.19846 5.3-90 2.55-17.35 6.85-36.1 20.6-47 19.1-15 36.3 1.35 45.75 18.3 5.4 9.7 15.65 19.6 19.5 30 4.15 11.1.6 25.3 1.65 36.95 1.7 19.15 3.7 54.3 17.9 68.65s51.85 15.5 68.35 5.5c14-8.45 12.7-15.4 14.35-30.75 1.4-13.1 6.8-21.45 12.4-33.15 10.65-22.35 34.3-32.2 46.55-54.55 11.55-21.15 10.5-46.5 16.7-69.45 4.05-15 3.5-65.6 25-58.8 13.05 4.1 15 18.95 18.35 29.65 3.75 11.85 10 21.1 15.8 32.1 10.51747 21.97114 18.5505 45.04724 23.95 68.8 5.65 22.75 1.3 50 18.85 67.45s44.2 21.9 66.75 27.6 45-20.6 52.6-40c9.2-23 3.25-46.7 14.4-69.05 13.65-27.4 15-39.1 1.45-66.55-5.5-11.1-9.1-22.85-14-34.2-6.45-15-4.35-17.7 3.85-31.75 5.83026-10.44211 12.37938-20.46627 19.6-30 10-12.65 12.65-16 5-31.55-10.95-21.65-26.65-39.7-40.3-59.5-5.85-8.5-17.2-21.25-12.2-32.15 3.85-8.35 23.85-15.65 32.45-16.6 38-4.15 28.3 27.8 44.45 47.3 8.2 10 20.65 14.05 30.85 7.15s11.3-23.8 24.65-26.6"></path><path d="m3960.5 945.15c-13.65 0-20.65 5-30 13.85-13.8 12.7-42.45 20.45-61.9 22.85-22.9 2.85-45.35 9.05-68.35 10.95-27.7 2.3-37 17.9-48.25 42.05-4.7 10-10.3 20.65-13.9 31.05s-.9 25-8.1 33.65c-10.8 13.05-46.25-9.55-60.95-15.5-23.45-9.55-33.7-28.05-47.95-47.65-26.9-36.9-67.95-61.5-102.35-90-19.2-16-34-32.35-55.55-5.4-8.05 10-8.9 20.5-13.5 32s-13.15 18.3-18.5 28.4-13.65 67.45-34.5 43.5c-8.95-10.3-1.65-21.6 0-32.6 1.47914-11.28868.05067-22.768099-4.15-33.35-7.89335-21.299849-11.13268-44.04337-9.5-66.7 2-22.75 10.25-45.6 7.55-68.65-5-42.5-61.95-78-103.05-75.7-25 1.4-39.2 20.9-60.95 28.6s-45.9 5-68.6 7.95c-22.78413 2.12377-44.39501 11.081828-62 25.7-10.51183 9.252445-22.58234 16.565852-35.65 21.6-13.3 5-26.9 6.9-40.35 11.25-4.86667 1.566667-9.65 3.333333-14.35 5.3-9.18574 3.773552-18.13534 8.098081-26.8 12.95-17.35018 9.854811-33.85635 21.126498-49.35 33.7-3.1646 2.656441-6.50559 5.095363-10 7.3-9.16667 5.315406-19.88465 7.310679-30.35 5.65-11.38722-1.313994-22.8765-1.498224-34.3-.55-50.6 2.75-84.15 34.3-93.4 83.75-8.3 44.45 11.3 98.2-41.3 121-20.25 8.8-45 8.35-66.65 12.7-26.9 5.5-41.45-7.95-56.2-29.45-25.55-37.25-55.7-73.45-93.75-98.95-16.75-11.25-41.5-26.8-62.55-25s-42.7 23.4-57.8 36.65c-34.45 30-61.05 68.45-95.35 98.7-19 16.75-44.1 25-51.45-5.85-5.35-22.4-7.85-45.35-14-67.7-13.55-49.35-53.2-73-104.35-62.15-22.2 4.7-42.5 16.6-65 20s-46.35-.5-69.1-1.5c-46.02124-2.54722-91.77382 8.5127-131.55 31.8l3.85-2.75c-5.26568 4.50893-11.49008 7.75794-18.2 9.5-17.75 6.7-33.3 17.95-50 27.25-20.28867 10.75217-41.28745 20.10724-62.85 28-6.11439 3.09512-11.9524 6.70832-17.45 10.8-7.9 4.65-17.15 7.85-25.5 11.7-38.4 17.7-75.7 41.4-115 56.15-40.5 15-84.15 10.9-125.3 24.75-82.15 27.65-133.25 112.9-161.5 190-15 41.15-41.25 73.7-40.75 119.65 0 13.8 3.9 21.3-11.85 22.85-10 .95-22.8-2.55-32.7-3.8-21.04459-2.19569-41.27512-9.32177-59.05-20.8-41.8-25.3-77.7-22.55-120 1.6-37.2 21.3-74.1 44.7-110 68.4-38.95 25.9-57.9 57.35-79.45 97.8-15 28.5-41.95 47-67 66.15-12.4 9.5-23.8 20-35.75 30s-26.1 18.05-36.5 29.1c-6.886974 8.28778-14.196677 16.21497-21.9 23.75-7.248609 5.76227-15.053913 10.78714-23.3 15-13.55 7.6-30.65 23.4-46.3 18.1-13-4.4-23.7-11.5-38-7.65-16.075961 4.72136-30.75265 13.30422-42.75 25-26.2 25-13.35 61.15-29.3 91.45-10.4 19.7-40 57.6-65 51.55-30.4-7.25-45.8-35-81.3-29.5-34.1 5.25-50.9 22.6-62.9 53.95-10.3 27-26.6 52.5-35.7 79.4-14.4 42.7-32.15 141.3-100.35 124.05-16.1-4.05-23.6-15.8-35.6-25s-28.3-6.95-41.1-15c-26.5-18-22.5-53.15-59-61"></path><path d="m1385.85 2737c27.6-5 50-44.1 57-68.5 7.4-26.55 11.45-62.7.9-88.9-31.3-78-99.2 59.1-105.75 90.85-3.32951 16.99071-.82788 34.60784 7.1 50 6.45 13.45 26.4 31.55 40.75 16.25"></path><path d="m2584.35 2614c-12.05-8.3-12.1-33.1 6.75-27.45s1.9 32.45-6.75 27.45"></path><path d="m1481.85 2426.1c-.75-11.55-12.3-30-15.5-8.8-2.1 13.95 7.45 26.75 15.5 8.8"></path><path d="m1487.35 2348.4c-20.65 9-1.9 44.05 13.15 35.45 12.25-7 7.5-44.4-13.15-35.45z"></path><path d="m2716.75 2337.25c8.2-7.1 28.75-18.85 23.75-32.1-4.2-10.65-25.4-18.65-33.85-25.45-10.84583-9.00251-20.38719-19.4694-28.35-31.1-6.8-10-13.7-30-27.7-31.9-30-4.55-25.75 52.15-34.7 69.1-13.1 25-35.6 55 7.85 63.6 31.52967 5.64009 64.03104 1.45087 93.1-12"></path><path d="m2243.85 2170.85c-20-29.25-15.8 42.6 0 0"></path><path d="m1939.35 2137.4c12.8-6.65 48.85-35 33.05-50.65-6.85-6.85-25-4.2-34.15-5.85-10.5713-2.64807-21.29003-4.66826-32.1-6.05-70.35-4.25 0 98.75 33.2 62.55"></path><path d="m3575 1460.5c12.85 1.7 15.75-27.6-1.1-26.6-15.2.8-10.85 25.05 1.1 26.6z"></path><path d="m3763.75 1430.15c19-16.7 24.4-51.9 29.15-75.8 2.85-14.2 5.75-25 .4-39.05-3.35-8.65-10-10.8-15-17.45-12.8-17.75-13.8-32.7-21-51.75-4.6-12.2-13.35-23.3-18.3-35.55-2.93958-6.10065-4.80041-12.6643-5.5-19.4 0-6.45 5.7-15 4.2-20.85-5.95-23.05-23.65-.4-32.65 3.75-31.05 14.4-41.95-33.3-60.65-45.65-24.15-15.95-45 37-45 55 .9 56.95 90 65.35 127.6 88.1 12.35 7.45 28.8 15 30.75 30 1.8 14.05-1.65 31.45-1.25 46 1.12129 15.17395.88703 30.41767-.7 45.55-1.15 7.1-10.3 43.7 7.8 37.3"></path><path d="m2608.6 1230.15c5-17.75-11.6-32.2-22.4-13.35-10.3 18.05 10.4 28.65 22.4 13.35"></path><path d="m3960.5 1876.8c-11.9.4-27.55 1.75-38-5s-13.7-22.85-23.4-30.25c-17.85-13.65-56.15-2.05-74.45 6.3-24.15 11.05-45 30.65-32.8 58.3 10.7 23.8 29.25 41.8 36.15 67.9 7.15 27.1-10 47.95-11.8 74.15-1.85 25 15.95 50.35 3.4 75-11.2 21.85-40 39.7-62.05 26.05-20-12.3-32.7-43.05-40.6-64-9.3-24.7-18.1-47.7-37.3-66.7-8.65-8.55-21.8-14.2-29.4-23.35-9.15-11-3.2-29.6-22.55-20.55-48.6 22.75-54.4 90-50.8 136.65 1.8 23.2 13.65 53.05.85 75-6.75 11.5-20.65 15.75-31.7 21.75-12.2 6.6-17.9 15-26.95 25-6.85 7.75-20 25-32.25 20.45-10.35-3.7-12.65-24.25-13.35-34.15-1.6-21.8 3.8-52.8 8.45-74.4s50-40 23.75-62.6c-18.25-15.55-52.3-8.25-74.35-7.15-41.85 2.1-121.5 8.35-128.75 59.65-.76443 5.34781-.94884 10.76257-.55 16.15 0 2.8 2.7 10 1.15 12.5-3.1 5-21.35-3.55-26.7-4.6-11.28002-1.61719-22.4508-3.92147-33.45-6.9-19.65-6.6-43.8-14.7-53.2-34.15s-14.35-40.55-25.4-60c-11.30928-18.50232-21.01147-37.94016-29-58.1-6.86942-20.17847-18.63758-38.33752-34.25-52.85-8.1-7.05-18.4-15-28.8-11.65-13.7 4.35-10.75 15.7-10.4 27.85.6 21.75 5 43 0 64.55s-12.85 41.3-13.6 63.5c-1.8 52.65 35.8 69.7 61.65 107.85s30.6 78.75 26.15 124.05c-1.95 19.5-13.15 51.3-37.8 38.4-11.4-5.95-13.55-14.3-28.35-12.25-10.91677 2.5404-21.05581 7.68712-29.55 15-35 26.5-54.3 65.95-98.25 81.55-21.4 7.6-40 13.05-59.15 26.1-17.55 12-33.25 29.2-52.55 38.25-34 15.95-105-39.4-68-70.6 31.8-26.9 51.85-70.3 66.65-110 13.2-35 11.05-104.7-43.4-99.75-21.5 1.95-38.5 18.6-61.1 16.8-23.6-1.9-37.4-20.4-50.7-37.45-16.2-20.75-27.2-28-22.6-56.3 2.05-12.65 1.65-21.35-12.9-25.35-7.7-2.1-28-.3-29.5 10-1.1 7.35 13.75 18.95 15.55 27.65 2.35 11.25-1.25 21.9-5 32.25-7.45 20-15 40-21.05 60.4-6.95 23.1-11.3 41.55-38.05 46.75-22.85 4.45-43.15-11.85-62.15 1.8-34.05 24.5-56.05 79.15-106.05 55-37.55-18.3-69.55-55-110-66.5-56.85-15.85-47.55 60-58.7 93.6-15 45.25-58 58.8-90.45 88.25-8.95 8.1-19.4 27.1-30.7 27.7-12.4.65-27.25-18.6-34.5-25.55-18.35-17.55-31.75-38.25-45.75-59.15s-33.45-38.05-41.45-61.85c-9.15-27.35-5.6-45.7-5-73.55.6-26.4-9.35-48.1-15-73.05-6.3-26.95 9.6-46.9 23.8-68.25 13.25-20 29-46.65 10-68.5-16.1-18.45-46.45-21.6-68.3-29.2-24.2-8.4-45-20.9-67.25-32.95s-48.7-1.55-70 12c-25 16-31.7 37.5-14.75 62.7s43.45 13.5 67 26.8c19.6 11.05 37.9 38.75 41.5 60.75 4.15 25.6-10.75 48.25-16.15 72.5-5.7 25.8-1.05 48.75 4.05 74.15s3.45 48.7 1.2 74.55 1.55 49.75 1.05 75c-.55 27.6-20 44-23.6 70-1.65 12.6 2.5 25 2.05 37.45-.5 13.25-7.25 22.8-15.65 32.9-15.58109 19.53389-33.51709 37.06683-53.4 52.2-24.2 17.25-44.2 9.5-69.35-3.1-15.45-7.75-19-11.45-32.05 1.25-8.48113 9.10517-16.47559 18.65179-23.95 28.6-8.8 10.6-14.25 18.95-15 33.2-.85 12.35 4.5 25.4-.6 37.2-9.7 22.45-48.4 17.55-68.85 18.85-53.35 3.35-68.9 76.75-129.45 53.2-13.95-5.45-20.75-10.75-25-25.4-3.35-11-10-24.3-10.8-35.5-1.8-23.55 32.3-39.5 44.4-57.75 26.35-39.65 20-102.7 8.05-146.25-3.3-11.95-10.75-23.95-13.45-35.45s6.4-22.15 13.45-31.95c14.65-20.45 31.35-38.6 44.05-60.75 12.81398-21.65944 19.11536-46.55248 18.15-71.7-1.15-22.75-23.95-59.25-47.45-32.35-7.85 8.95-10.8 23.25-16.9 33.5-6.83189 10.44597-14.29581 20.46464-22.35 30-15.5 20-32.6 39.3-29.35 66.6 1.7 14.2 10.6 21.3 16.4 33.25 8.2 16.85 0 20-11.95 29.6-18.05 14.55-35.65 37-50.55 55s-23.5 45.4-32.8 67.3c-9.97855 22.99601-15.70451 47.61086-16.9 72.65-1.1 25 5.7 49.7 3.6 75s-15 47.25-24.2 70.55c-10.25 26.4-23.1 40-49.05 52.9-24.35 12.05-46.25-9.35-66.05-23.65-21.1-15-39.05-36.4-65-22.9-22.5 11.7-36.25 33.95-45 57.5-8.1 21.65-5.45 54.55-28.25 67.35-23.7 13.3-50.75-.8-68.5-16.7-20.85-18.65-28.75-37.65-30.5-65.45-1.469935-12.47581-1.971435-25.04674-1.5-37.6 1.4-14.05 9.55-21.75 15.9-33.35 12.45-22.95 7.65-53.3-18.3-63.35s-47.2 8.95-65 26.15c-31.6 30.5-93.1 72-130 28.55-32.55-38.55-58.05-85-51.05-135.6 7.65-55.65-10-93.3-29.45-143.95-9.25-23.8-2.9-50.55-12.95-73.05-15.25-34.2-42.4-11.5-49.6 14.5-13.7 49.35-20 97.3-10.95 147.85s9.55 99.1-7 147.9c-6.95 20.6-20 50.9-41.15 60.65-24.3 11.25-44.45-18.55-58.6-35.55-16.512783-18.74338-34.485774-36.14792-53.75-52.05-18.95-16.7-33.15-37.2-52.05-53.8s-38.4-33-47.15-57.05c-8.45-23.2-10-50-24.35-70.65-32.85-47.35-101.95-39.45-114.6 17-1.857261 12.31603-5.976551 24.1823-12.15 35-7.5 11.55-20 19.1-5.75 30.95 10.55 8.7 25 4.2 37.35 7.65s22.9 11 34.25 15.7 23.85 7.9 33.85 16 15 19.45 22.65 29.45c15.507535 19.66996 25.236952 43.26639 28.1 68.15 3.25 24.3-6.9 50.85-20.8 70.5-12.25 17.35-47.1 33.8-45.45 57.5.9 12.55 12.3 24.5 24.4 22.05 10.45-2.1 22.8-16.2 35-13.6 29.05 6.1-15.85 58.65 26.1 53.75 27.25-3.2 41.95-21.8 67.6 1.1 20 17.65 18.8 46.9-5.35 61.3"></path><path d="m.5 2299.75c6.1-12.45 23.1-25.8 33.6-35 12.1-10.45 28.2-13.85 42.65-21.6 20.25-10.85 25.45-2.95 37.05 12.9 9.644034 13.48227 25.556295 21.04154 42.1 20 32.7 0 59-23.65 80.65-45.9 25.75-26.45 37.2-46.75 42.25-83.45 2.3-16.75 9.7-29.3 15-45s5.8-32.05 8.2-48.05 6.5-30.8 24.7-35.45c16.301947-4.27882 33.603077 1.3255 44.3 14.35 13.55 18.6 35.5 77.4 66.05 45.25 21.618962-23.84242 40.844537-49.75005 57.4-77.35 19.35-30.9 25-67.45 43.5-98.15 7.4-12.2 24.15-34.65 41.05-28.9 6.45 2.2 14.6 12.9 20 17.2 6.55 5 12.3 18.3 23.2 15.35 8.85-2.4 16.85-17.15 22.6-23.95 8.8-10.45 17-21.5 26.1-31.85 18.15-20.65 39.1-35 60-52.3 40.55-33.55 85-67.95 114.25-112.15 14.55-22.1 26.85-46.6 47.8-63.65s46.75-25.7 71.65-34.55c27.4-10 45.8-24.4 68.45-41.9 21.45-16.6 46.8-28.75 73.9-18.25s39.3 35.75 69.6 38.05c26.3 1.95 52.7 12.75 78.5 13.65 41.95 1.45 32.15-28 21-54.55s-13.55-50-4.1-77.5c17.4-50.6 47.85-96.6 79.6-139.25 32.35-43.5 75.4-80.55 132.45-79.1 28.05.75 52.65 14.35 76.95-3.3 21.35-15.5 40.5-35 63.65-48.15 24.05-13.9 51-12.6 74.1-27.6s45.55-29.2 69.3-42c46.6-25 95.65-50 146.25-66.45s106.45-3.95 158.35-16.9c56.05-14 110.35-15.4 131.95 48.9 8.15 24.3 8 56.6 27.95 74.75 9.69948 9.39092 22.78437 14.46034 36.27902 14.05541 13.49464-.40494 26.25203-6.2498 35.37098-16.20541 36.75-37.5 63.85-87.55 113.2-111.5 51.3-25 106.75 18.5 138.4 56.7 15.45 18.7 32.45 46.2 36.85 70 5 27.6-25 48.7-15.5 76.9 3.8 11.5 14.35 26.55 28.8 22.9 10.85-2.75 21.2-20 25.4-29.25 12-26.3 17.15-48.5 44.4-63.55 23.3-12.85 50.95-17.05 71.6-35 22.2-19.15 27.2-45.4 27.15-73.3 0-54.45 18.65-115 85.8-109.05 13.3569 1.085331 26.39536 4.645899 38.45 10.5 8.8 4.45 20.6 21.65 31.5 20 12.4-1.75 14.1-21.2 15.7-31.1 2.6-16.55 6.5-24.7 19.35-35.75 22.15201-18.831879 49.20554-30.971282 78-35 14.1-1.9 29.4-1.95 41.7-10.25s20-21.15 31.55-29.65c25-18.15 52.45-22.2 82.15-15.55 12.75 2.85 28.95 13.15 42.15 10s23.05-19.2 32.7-27.55c22.9-20 57-5 75.45 16.45 21.6 25 10.7 53.6 10 83.05.35953 28.850808 2.76557 57.639753 7.2 86.15 1.75 13.85 1.6 28.25 2.25 42.15.9 18.85-8.6 23.45-17.1 38.8-5.9 10.65-9.3 32.1 5 38.25 12.05 5 28.65-10.4 37.95-17.1 23.3-16.85 48.4-33.3 60-60.65 5.85713-13.23227 10.31469-27.04067 13.3-41.2 2.45-13.35-4.35-31.1 1-43 17.85-39.5 51.8 20 60 33.6 15 24.55 32 48.65 39.2 76.8 15 58.4-38.4 110.9-12.45 168.7 26.45 58.95 100 54.25 141.2 94 47.95 46.15-11.25 114.25 32.75 161.7 9.45 10 26 14 31.95 26.35 6.95-10.4 16.95-12.7 23.8-23.6 6.50102-9.39312 11.55721-19.70774 15-30.6 2.37779-11.26267 7.07781-21.90582 13.8-31.25 8-10 15.9-14.5 18.85-27.85 5-22.5 3.4-44.3 12.7-66.1 4.05-9.5 15.5-20 16.15-28.75 1.05-12.85-11.9-20-20-26.9-39.5-32.7-61.85-59.6-69.25-111.55-1.65-11.7-5.55-22.3-7.95-33.6-2.6-12.35 1.35-21.05 5.8-32.8 6.8-18.1 19.05-46.9 38.7-51.1 12.15-2.6 26.05-4.3 38.65-6.35s25.55 1.2 37.15-2.85c14.15-5 20-9.25 35.6-9.75 13.85-.45 26-2.55 39.7 1.05"></path><path d="m2408 2506.35c-11.3-29.7 28.3-87.4 51.65-46.3 18.2 32.05-25.95 82.5-51.65 46.3"></path><path d="m2637.05 2475.65c-26.5-18.5-34.25-106.55 16.95-90.25 29.05 9.25 16.55 30 12.6 51.05-1.55 8.2-15 62.15-29.6 39.25"></path><path d="m2235.85 2214.25c16.2.3 28.45-23.15 33.95-36.4 7.85-18.95-1.4-32.1-10.45-48-3.2-5.6-5.65-19.65-12.2-19.45-.95 0-19.2 16.25-20.85 18-10 10.9-21.1 32.25-22.4 47.1-1.15 12.85 13.6 52.05 31.95 38.75"></path><path d="m2609.65 2112.05c-6.5-12.35-55-69.6-61.15-28.05-2.4 16.05 15.55 23.3 26.05 30 13.7 8.8 26.85 19.7 35-2"></path><path d="m1690.5 2029.8c1.85-18.55-32.65-57.4-43.15-29.45-8.85 23.6 24.4 50.25 43.15 29.45"></path><path d="m3485.5 1599.35c26.75-21.4 64-24.4 92.9-42.7s47.15-54.7 34.25-88.45c-9.25-24.2-38.9-83.9-66.4-44.1-9.6 13.9-10 32.4-20 46.7s-24.65 23.05-37 35.35c-11.4 11.35-31.8 30-31 47.15.45 10 18.7 48.55 27.1 46.1"></path><path d="m3787 1583.95c10.45-17.4-2.2-74.3-23.8-45.45-5.75 7.7-6.05 26.8-3.4 36.45s22.75 28.25 27.25 9"></path><path d="m2591.65 1491.7c2.3-6.1 4.35-20.7-.8-25.95-7.5-7.7-8.5.7-13.5 8.85-4.45 7.25-12.35 13.75-6.6 21.25 2.83328 3.43357 7.32309 5.03412 11.68946 4.16712 4.36638-.86701 7.90405-4.06153 9.21054-8.31712"></path><path d="m2599.1 1367.9c17-12.35 5-43.7-14.5-35-13.3 5.95-2.2 45 14.5 35"></path><path d="m1581.65 1300.4c-5-9.55-11.1-18.35-16.9-27.4-19.7 15-2.9 48.75 16.9 27.4"></path><path d="m1974.15 1199.6c13.45-28.45-27.45-56.05-40.65-24.6-11.85 28.2 30 58.9 40.65 24.6"></path><path d="m3960.5 1418.15c-31.15-9.15-86.5-7.7-93.15-50-5.7-36.05 70-64.7 19.65-90-31.9-16-65.95-41.4-79.15-76.55-14.1-37.5-2.45-78.7 32.8-98.2 18.15673-10.65883 37.85793-18.43473 58.4-23.05 10-1.9 20.55 0 30.7-2.65 6.3-1.65 8.25-5 15-4.65 5 .3 10.35 5 15.9 5.55"></path><path d="m3960.5 1732.3c-.42401 3.75473-.42401 7.54527 0 11.3"></path><path d="m3960.5 1802.45c-3.62376 8.28787-3.62376 17.71213 0 26"></path><path d="m3960.5 1846.3c-11.4-4.25-18.25-12.6-28.45-18-9.85212-4.4422-18.95938-10.37878-27-17.6-16.75-15.25-43.35-8.15-63.65-2.4-39.55 11.3-91.75 39.45-81.6 89.45 4.7 23.1 25.9 34.7 30.7 57.25 4 18.65-5.45 51.6-27.55 55.6-18.65 3.4-40-28.65-50.3-41.2-14.7088-16.66801-27.4277-34.99128-37.9-54.6-20.7-42.4-92.1-15.75-109.45 19-5 10.25-5.6 21.85-10.45 32.3s-11.7 18.6-16.95 28.2c-10.65 19.7-15.85 44.1-40 50-20.6 5-45.25-5.8-65.7-9.5s-47.65-4.3-59.1-25.65c-10.55-19.6-2.6-44.7-12.4-65.4-11.2-23.7-30-28.7-47.9-43.7-13.35-11.15-11.7-11.55-12.8 6.65-1.2371 10.90411-1.75489 21.87785-1.55 32.85 1.65 23.2 14.3 41.45 24.05 61.65 6.35 13.15 9.1 17.5 3.6 31.4-4.11599 10.1339-9.49161 19.70921-16 28.5-12.45 17.25-17.35 43.8-31.45 58.3-15 15.7-46.65 5.65-60.75-8.35s-21.75-38.75-34.5-55.6c-26.9-35.55-43.45-77.7-58-119.7-6.2-17.9-8.6-50-27.15-58.55s-46.65 1.95-66.6 1.8c-18.8 0-51.75.85-57.15 25-5 21.95 23 40.4 36.85 52.8s35.75 32.5 37.15 53.1-13.4 44.3-17.3 64.35c-10 50.55 1.95 84.55 39.1 119.45 13.9 13.1 39.4 30 44.3 49.6 3.7 15-8.5 51.05-19.7 61.65-13.95 13.15-46.2 9.45-64.6 13.25-22 4.5-43.15 10.6-65.4 13.75-19.05 2.7-50 19.65-62.25 3.1-15-19.75-.85-43.85-8.4-65.35-6.75-19.2-26.65-38-40.3-52.95-14.58148-16.79227-27.85373-34.67804-39.7-53.5-20.25-30-29.1 10.6-38.3 25.55-10.45 16.9-32.7 36.75-53.95 35.65-23.6-1.2-37.6-26.95-37.95-48.2-.4-23.85 19.2-43.6-3.65-62.2-16.75-13.65-40.65-18.4-59.25-30s-35-25-58.3-28.95c-8.55-1.4-26.2-3.7-34 1.05-12.35 7.5-4.1 17.75 0 28.65 8.26309 20.69613 20.43475 39.60719 35.85 55.7 15.8 17.75 26.2 35 25.75 59.5-.35 19.05-9.65 48.25-24.5 60.7-17.95 15-44.75 3.65-65.45 8.75-22.8 5.65-35.65 25.65-52.25 40.4-38.95 34.55-82.65 9.4-119.5-16.05-16.9-11.65-39.65-26.2-48.2-45.6s-.6-45.8 4.75-65.75c6.5-24.35 4.5-41.35-.35-65.7-4.2-21.05-4.6-47.75-31.6-51.2-51.5-6.5-54.6 68.3-65.95 102.15-7.25 21.55-14.75 44.15.55 63.3 14.65 18.35 30 32.5 29.35 57.8-1.25 41.6 5.35 97.75-38.75 119.7-43.4 21.65-83.55 30.5-123.05-3.35-37.6-32.3-52.3-67.6-57.45-115.9-2.35-22.2-6.75-44.05-10-66.1-3.65-24.45 3.65-40.85 15.9-61.8 21.3-36.45 49.7-89.5-1.8-115.3-40-20-84.3-26.35-122.3-53.05-22.6-15.9-32.9-21.55-61-15-21.62487 5.48314-42.77583 12.68951-63.25 21.55-25.45 10.4-39.1 16.05-56.5-7.5-13.15-17.75-32-31.3-49.7-44.35s-47.65-22.9-52.45 7.75c-3.35 21.3 14.4 44.1 25 60.9 12.3 19.45 25.35 36.7 48 44.25 21.55 7.2 42.65 3.55 63.05 16.25 18.9 11.75 33.5 30 55 37.8 22.25 7.9 42.95 9.4 57.8 30 29.2 40.4-1.15 85.8-2.8 129.45-.85 22.4 6.4 44.05 7.75 66.35s-2.9 44-6.95 66.3c-3.84474 21.60983-2.88882 43.80085 2.8 65 7.1 30.85-23.2 28.55-28.5 55-4.7 23.25 5 44.2-12.35 63.9-15.43412 16.47903-36.40792 26.68106-58.9 28.65-22.05 2.4-45-5-66.7 1.85s-35.9 25.7-48.85 42.65c-29.55 38.7-49.05 70.8-100 81.35-9.35 1.95-26.2 6.75-34.3-.9-7.3-6.85-4.05-22.2-4.4-31.95-.8-22.25-2.8-44.55-4.15-66.8-2.45-40.75-24.6-93.15-7.1-132.15 19.15-42.2 53.85-68.2 59.15-117.2 2.55-22.3.85-45-11.05-64.7-10-16.1-34.2-39.65-55-29.7-10.6 5-14.75 16.3-17.75 26.55-2.39505 10.97819-8.37608 20.84689-17 28.05-15.20592 15.54862-31.95944 29.5043-50 41.65-20.5 12.9-14 40.5-11.45 61.7 2.95 24.4 8.25 41.85-2.1 65-10 22.3-26.5 33.9-38.6 53.8-11.35 18.7-14.25 42.35-24.7 62-21.55 40.45-42.45 78.15-38.55 125.6 1.85 22.25 7.75 43.55-2.75 64.5-9.7 19.35-24.25 40.6-46.85 44.15-24.45 3.85-42.2-11.3-50-34-8.5-25-10.8-40.5-40.3-45.8-22.41288-3.24591-45.23099 1.9773-64 14.65-21.6 14.7-9.75 38.15-13.4 60.5s-20 40.25-35.3 55.35c-13.25 12.9-47.35 32.7-52.2 1.1-3-19.7 13.5-45.9 22.5-62.45 8.55-15.75 34.6-38.3 34.65-56.05 0-18.55-24.1-42.7-37.2-53.7-17.660795-14.25187-36.864126-26.47827-57.25-36.45-26.45-13.2-38.6 2.5-52.8 23.25-12.5 18.3-22.15 38.65-36.85 55.65-13.35 15.4-33.9 34.35-55.85 34.2-24 0-39-22.5-48.6-41.4-21.35-41.95-22.05-83.1-26.9-128.7s-35-81.35-43.8-125.7c-4.35-21.85-2.3-45-10.7-65.85-9-22.45-22.1-36.8-20-61.95 1.65-21.5 10.8-43.75 2.65-65-10-26.55-35.65-26.05-52.55-6.25-16.2 18.95-14.6 40-2.8 60.85 12.85 22.5 17.4 37.3 8.75 62.4-14.3 41.8-35 83.3-34.55 128.45s13.65 87.9 1.85 131.95c-6.5 24.35-20 127.45-61.05 90-32.75-29.65-62.8-63.2-96.25-92.65-37.2-32.75-53.75-64.35-69.15-111.15-13.65-41.55-37-88.2-86.95-83.55-22.7 2.1-43.95 8.8-60 25.7-18.2 19.15-19.05 36.4-20.95 61.2-2 26.3-28.05 30.45-34.1 54.5-2.359252 11.36161 2.482066 23.00855 12.2 29.35 14.3 9.6 17.1-.9 30-3.15 12.3-2.1 21.75 8.25 25.3 18.9 4.55 13.6-2.15 17.35-12.5 26-18.35 15.3-37.05 25.25-29.65 53.2 13.75 51.8 95.7 5.85 90-36.45-1.35-9.6-5-26.75 12.55-23.3 8.9 1.75 16.8 17.45 21.75 24.4 12.6 17.8 26.7 39.15 23.45 62.2-6.25 43.95-51.45 68.75-83.15 91.65-16.65 12-32.6 24.15-55 22-16.3-1.6-27.85-18.55-43.45-18.8-13.25 0-15.45 13.7-20.9 24.05-3.25 6.15-12.9 5.95-18.1 1.25-4.7124452-5.21799-7.7441025-11.73431-8.7-18.7-.9633153-6.96846-4.0338537-13.47591-8.8-18.65-4.7469406-3.54901-10.9337327-4.54144-16.5525422-2.65519-5.6188096 1.88624-9.9535552 6.41076-11.5974578 12.10519-1.05 5-.75 12.35-5.9 13.8-1.2874012.25596-2.6125988.25596-3.9 0l-27.1-3.1"></path><path d="m.5 2356.85c13.2-9.35 30-15.45 35.5-32.25s-7.3-32.9 12.35-43.85c10.9-6.1 35.4-5.9 47.4-2.75 13.95 3.65 25.55 19.5 38.75 26.55 31 16.55 61-6.2 86-24.7s50.9-38.35 75-58.8c25.35-21.55 45.95-46.55 80-52.4 30.8-5 67.7 4.6 86.95-26.55 16.35-26.45 16.15-62.05 29.45-90.4s29.65-57.1 45-85.4c14-26.25 32.7-71.4 65.5-43.8 30.45 25.65 52.5-18.05 70.85-40 40.95-49.25 94.35-86 138.15-132.55 22.3-23.7 44.15-46.05 63.25-72.6 20.5-28.5 37.95-48.45 74.75-51.9 33.15-3.1 63.45-.9 88.5-26.9 16.85-17.5 42.4-75 71.35-41.4 11.35 13.1 6.25 32.1 16.8 44 13.6 15.3 30 .8 43.15-6.1 28.45-15 63.45 1.2 94-1.05 13.95-1.05 35.4-3 45-15 10.75-13.35-2.65-30.25-8.15-43.85-12.6-31.2-24.1-60.35-12.8-94.15 18.65-55.8 70-113.15 112-152.95 23.75-22.5 52.75-40.35 86.5-30.25 35.6 10.65 43.95 42.15 69.7 63.9 13.4 11.3 30 15 41.8-.85s2.95-29.25-1.35-45.3c-9.4-35 12.3-58.75 39.5-78.7 18.4-13.5 25-5 45-5 16.9 0 26.75-16.5 38.85-26.5 25-20.5 54.4-34.3 79.3-54.65 29.05-23.7 58.95-8.5 90-23.45 14.15-6.75 25-20.5 40.3-25.35s31.9-.95 47.4-.7c57.05.8 135.95-52.3 187.15-12.75 27.1 20.9 28.15 55 40.6 84.4 12.85 30 42.7 47.2 73.2 56.25 35.55 10.55 48.2-37.7 65-60.5 18.3-25 41.85-50 69.55-64.15 61.1-31.35 128.4 16.7 154.1 73.25 16.25 35.7-2 59.45-.3 95 .75 16.5 8.95 30 12.35 45.85 4 18.7-2.25 28.95-10 45-7.07573 13.55396-8.85792 29.25499-5 44.05 9.05 32.05 34.15 44.6 50 9.55 5.93601-12.25811 8.93199-25.73147 8.75-39.35 0-12.95-4-26.95-.45-39.7 4.35892-12.47411 9.81354-24.53786 16.3-36.05 11.95-24 20.7-51.6 41.75-69.45s48.35-23.6 70-39.15c22.52487-15.33103 37.24158-39.72499 40.3-66.8 3.3-26.65-5-54.15 5.8-80 10.49677-26.02381 38.34696-40.563563 65.7-34.3 29.2 7 38.1 37.6 63.55 47.85s46.4-32.25 45.7-53.75c-.5-15.65-7.3-24.6 3.85-38.8 8.25-10.5 22-17.1 34.2-21.85 12.46349-4.581491 25.54077-7.277838 38.8-8 12-.9 28.75 4.45 39.45-1.35s18.85-22 27.05-30.7c9.32347-9.992766 20.81958-17.708167 33.6-22.55 28.25-10.85 50.9 6.2 77.05 14.25 28.1 8.65 51.65-2 79.65-2.4 20.4-.3 21.4 6.45 21.85 24.7.62104 13.209318 2.0571 26.367687 4.3 39.4 3.95 26.5 8.55 53.15 11.7 79.7 3.7 30.65-4.7 49.65-12.65 78.15-7.3 26.1-4.15 61.75 30.85 57.6 27.15-3.25 51.05-20.6 72.1-36.75 10.55-8.1 21-16.15 30.95-25 5.24608-3.70317 9.82746-8.26765 13.55-13.5 3.35-5.85 2.25-14 6.8-19.25 23.45-27 41.65 35.6 43.5 51 1.51985 13.2137-.05499 26.59981-4.6 39.1-4.55 13.1-13.6 23.9-11.95 38.35 1.5 13.25 8.05 25 8.35 38.7s-5 27.05-3.4 40.65c2.8 25.4 31.2 45.65 48.4 62.45 23 22.55 37.9 30 70 32.6 28.55 2.15 58.75 6.45 53.45 40.8-3.8 24.6-17.4 60.6-48.35 50.35-10-3.25-30-10.3-36.2-18.75-7.05-9.5-5-29.6-20-33.8-12.5-3.4-25.8 8.95-33.3 17.35-8.57307 9.99457-15.9559 20.95137-22 32.65-13.55108 23.63107-31.58904 44.3866-53.1 61.1-15 12.45-57.65 32.05-57 54.5.4 13.7 16.45 20 22.15 31.75 6.1 12.55 4.35 27.2 9.15 40 12.25 32.3 48.8 4.6 70-2.7 25.6-8.9 52.7-8.95 79.65-7.4 12.65.75 28.5 2.05 40 8 12.2 6.4 17.05 19.55 24.4 30.5 17.25 25.75 39.05 33 68.9 25.55 27.2-6.8 55-11.9 66.85-39.2s17.1-47.55 15.85-76.55c-1.15-27.55 5.4-54.7 23.55-76.25 12.85-15.25 52.35-43.25 67.65-25 18.4 22.05 22.1 45 55.55 50.4"></path><path d="m1156.35 2414.15c-4.45-14.2-28.6-19.25-28.6 0s24.15 14.15 28.6 0"></path><path d="m2766.55 2106.65c-4.25-6.75-26.4-14.45-26.25-.35 0 12.45 22.6 9.2 26.25.35"></path><path d="m3767.75 2091.3c-4.7-9.6-8.1-15.65 0-24.2 7.2-7.75 16.05-7.85 22.6.5 11.85 15-8.15 46-22.45 23.7"></path><path d="m2910.85 1876.05c9.15-38.05-46.1-65.75-66.95-28.95s46.6 58.05 66.95 28.95"></path><path d="m2585.5 1630.15c12.15-20.25-10.65-53.7-28.05-29.45-15.4 21.45 6.75 51.25 28.05 29.45"></path><path d="m3668.5 1583.95c-6.45-35.6 43.4-67.6 61.3-29.15 17.05 36.55-43.5 62.35-61.3 29.15"></path><path d="m2591.5 1522.45c12.76861-14.71012 20.27979-33.25059 21.35-52.7 0-16.55-14.2-44.3-30.25-37.35s-27.1 37.75-28.9 53.05c-.91417 12.18033 2.25229 24.31842 9 34.5 6.1 10.55 22.8 21.2 28.85 2.5"></path><path d="m3168.75 1507.1c7.15-22.5 17.45-43.95 23.75-66.75 10-36.65-20-29.05-45-24.05-20.75 4.15-52.95-3.15-66.05 18.25s1.85 49.7 17.3 64.65c12.35 12 63.4 38.55 70 7.85"></path><path d="m2314.15 1384.1c-1.15-6.15-8.4-11.25-9.75-2.2-1.2 8.2 6.4 8.45 9.75 2.2"></path><path d="m3285.5 1384.1c54.4-17.35 5-95-31.8-62.1-12.6 11.2-26.5 38.7-21.75 56.15 5.6 20.4 40 16.85 53.5 5.95"></path><path d="m1954.2 1291.8c3.45-9.55 2.65-30 8.3-36 8.27626-9.34739 14.93439-20.01054 19.7-31.55 11.1-25 11.4-51.4-5-74.3-15.4-21.75-49.55-27.9-65.45-2.3-14.45 23.25-1.9 52.7 9.1 74.2 8.25 16.1 15.5 21.25 16.2 39.2.3 7.5-2.25 37.75 12.45 35.8 2.3-.3 3.7-2.2 4.7-5.05z"></path><path d="m3960.5 1301.45c-1.3-20.95-28.15-40.65-46.8-46.85-10.9-3.65-22.45-1.65-32.9-5.95-10.40058-5.03738-19.81567-11.89549-27.8-20.25-15-14.6-31.35-39.3-25-61.6s35.5-30.95 55.7-33.3c27.85-3.25 49.35 6.55 76.65-6.9"></path><path d="m3960.5 1353.45c-16.1 3.45-22.65 17.9-38.35 21.75-13.75 3.35-35-.8-32.5-20 1.9-15 23.9-17.65 35.65-20.6 17.6-4.4 25-9.65 35-25.5"></path><path d="m774.95 2798.45c-16.009104-34.77865-28.197106-71.19177-36.35-108.6-3.65-18.4-4.1-37.25-9.05-55.45s-15.7-35-25.6-51.05c-22-35.85-22.05-69.25-28.45-109.45-6.25-39.35-15.85-71.9-9.75-111.9 6.3-41.2-11.3-82-59-71.8-39.45 8.45-59.45 50-51.55 88.15 8.6 41.45 27.55 67.25 10.5 110.45-14.55 36.85-31.3 67.25-27.85 108.3 3.3 39.45 12.95 74.4-1.8 113-5.5 14.4-10 43.05-22.05 52.5-18.85 14.55-34.65-11.25-47.2-22.3-28.15-25-63.5-43.05-85-74.7s-27.3-71.5-36.2-108.1c-4.4-18.15-7.75-36.6-12.5-54.65-2.25-8.65-4.7-22.3-16.15-20.5-3.7.6-6.8 7.35-10.35 9.1-4.605694 1.75948-9.47228 2.73955-14.4 2.9-18.95 2.2-38.15-2.15-56.55-6.6-15-3.6-36.7-18.2-51.7-8.15-12.3 8.2-21.4 40.45-29.2 53.7-10 16.6-22.15 30-32.4 45.8-8.25 12.8-27.3 39.7-44 18.55-9.35-11.8-18.3-38.95-16.4-53.75 2.45-18.7 19.3-35.3 19.05-53.75 0-9.25-5-17.8-5-27.55 0-8.7 4.55-20 1.9-28.35-7.55-24.55-35.8-6.65-51.7-16.35-22.45-13.65 1.1-35.25 17.5-40 22.9-6.7 35 6.55 47.5 23.2s26.4 25.8 40.6 40 45 23.6 61.55 5c18.8-20.95-1.65-60.55.85-84.65 2-19.55 16-35 29.5-47.65 27.602476-25.96481 59.489488-46.95779 94.25-62.05 17.85-8 35-14.55 50.95-25.8 15.393186-11.31246 32.203105-20.55792 50-27.5 39.65-14.6 68.1-27 80-71.05 10-37.8 13.9-74.05 32.35-109.4 17.9-34.35 37.75-69.55 79.7-70 40.3-.4 64.2-39.35 89.5-65.6 26.6-27.55 57.75-50 85-77.1 13.35-13.4 23.7-28.8 36.15-42.95s28.1-25.6 41.3-39.6 27.5-26.7 40-40.75c15.3-16.9 22.7-26.25 47.5-17.95 17.588857 6.34496 34.370722 14.73589 50 25 23.95 15 31.35 8.25 42.8-13.8 9.47576-16.87662 23.72049-30.58216 40.95-39.4 17.8-8 37.95-3.7 56.4-8.9 19.35-5.45 32.05-20 52.85-20.3 18.75-.35 37.3 3.7 56.15 2.75 36.65-1.85 90.65-5.4 73-55.85-12-34.35-35.65-70.55-25.3-108.7 9.45-35 44.35-65.8 68.3-91.15 21.5-22.75 53.75-67.8 85.35-75.85 34.25-8.7 70 40 93 58.95 36.75 30 75.95-.9 71.85-45-2-21.75-7.35-33.85 7.85-52.4 13.55-16.55 28.4-23.15 48.95-26.8 54.2-9.6 148.05-131.55 195.75-57.15 19.1 30 34 71.75 44.4 105.55 5 16.55 4.1 41.4 17.15 54.1 15.65 15.25 35.75 8.85 47.8-7.1 21.5-28.4 26.2-75.95 25.95-110.35-.25-32.8-27.45-85.4 5-107.9 31.76571-21.48441 68.64298-34.19655 106.9-36.85 48.1-1.65 56.8 40.5 70 77.2 14.6 41.1 42.4 55.8 77.7 77.5 16 10 37.1 19.6 52.7 5.45 14.25-12.9 17.55-34.1 26.1-50.6 36.4-70.4 115-119.7 183.2-56.6 30.65 28.35 40.7 61.65 35 102.15-5.45 38.55 1.4 75.35-7.55 113.75s14.6 75 2.35 112.65c-5.85 18.1-13.5 34.65-15 53.95s3.3 38.15 1.4 57.25c-3.55 35.45-41.15 75.9-4.65 106.75 32.15 27.2 83.75 7.15 80.7-36-1.35-19.1-8.75-37.25-9.25-56.5s5.35-37.7 10.3-56.15c10-38.05-2.1-75 9.5-111.7 21.55-68.35 12-164.25 87-200.75 35-17 70-32.05 85.9-71 14.45-35.9-10-79.75 9.7-112.45 28-46.8 68.35-1.45 91.6 21.25 13.5 13.2 34 23.35 51.4 11.35 16.25-11.2 19.5-33.35 23.95-51.1 4.2-16.75-3.4-42.55 8.3-55.25s35.6-17.8 52.05-19.45c17.85-1.75 40.85 6.8 57.6.5 17.7-6.65 18.05-32.5 33.3-44.55 34.4-27.1 72.95 2 105.65 15.9 40.95 17.35 60 36.7 73.1 80 12.15 40.4 10.8 71.85 2.75 112.6-8.45 42.7 2.4 79.3 52.55 72.55 19.03381-2.27473 37.59283-7.52188 55-15.55 17.4-8.4 30.8-23.6 49.1-29.05 22.75-6.8 31.8 13.8 22.95 34-4.65 10.6-11.3 14.55-8.6 26.85 1.95 8.9 9 16.85 11.7 25.65 6.2 20.35-6.8 36.05-6.65 55.9s10 36.9 21.9 51.85c26.85 33.7 39.75 61.05 19.6 102.6-17.25 35.65-43.2 61.8-75.75 83.95-14.35 10-37 17.9-47.35 32.15-12.65 17.45-1.8 36.2 9.15 51.3 12.4 17.1 21.7 31.05 8.75 51.7-9.65 15.35-34.45 24.5-28.65 46.2 12.5 46.8 75.8-9.25 96.5-20 37.05-19 72.85-15 103.05 15.4 26.5 26.6 39 68.7 73.35 86.45 40.65 21 65.35-25.8 90-50 13.95-13.95 30.5-22 47.3-32s27.75-25.55 37.5-41.85c12.9-21.55 7.75-31-1.9-52.35s-5.65-34.6 11.95-48.4c44.6-35 57.85 20 58.22995 57.9 0 20.8 1.22005 37.4-12.42995 53.85s-15 31.2-12.85 52.25c1.9 19.45 5.85 38.6-6.7 55.3-10.95 14.55-30 25-47.1 31.3-17.7697 7.25095-37.11698 9.76627-56.15 7.3-19.15-3.05-41-5-48.45 17.95-5.8 17.75 2.15 37.35-1.65 55.7-2 9.6-5 19.7-18.3 17.85-7.9-1.15-14.7-10.65-23.35-13.8-17.45-6.45-35.65-15-53.9-18.9-20-4.4-36.5 5-52.95 16.1-36.85 25-32 63-50 98.35-19.7 38.45-55.8 54.25-95 32-31.75-18.1-51.9-56.9-76.15-83.4-18.95-20.75-63.05-82.15-85.85-31.15-13.55 30.35 10.4 80 13.25 111.8 3.15 34.7-14.5 90.4-58.35 73-37.95-15-55.65-51.3-67.8-87.6-6.34558-17.63162-11.21239-35.76089-14.55-54.2-3.05-19.05-3.2-38.45-15.9-54.25-25.7-32-75.75-9.35-107.85-.65-17.25 4.7-37.05 13.1-55 8.6-19.4-5-27.55-25.8-40-40-26.3-29.75-72.55-35.65-102.35-7.15-25 23.95-28.6 86.4 15.5 91.1 19.3 2.05 37.75-3.2 57.3.85 18.65981 4.18469 35.89835 13.18321 50 26.1 22.05 18.65 77.3 45.95 80 77.15 1.7 17.7-10.4 38.25-14.1 55.5-4.05 18.7-5.65 37.8-7.95 56.75-2.95 24.6 1.05 32.5 17.45 50.55 13.24973 13.97135 23.58409 30.44174 30.4 48.45 11.05 32.3-74.35 32.2-94.15 22.25-32.25-16.2-61.2-49.15-89.05-71.95-28.74819-24.96785-50.48124-57.00729-63.05-92.95-6.4819-18.04645-9.31999-37.19933-8.35-56.35 1.15-18.45 7.3-38.9.6-56.95-7.5-20-30.5-22.85-48.75-15-20 8.65-25.4 25.7-25.8 45.65-.8 40.6-24.55 76.2-70 68.6-36.25-6-65.5-38.65-101-50-17.3-5.65-38.5-12.35-56.1-4.4-20.6 9.3-22.3 30.25-13.1 48.75 16.55 33.25 50.8 58.35 72.3 88.7 27.45 38.75 7.15 73.1-36.2 82.25-19.05 4-37.4 7.35-54 18.1s-27.2 27.8-43.7 37c-30 16.65-81.05-15.5-100-38.9-12.05-15-16.95-34.75-17.85-53.55-.9-20 11.2-36.1 12.4-55.55s-10.95-37-13.3-55.55c-2.55-20.45-4.7-35.8-22.85-48.6-31-21.8-81.75-6.3-108.35-32.55-13.75-13.55-25.5-31.7-47-12.3s15.75 25.55 26.55 36.05c13.8 13.35 10.55 36.5 16.55 53.85s16 36.75 13.1 55-17.8 33.5-22.1 52.65c-5 21.45.35 35.9 13.5 53 24.25 31.45 33.1 66 29.4 106.15-3.6 39.25-63.95 46.2-95 36.85-36.45-11-63.15-45-75-80-10.9-32.75-22.5-78.7-13.3-112.8 9.7-36 39.6-65.35 56.85-97.75 9.03984-16.7775 15.28823-34.91469 18.5-53.7 4.4-23.55-10.9-31.1-33.35-34.3-19.03333-1.89556-38.21876-1.66078-57.2.7-21.8 1.75-34.3-1.7-53.4-11.65-17-8.85-35-15-52.6-22.65s-33.4-19.15-52.45-22.45c-39-6.75-75.35 15-113.4 11.35-35-3.2-70-36.25-98.55-54.55-12.95-8.25-33.25-30-49.45-28.6-22.55 2.25-13.15 34.15-11.45 49.15 4.6 41.2 19.2 69.65 44.05 102.25 11.75 15.4 22.3 31.1 40 40.55 16.6 8.95 37 10.7 55 15.6s35 14.7 52.25 23.2 36.15 11 52.6 19.45c41 21.15 25.45 67.7 16.5 102.9-4.55 17.85-10.7 37.9-7.6 56.45s11.45 35 10.6 55c-1.6 36.7-25.85 77.5-59.5 91.2-20 8.25-36.6 18.85-17.1 39.5 15 15.95 23.3 26.05 25 49.1 3.55 49-39.1 52.55-78.5 57.85-41.1 5.5-68.65 26.45-97.1 55.45-21.85 22.3-66.25 70.9-89 22.05-7.65-16.4-6.6-38.25-11.3-55.95-5-18.6-10-36.8-10.4-56.2-.7-43.3 32.75-63 52.3-97.35 17.75-31.15 21.05-77.9 9.55-111.7-12.8-37.6-44.6-60-65-92.05-7.75-12.35-12.65-45.6-30.65-44.55-18.9 1.1-22.85 33.05-27.85 47.15-13.7 38.45-25.65 72.3-66.75 85.95-18 5.95-36.5 14.45-38.75 35.5s11.3 35.65 17.85 53.6c12.75 35 15.7 78.9-8.55 109.55-14.25 18-26.15 22-24.55 46.35 1.51712 19.36296-4.46125 38.56892-16.7 53.65-24.05 30.9-51.6 55.5-61.3 95-4.5 18.4-3.35 38-10.55 55.6-1.40663 4.63001-3.55083 9.00283-6.35 12.95-6.9 5-2.25 1.6-10 0-9.22505-2.4592-17.55319-7.50814-24-14.55-13.5-14.15-24.05-29.45-40-41.35s-31.05-22.3-45.7-34.45-25.25-29.05-39.5-41.25c-16.7-14.3-32.65 1.95-51.85 5.5-21.6 4.05-40-4.5-35-27.7 5-22.05 11.45-32.35.8-54.75-7.1-15-21.05-36-33.75-46.45-15-12.3-38.25-1.3-55 3.35-15.65 4.4-42.75 7.6-47.75 24.25s-.65 38.9-4.3 57.05-10.35 32.95-8.05 51.7c2.15 17.6 6.15 34.55 6.35 52.4.25 22.1-21.45 98.75-54.65 62.7"></path><path d="m1154.7 2460.15c15.7-16.25 29-38.2 22.2-61.55s-31.45-37.95-53.65-23.2c-19.51053 13.49245-27.67962 38.30606-20 60.75 6.05 19 32.65 46.85 51.25 23.95"></path><path d="m2706.1 2198.9c-2.1-15.7 15-39.55 27.5-18.85 10.9 18.3-14.3 33.55-27.5 18.85"></path><path d="m1341.4 1783.8c-.63627-5.88025-3.20343-11.38382-7.3-15.65-8.5 9.2-2.05 28.6 7.3 15.65"></path><path d="m3160.5 1568.6c24.6-10.25 40.5-43.25 50.65-66 11.7-26.3 23.8-50.9 45.75-70.3 21.15-18.75 46.45-32.75 60-58.65 13.06703-26.51375 4.87714-58.59435-19.3-75.6-52.1-36.55-90 66.8-132.1 82.1-26.55 9.6-55.6 11.2-81.25 23.35-20.45 9.7-53.1 38.15-52.05 62.6 2.05 47.7 76.4 146.35 128 102.6"></path><path d="m1979.9 1537.85c28.15-26.45-10-75-38.45-44.6-26.25 28.3 9.6 75.6 38.45 44.6"></path><path d="m2319.45 1399.45c19.2-15.6 2.6-55.25-18.85-37.65-23.15 19 7.3 57.55 18.85 37.65"></path><path d="m448.3 2690.85c-62.3-25.7-71.25-86.8-74.3-146.95-1.35-26.95 7.45-63.55-12.95-85-28.7-30-50-2.75-79.65 5.55-32.5 9.15-52.65-28.3-56.7-54.1-5-31.3 1.4-57.6 23.55-80.85 43.25-45.45 112.2-35.75 152.95-80.25 23.25-25.4 46.15-27.65 77.3-37.3s43.6-36.55 47.85-67.2c8.05-58.1 3.9-120.55 55.3-161.35 23.3-18.5 54.55-20.45 79.35-37s43-40 65-59.1 46.2-36.4 67.9-56.05c11.384206-9.8264 21.465878-21.06747 30-33.45 8.8-13.45 6.25-26.7 20.9-35 13.85-7.9 25.65-13.05 36.9-25.4s18.85-18.15 36.4-18.6c30.35-.8 52.1 29.05 82.45 28.8s53.5-25.65 71.1-47.2c19.7-24.1 41.6-38.9 67.85-55 11.75-7.15 24.45-20.95 37.95-23.55s29.3 3.1 42.8 4.25c15.10647.84277 30.25624-.45337 45-3.85 14.55-2.7 28.75 1.45 42.95-.65 71.65-10.6 5.7-116.05.45-153.4-4.55-32.3 18.55-51.4 40-72.95s43.15-39.55 65.6-58.65c10-8.6 24.7-21.2 37.6-25 14.5-4.35 27.85 6.2 40 12.5 26.05 13.4 45 39.4 71.85 50.3 29.15 11.9 51.65-25.8 60.55-50 10.6-29.15-.6-60 28.1-79.4 24.05-16.4 51.8-27.45 76.55-43.15 23.35-15 52.1-32.55 80.55-33.8 65-2.75 79.6 87 95 132.95 8.6 25.35 33.9 59.75 64.35 43.75 23.85-12.55 43.25-45.45 49.45-70.8 12.5-51.35-29-129.6 15.3-170.4 20-18.55 53.8-30 80.8-32.85 36.65-3.6 42.8 32 51.6 59.45 18.35 57.35 55.55 106 120.45 112.7 34.2 3.55 49.7-25.35 61.05-52.85s23.4-54.05 46.95-73.25c49.35-40 120-22.85 148.3 34.35 13.95 28.35 7.8 56.4 5.35 86.4s-7.25 58-11.05 87.3 7.85 57.9 5.6 87.5-15.25 56.3-17.05 86.15c-2.16315 29.30292-9.2279 58.03516-20.9 85-11.6 29.3-15.7 55.35.9 84.25 17.8 31.05 49.25 20 79.2 23 13 1.35 30.6 11.55 42.75 9.5 16.75-2.75 19.3-21.95 20.85-35.6 3.3-28.65-10.45-57.95-16.35-85.9-5.91702-28.81753-5.59309-58.56814.95-87.25 6-29.1.25-58.85 7.1-87.45s18.4-55 22.1-85c3.45-27.8 8.3-60 23.3-84.4 16.75-27.1 49.35-28.35 75.5-41.85 26.23262-13.84342 47.28117-35.80407 60-62.6 15-32.35 7.65-52.4-1-84.6-10-36.4 25-57 48.2-25 19.25 26.6 28.55 48.4 64.7 52.85 40.45 5 46.55-15.8 51.45-51.45 3.2-23.3 0-69 20.9-83.25 27.5-18.65 57.6-2.15 86.65-6.1 34.1-4.65 23.25-53.65 60.95-55.65 28.95-1.55 54.65 25.55 75 42.55 22.66735 18.729759 41.3663 41.797459 55 67.85 28.95 56.2-4.45 113.8 3.4 172.85 2.75 20.65 6.25 26 26.25 22.1 14.45-2.85 28.65-6.3 43.05-9.5 21.75-5 66.75-18.5 87.1-7 32.35 18.35 25 48.65 24.65 78.25.39794 29.56689 8.6275 58.49975 23.85 83.85 15 25.65 34.3 50.4 20 80.9-11.75 25.4-38.7 46.8-61.45 62.05s-59.3 24.05-70.8 50c-6.2 14.15-2.1 29.2 6.3 41.75 7.2 10.8 25.7 20 27.4 34.1 1.85 15.5-16.3 24.5-25 34.3-10.3435 10.7828-15.5051 25.5198-14.15 40.4 3.8 30 38.25 50.35 66.75 40.4s42.4-40 71.75-49.6 50.3 32.85 46.7 58.55c-4.6 33.15-47.65 33.75-50.85 67.2-1.45 15.4 4.7 28.6 7.75 43.1s-1.4 28.8-2.7 43.65c-2.4 26.9 5.4 65-20 81.8-27.2 18-57.35-2.7-79.7-19.2-23.99715-16.94063-45.18811-37.54107-62.8-61.05-13.65-19.05-34.65-59.6-62.2-59s-55 36.45-53.25 61.9c2 28.85 16.55 56.65 20 85.6 3.45 27.3-6.2 68.9-42.85 60.45-31.6-7.25-38.8-42.65-46.6-69.25-8.6-29.3 2.9-59.2-5-87.25s-44.55-41.6-71.3-43.45c-14.71262-.9-29.46416.94819-43.5 5.45-15 4.65-23.95 15-37.95 21.55-37.25 16.9-47.75-13.75-68.35-37.3-42.7-48.8-110.5-40.25-160.95-8.95-29.55 18.3-30 45-30 76.95 0 14.1 2.5 30.7-4.2 43.3-7.25 13.6-22.75 17.55-32.9 28.55-21.8 23.55-16.85 55-31.95 81.1-20 35-51.15 15-72.5-5.35-37.15-35.75-124.25-56.4-157.7-5-15.6 23.95-1.65 60.6 16.85 80.65 10 10.9 24.7 16.1 36.3 25s18.05 22.4 26.2 35c8.8 13.55 17.1 26.05-1.05 37-11.45 6.9-30 6.2-43.2 8.05-34.1 5-51.1 16.3-76.75 37.95-21.5 18.15-62.75 16-74.2-13.8-13.05-34.05 11.95-52.75 18-83.2 2.7-13.6-5-30-8.55-42.95-3.57122-14.20948-5.79769-28.72343-6.65-43.35-1.35-14.1-4.5-30-13-41.7-10-14.15-23.25-13.95-38.9-17.1-28.83145-6.21746-55.95059-18.67622-79.45-36.5-20-15-42.9-50.75-66.5-55.9-28.1-6.1-59.1.95-88.1-5-15-3.15-28.9-7.3-37.1-21s-8.35-27.4-22.9-36.8c-13.5-8.75-30.3-8.45-28.85 11.7 1.1 15 16.3 26.3 25.8 35.4 13 12.45 16.6 17.25 12 36.65-3.25 13.75-11.4 30-26.35 34.55-12.1 3.55-30-2.45-42.45-3.65-15-1.4-30-1.8-44.55-6.7-28.5-9.6-52.35-25.3-83.45-26.15-29.15-.85-58.4 13.4-87.45 7.4s-54.25-23.2-76.45-41.85c-20.75-17.45-45-48.8-75.35-32.3-29.25 15.95-21.35 53.75-16.4 80.45 5.3 28.55 11.55 58.8 31.75 80.9 18.7 20.5 32.7 51.4 56.15 66.85s58.25 13 85 21.85 57.8 18.15 84.6 28.15c57.45 22-27.45 124.45-2.05 163.15 8.85 13.5 17.7 20 14.2 38.2-2.8 14.55-14 27.25-24.35 37.35-21.05 20.5-54.45 24.35-72.95 48.35-25 32.2 0 50 11.85 79.3 17.6 43.15-33.95 35.6-57.65 39.45-29.1 4.7-51.45 28.95-73.4 46.7-25.5 20.6-50.85 35.45-72.55 2.25-15-23.1-22.55-58.75-6.85-83.45s48.65-33.7 61.45-62c6-13.25 4.05-28.55 3.1-42.55-1-15 1.2-30-.6-45-3.55-29.15-20-55.75-36.1-79.5-16.87887-24.00992-29.85572-50.53738-38.45-78.6-4-13.05-6.5-29.6-18.65-37.55-13.25-8.65-30-4.25-42.7 2.95-26.6 15-39.7 43-55 67.8-15.7 25.6-36.9 45-60.6 63.1-27 20.5-45 36.1-32.2 71 10 27.25 23.8 54.25 28.85 83.15 5.7 32.75-5 55.75-25 80.7-9.25 11.5-17.75 22.9-14.45 38.4 3.5 16.35 12.75 27.15-1.4 41.7-18.7 19.2-52.7 32.9-78.2 39.65-36.1 9.55-53.75-5.65-57.1-42.85-2.95-32.2 11.2-55 19.4-85 3.85-13.85 3.25-28.35 6.55-42.35s10-28.35 15-42.6c8.9-26.5 14.45-60 1.6-86.1-10.3-21-49.65-53.35-73.9-34.1-10 7.8-13.85 25.55-22.5 36.05-10 12.1-18.95 22.7-23.9 37.85-9.7 29.45-.65 57.45 5 86.65 5.9 30.75 2.35 63.25-36.2 64.45-31.3 1-55-19.7-72.2-43.55-21.2-29.65-39.2-29.4-70.35-12.75-24.6 13.15-55 20-76.05 38.3s-33.1 46.45-36.05 73.4c-1.75 15.7 9.3 28.8 7.25 45-7.85 61.2-31.4-10.5-37.4-27.35-7.8-22-28.15-32.65-42.65-50-30-36.2-23.55-82.8-26.45-126.5-1.45-21.9-2.65-43.65 2.05-65s2.65-43.5 7.5-65c12.85-56.65 78.4-28.1 100.5-73.1 10.95-22.35-10-42.5-30-49.4-21.613132-7.28887-45.465324-2.71578-62.85 12.05-17.9 14.55-29.65 30-52.8 37-21.1 6.35-42.75 8.05-64.4 11.35-27.55 4.2-37 12.9-49 37.55-10.199286 19.44247-14.442704 41.45955-12.2 63.3 4.55 41.05 42.65 85.95 23.05 126.45-19.2 39.65-51.8 72.1-41.45 120.75 5 22.85 16.8 38.7 13.5 63.95-2.85 21.95-23.1 40.3-45.85 35.7-10.685948-2.61329-20.836802-7.06275-30-13.15"></path><path d="m2098.45 2352.65c-60.3-36.55-88.1-151.55-22.25-194 13.85-8.95 39.75-21.45 51.1-2.4 8.25 13.8 2.6 40.8 4.3 56.6 4.5 41.3 42.35 61.15 50.4 99.6 11.8 56.2-45.5 66.05-83.55 40"></path><path d="m2924.05 2183.55c-38.5-10.4-74.6-39.1-87-77.8-13-40.55 5-80 19.15-117.15 6.3-16.65 12.25-49.1 35.35-31.7 15.66204 12.63333 32.0031 24.40089 48.95 35.25 13.95 8.35 41.95 19.65 48.7 35.6 6.1 14.35-5.35 43.75-7.45 59.55-4.05 30-5.9 125-57.45 96.2"></path><path d="m1324.2 1968.3c16.95-22.25-15-44.15-33.25-23.55-18.95 21.5 18.9 46.85 33.25 23.55"></path><path d="m1363.35 1799.2c14.6-20.35 9.7-49.65-6.1-68.2-12.9-15-48.55-33.1-65.35-13.5-13.3 15.5 5.85 53.95 13.45 69.35 10.65 21.6 41.55 39.3 58 12.3"></path><path d="m2514.85 1768.45c11.7-18.15-6.1-45.75-24.65-25.4-17.15 18.8 12.5 46.55 24.65 25.4"></path><path d="m2676.95 1768.45c8.35-11.95 5-30.45-5-40.85-5.5535-5.15123-11.75594-9.55513-18.45-13.1-9.35-3.2-6.9-3.5-11.8 7.25-5.65 12.35-9.35 28.45-2.55 40.8 3.4261 6.83844 9.95387 11.59241 17.51373 12.7547s15.2142-1.41125 20.53627-6.9047"></path><path d="m3778.5 1737.7c-12.45-31.45 38.25-59.65 54.55-27.85 15.7 30.7-36.35 58.05-54.55 27.85"></path><path d="m3176.35 1630.15c13.6-34.15 33.15-63.6 51.5-95.35 9.1-15.75 15-32.85 23.55-48.95s22-28.05 34-42c21.4-25 46.75-58.45 51.55-91.9 4.6-31.95-16.9-81.3-53.45-83.25-34.25-1.85-64.4 35.55-86.9 56.95-13.05 12.4-24.6 27.3-41.85 33.55s-35 10-52.2 15.45c-35 11.6-61.05 33.3-92.1 52.2-14.3 8.7-35.35 17.3-38.45 36.1s14.2 33.9 25 46.3c26.25 29.7 48.45 63.4 73.85 93.95 13.7 16.5 26.8 30 48.6 33.55 17.7 2.95 45.45 11.55 56.7-6.65"></path><path d="m1983.85 1568.6c49.2-21.65 42.6-89.45-4.75-108.75s-80 57.6-64 94.7c11.8 27.55 45.85 27.05 68.75 14.05"></path><path d="m2311.75 1430.15c20.3-4.3 32.95-33 32.15-52.2-.7-16.45-16-49.5-36.55-47.8s-28.55 40-28.60016 55c-.04984 15 11.80016 56.6 32.95016 45"></path><path d="m1322.9 1462.7c2.75 10 7.8 18.85 9.7 29.1 1.3997 11.62901 3.70673 23.13075 6.9 34.4 5.4 15.3 13.1 29.75 17.9 45 4.2 13.35 8.1 30.3 5 44.2-2.75 13.15-7.85 25-6 39.1 3.3 25 30 43.6 38.5 68s3.65 53.05-5 77.3c-6.95 19.05-29.1 59.35-54.5 48.5-21.9-9.35-42.75-34.7-51.15-56.5-8.75-22.75-21.4-51.2-20-75.9.76954-13.20194 4.97509-25.97372 12.2-37.05 5.95-8.7 22.05-21.5 13.3-33.8-10.35-14.5-26.1 1.25-36.1 5-12.1 4.45-26.85.9-39.15-1.9-11.05-2.5-28.2-11-39.05-6.35-9.2 3.95-20.65 20-28.85 26.55-37.9 31.05-80.85 73.45-97.95 120.45-8.45 23.2-2.65 53.55 3.2 76.85 7.15 28.55 8.7 48.85-2.65 76.6-10 25-18.55 48.9-16.2 76.3 2.25 26.5 13.25 50.8 17.05 76.9 7.75 53.55-30.85 101.95-76 125.9-22.919307 12.10295-46.945817 21.98145-71.75 29.5-26.3 8.05-45.85 23.3-68.3 38.45-24.6 16.6-45.8 17.9-74.4 21.05-18.61127 1.28382-33.278686 16.36045-34.05 35-.235151 9.29709.468412 18.59418 2.1 27.75 1.25 12.1-3.3 19.4-7.8 30-10.8 26-5.6 55.65-10 83.5-5 30.95-5.8 57.05 21.3 78.15"></path><path d="m1322.65 1464.1-.4-3.05"></path><path d="m1775.85 2154.05 2.75 1.05"></path><path d="m1232 2567.85c-21.25-25-27-54.35-20.95-86.35 2.85-15 8.35-29.65 12.25-44.55s4.55-31.4 11.15-45c20.9-42.6 51.65-4.05 60.3 24.2s22.45 60 8.85 88.55c-7.15 15-21.3 27.75-32.1 40-6.35 7.2-26.85 40-39.45 23"></path><path d="m1545.05 2552.5c-28.1-11.3 0-41.5 20.35-28.35 26.45 16.9-12.05 49.05-20.35 28.35"></path><path d="m2123.2 2321.9c-9.15-7.65-20-15.8-28.05-24.3-10-10.25-10-20.45-13.45-33.5-5.35-19.45-34.55-49.55-8.15-66.3 32.85-20.85 28.55 30.75 31.75 46.8 5.6 28 23.45 40.35 44.7 55.5 10.45 7.45 26.95 20 12.45 30.45-12.9 9.25-28.55-1-39.3-8.65"></path><path d="m2880.2 2137.4c-36.2-27.2-22.65-90.65 23.3-97.05 47.1-6.55 59 66.65 39.5 97.15-15 23.7-45 17.1-62.8 0"></path><path d="m1298.35 1999.05c42.7 0 65.35-48.65 43.55-84.3-21-34.3-81.3 14.15-85 44.1-.75962 11.03847 3.38125 21.85119 11.31984 29.55856 7.9386 7.70737 18.86896 11.52692 29.88016 10.44144"></path><path d="m3194.25 1983.65c-2.7-19.4-17-37.3-15-57.05 1.2-11.3 6-18.35 18.1-19.7 10-1.15 15.55 3.55 22 13.8 9.39463 17.66898 14.12714 37.44226 13.75 57.45-1.75 24.25-32.25 31.2-38.9 5.5"></path><path d="m3408.85 1906.8-4.4-1.35"></path><path d="m3063.65 1797.45-1.1-.1"></path><path d="m3251.8 1183.85-.15 1.25"></path><path d="m3408.85 1906.8c13 7.6 41.3 17.1 55 8.2 28.65-18.35 12.4-86.75 6.75-112.75-4.55-20.9-9.5-38.4-30.3-48-17.75-8.2-37.8-9.2-54.7-20-36.35-23.45-39.3-67.5-25-104.25 9.3-23.55 16-30 1.65-52.95-10-15.95-21-34.65-18.95-54.25 3.65-35 68.85-45.8 94.75-62.15 23.95-15 84-53 58.5-86.45-5.9-7.7-16.1-11.05-22.25-18.6s-8.3-17.95-11-27.45c-5.16031-18.77515-8.78888-37.93801-10.85-57.3-4.65-40.4-7.4-82.85-58.3-84.55-39.15-1.3-85.8 28.1-67.55 70.25 16.95 39.15 36.45 65.95 20 110-13.25 35-24 76.3-41.8 108.95-18.85 34.7-45.45 63.6-67.2 96.5-10.85761 16.09977-18.49799 34.14804-22.5 53.15-4.2 20.35-8.65 38.05-29.6 46.9-37.3 15.7-77.7 3.25-110.3-18.65-31.6-21.25-54.7-57.15-76.45-87.75-20.95-29.45-52.8-66.2-47.95-105 4.75-38 53.25-59 82.5-77 33.45-20.6 71.65-30 107.25-45.85 36.5-16.4 62.75-46.85 95.8-68.35 11.9-7.75 46-18 42.4-36.15-1.8-9.3-13.7-13.35-19.35-20.4-6.47184-7.75346-9.27894-17.92463-7.7-27.9 2.45-20-.35-40 4.55-59.65 3.24919-12.10422 7.75711-23.83487 13.45-35 4.20379-7.54922 7.44568-15.59515 9.65-23.95 1.80298-7.95832 2.09133-16.18497.85-24.25-1.35293-7.13611-4.1059-13.93357-8.1-20-2-3.45-3.75-7-6.1-10-4.43221-6.09304-9.83792-11.41429-16-15.75-31.15-22.25-44.4 7.75-70.9 19-36.05 15.35-40.55-22.9-52.95-45.5-11-20-54.15-25.5-75.5-27.1-33.2-2.55-48.7 17.05-50.9 48.3-1.85 25.75 8.3 57.85-4.7 81.6-13.9 25.5-48.05 27.1-73.6 28.4-33.65 1.7-48.85 6.65-69.45 33.9-16.45 21.75-31.05 45.9-51.8 63.9-22.65 19.7-47.35 23.25-75.75 28.7-18.2 3.5-22.05 7.9-27.4 25.35-4 12.95-10 25.75-12.4 39.1-5.35 28.4-3.6 53-15.8 80-11.28012 24.55759-17.081 51.27576-17 78.3-.8 27.85-13 53.2-9.7 81.4 4.07989 27.2475 10.77755 54.03814 20 80 15.9 48.95 32.8 110.6 80.65 138.85 48.8 28.85 110-5 162.05 11 13.25 4.05 25.7 9.4 38.5 14.6 12 5 25 15.4 37.6 17.2 14.1 1.95 25.85-1.55 40.45 1.6 13.55 2.95 27.35 1.15 41.1 2.3 29.58152 2.18561 58.75652 8.18531 86.8 17.85 13 4.65 26.2 10.4 40 11.3 16.4 1 30.3-13.45 45.8-18.35 11.35-3.6 22.45-7.95 34-11.05 23.4-6.3 47.1-5.8 65.35 12.1 29.2 28.65 27.5 78.15 70 96.5"></path><path d="m2976.1 1827.15c-2.3-18.6 16.45-17.2 17.9-3.1 1.35 13-16.65 21.4-17.9 3.1"></path><path d="m2319.8 1706.95c5.7-32.55 27.4-118.3-30-119.2-19.55-.3-47.3 21.35-54.35 39.05-9.35 23.5 11 44.15 25.3 60.5 11.75 13.4 47.25 57.55 59.15 19.65"></path><path d="m2155.5 1660.85c20.3-12.35 22-30 16.45-51.85-2.70148-9.98687-9.34319-18.44832-18.40256-23.44465-9.05938-4.99632-19.75949-6.09904-29.64744-3.05535-44.75 15-7.55 99.05 31.55 78.4"></path><path d="m1246.85 2506.35c-13.5-21.1 7.75-76.6 31.05-47.15 8.85 11.15 13.25 25 5.5 37.65s-25 22.65-36.55 9.5"></path><path d="m1644.8 2306.5c-78.9-2.8-135.7-195.75-41.9-177.3 21.2 4.15 40 10.95 61.8 13 21 1.95 42.4 3.25 62.6 9.65 18.3 5.8 43 17.25 47.05 38.35 3.75 19.55-9.65 43.8-19.05 60-10.95 18.85-22.05 43.95-40.5 56.55-22.6 15.4-46.05 3.85-70 0"></path><path d="m1219.15 2245.15c-27.95-13.65-29.6-50.8-47.6-72.6-18.85-22.85-47.85-28.95-65.65-53.55-16.6-22.9-37.9-45.45-47.2-72.9s-.35-58.9 7.85-85.6c17.4-56.55 1.1-116.55 22.05-171.95 15-39.7 69.4-125.75 122.45-103.5 27.05 11.35 36.2 46.65 44.05 72.2 8.55 27.85 7 58.15 20 84.45 16.4 33 7.75 51.6-20.6 73.25-25.5 19.5-40.7 39.3-31.7 72.45 8.15 30 31.8 52.1 64.45 48.55 24.05-2.6 62.45-14.35 76.55-35.3 9.25-13.8 3.95-27 7.95-41.75 3.75-13.85 14.6-25.25 19.4-39.3 9.09018-27.57938 15.06078-56.09066 17.8-85 2.90472-28.60727 11.77922-56.28686 26.05-81.25 17.75-30.9.65-52.2-16.5-79.7-15.8-25.35-22.75-51.55-31.45-79.7s-28.3-51.55-38.7-79.25c-10.7-28.55-13.7-57.2 8.7-80 20.25143-21.0362 44.62651-37.66641 71.6-48.85 27.43091-11.49358 58.91284-7.45108 82.55 10.6 18.95 14.2 45 49.35 71.4 45.55 28.3-4.05 41.85-45.65 51.7-67.85 11.4-25.85 16.55-56.05 31.8-80 14.55-22.7 45.45-39.1 66.95-55s56.65-28.95 82.1-23.75c30.8 6.3 44.7 36.45 51.95 64.05 6.7139 28.26816 16.50569 55.71535 29.2 81.85 28.4 56.2.95 112-22.45 165.65-11.75 27-33.45 46.35-46.2 72.35-4.7 9.6-14.45 30.75-15 40.9-1.4 17.95 20 18.25 33.9 17.3 29.04108-1.39508 57.95594-4.73591 86.55-10 28.55-5.95 54-18.2 80.85-29.1 13.35-5.4 27.65-13.55 42.15-9.15 17 5 20 18.9 26.15 33.4 11.15 26.35 28.55 52.45 59.05 56.8 29.5 4.2 57.7-6.1 86.65 5 13.48567 5.84926 26.42063 12.89405 38.65 21.05 10.55 6.4 25.35 20.6 38.15 20.4 29.15-.5 42-44.65 48.75-66.65 8.95-29.25 4.25-58.2-17.05-81.1-9.2-10-24.7-18.5-26.05-33.3-1.55-16.55 13.9-23.95 23.6-34.25 21.55-22.95 21.7-53.4 26.05-82.7 4.15-28.1 15.55-56.1 13.85-85s-18.4-55.55-17.8-85c.55-27.95 13.5-57.9 22.95-83.9 10-27.8 21.4-54.45 51-65 63.5-22.8 116.1 34.25 104.35 95.7-5.5 28.65-17.85 55.45-22.85 84.15-5.45 31.15 7.6 56 8.75 86.1 1.1 29.1-18.8 55.35-22.7 83.8-2.1 15-.9 28.8-7.7 43.15-6.2 13.05-13.65 25-19.2 38.45-10.55 25.45-25 53.75-26.65 81.6-1.8 30 11.3 57 6.95 87.6-3.95 27.6-12.95 58.65 4.45 83.8 18 26 50.4 27.75 78.95 27.6s60.45 3.7 77.75 30c19.35 29.5 4.1 56.85-27.4 65-56.49846 14.52147-115.44722 16.80577-172.9 6.7-29.1-5-57.95-10.6-87.1-15-14.3-2.25-27.35-8.15-41.8-9.65-14.32331-.91055-28.38087-4.29384-41.55-10-26.65-11.95-49.65-30-75.8-43-27.1-13.4-50.95-25.35-74.1-45-47.2-40.3-109.1-53.8-151.5 1.95-17.25 22.65-26.7 50.7-40 75.35-1.8 3.25-5.45 17.65-8.75 18.55-2.05.55-17.05-9.65-20-11.05-13.03812-6.89806-25.70552-14.47513-37.95-22.7-12.39528-7.92713-23.08677-18.24468-31.45-30.35-6.25-9.1-18.7-29.2-32.15-23.25-14.45 6.45-6.35 30-10.55 40.7-6.26785 13.56654-17.61719 24.12573-31.6 29.4-31.2 11.55-55.8-8.75-73-33.05-15-20.85-18.55-61.45-45-70.7-53.2-18.8-125 44.7-118.15 98.45 3.7 28.15 18.65 56.7 19.25 85 .63384 29.71089-14.6086 57.50929-40 72.95-11.45 7.4-26.1 14.45-34.55 25.45s-10.3 27.05-17.8 39.2c-15.9 25.7-42.8 40-62.75 61.65-30 32.95-83.8 107.35-136.15 66.9"></path><path d="m2899.5 2122.05c-18.45-7.1-22.45-37 2.1-29.55 22.5 6.8 9.15 44.05-2.1 29.55"></path><path d="m3391.65 1876.05c-13.80595-16.75021-17.93232-39.46417-10.9-60 8.8-24.7 34.25-22.15 50.35-5.9 15 15 23.1 39 13.3 58.7-10.4 20.9-37 27-52.75 7.35"></path><path d="m2314.2 1814.55c-4.45-10-20-6.2-17.1 4.7 3.75 13.4 17.25 7.3 17.1-4.7"></path><path d="m3088.6 1768.45c-28-9.55-48.5-24.3-79.1-25-27.35-.8-54.25-1.5-81.55-3.85-52.2-4.6-115.55 6.6-163.65-17.4-50.4-25-75-84.35-88.95-135.55-6.6-23.9-24.7-54.55-21.85-79.6 1.55-13.65 10-26.25 11.85-40s-.9-27.15 0-40.85c1.85-28.7 28.2-46.9 37.8-72.4 10-26.35-1.1-57.25 21.05-76.75s54.5-1.3 79.05-17.4c20-13 31.5-49 45-68.85 15.6-23.2 33.05-44.55 59.55-55.65 25.5-10.7 54.45-11.1 78.35-26.2 25.45-16.05 38.95-38.95 35-69.3-3.25-24.1-22.9-60.85 3.8-78.8 22.85-15.3 57.65 6.9 71.8 25 17.4 22.45 24.3 50 47.9 68.4 31.25 24.2 44.5 2.6 66.75-18.8 24.1-23.2 61.45-1.25 46.4 30.75-6.3 13.4-19.35 18.9-26.4 30-6.5 10.3-4.6 29.1-4.7 40.8 0 27.65-2.5 58 16.45 80 11.75 13.75 13.6 20.3-3.95 30.95-11.92675 7.15598-23.27777 15.23042-33.95 24.15-21.55 17.95-46.5 28.85-71.3 41.55-24.63127 12.36191-49.97602 23.2478-75.9 32.6-27.35 10-46.7 26.95-70.95 41.85-26.05 16-52.5 14.5-58.95 50.4-4.14471 27.49833-.57915 55.60741 10.3 81.2 20 49.7 53.5 99.1 87.9 140 21.35 25.35 36.7 33.6 67.8 42.75 27.8 8.15 42.65 44.55 70.4 18.15 11.65-11.1 16.85-19.4 33.7-22.7 13.82279-2.46916 27.91047-3.10798 41.9-1.9 12.6.95 30 5.95 38.5-6.8 11.9-17.8-9.3-20.3-20.35-27.05-54.05-33.05 33.85-136.95 70-68.05 15 28.7-4.7 53.7-11.5 80.4-6.4 25 30 53.1 13.6 78.05-15.75 23.65-57 15-80 15-27.6.5-54.55 11.8-82 11.4-13.4 0-25.7-6.2-38.95-7.35-14.05-1.25-26.65 1.6-40.45-3.1"></path><path d="m1804.2 1668.1-1.55-1.4c-18.7-16.1-27.3 11.35-6.75 16.65 15.75 4.05 18.4-5.45 8.3-15.25z"></path><path d="m2200.5 1553.2c-25-12.9-53.9-14-79-26.3s-38.85-36.1-54.5-58.65c-15-21.45-39.1-41.85-48.3-66.45-9.7-25.9 4.05-57.05 25.35-73.5 28.45-22 47.25-7.05 76 3.45s52.2-.4 80-8.55c16.5-5 25-6.6 38.4 5 10.7194 8.62452 17.41134 21.28495 18.5 35 2.7 26.85-15 53.05-20.75 78.85-6.45 29.25-14.05 64.35 6.95 88.3 10 11.35 23.95 27.05 2.2 35-15.45 5.8-31.35-6.2-44.65-12.55"></path><path d="m3357.4 1460.95c-43.25-25.85 7.7-91.85 17.7-121.85 7.65-22.95.35-42.1-9.4-62.95-8.75-18.7-23.05-44.45-4.25-61.85s44.65-6.25 57.65 11.15c13.85 18.5 15 41.95 13.15 63.95-1.9 24.55 4.45 42.1 17.7 62.5 9.4 14.5 45 30.85 35.8 50-4.35 9.25-20.5 18.1-28.25 25-8.9599 8.3061-18.61151 15.83334-28.85 22.5-18.45 11.35-50.9 25.55-71.3 11.55"></path><path d="m2886.2 1338c17.6-31.95-43.15-65.65-58.75-33.3-14.4 30 42.35 68.9 58.75 33.3"></path><path d="m2075.5 1230.15c-18.45-1.45-31.7-32.8-33.6-48.5-2.41132-20.72033 7.62615-40.91288 25.6-51.5 44.35-27.3 76.75 30.85 62.7 69.3-6.55 18.2-34.7 45.7-54.7 30.7"></path><path d="m1624.05 2260.15c-26.9-8.65-49.5-45.45-50-72.95-.9-42.15 38-39.75 67.6-32.05 28.05 7.25 65.5 2.25 90.9 15.6 35 18.35 7.85 57.6-12.55 75-26.1 22.6-63.95 32.1-95.9 14.2"></path><path d="m1233.6 2214.25c-40.8-17.9-60.4-106.9-5-117.3 22.7-4.3 52.9-3.25 68.4 16.3 15.98176 19.61355 18.58604 46.919 6.6 69.2-11.9 21.5-44.4 47.95-70 31.8"></path><path d="m1351.8 2106.65c3.2-17.55 26.25-29.05 31.35-5.7 5.4 24.75-21.25 18.15-31.35 5.7"></path><path d="m1087.65 2045.15c-20-18.3-4.45-55.4 1.65-77.4 7.3-26.15 6.5-51.55 8.1-78.35 2.9-47.8 21.6-112.65 54.05-148.95 46.15-51.65 108.85 9.6 87.1 65.45-10 25.65-48.75 31.9-37.25 64 5 13.7 12 22.2 9.05 37.75-2.45 13-10.25 25.45-15.25 37.65-10.6 25.7-7.25 64.55-26.4 85.55s-58.7 36.65-81.05 14.3"></path><path d="m1438.45 1984.2c6.65-7.75 23.1-9.1 20 11.9-1.25 8.45-5 10.3-9.35 8.6-15.2-6.35-15.35-15-10.65-20.5z"></path><path d="m2482 1922.2c-12.05-7.8-35-18.9-24.25-36.2 8.15-13.25 33.2-15 46.5-11.25 16.55 4.55 33.4 18.4 21.8 34.45-9.90264 14.00927-28.12777 19.38786-44.05 13"></path><path d="m1680.75 1876.05c-13.21749-16.30831-21.84727-35.84613-25-56.6-2.7189-12.63567-6.70576-24.96478-11.9-36.8-2.75-7.1-5-26.35-9.7-31.4-12.9-14.3-30 4.6-45.85 3.45-20-1.4-42.15-15.95-55.95-29.4-29.7-29-66.15-54.35-90.75-88-12.65-17.3-19.35-36.65-29.15-55.4s-26.8-32.65-40-49.45c-30.6-39.1-11-81.45 25.9-106.35 38.65-26.05 80-26.9 116.7 2.3 15.5 12.25 30.45 33.7 48.35 41.85 22.45 10.25 37.35-13.3 50-28.45 27.35-32.2 39.15-75.55 52.75-114.5 6.59679-20.23115 22.34738-36.16705 42.5-43 23.15-9.15 39.35-5 55-26.3 32.55-44.25 78.1-22.65 87.65 25.5 4.25 21.5 7.45 41.2 16.2 61.55 8.3 19.2 17.95 38.05 20.65 59.05 5 40.55-12.3 85.95-31.65 120.9-20 36.25-50 68.8-75.95 101.2-13.6 17.15-26.5 34.05-16.2 56.4 10.7 23.25 30.6 27.15 53.5 22 20.55-4.6 39.25-14.05 60.4-16.7s42.55.55 63.8 0c23.85-.4 37.4-11.1 56.2-24.25 18.05-12.6 41.85-22.35 55 1.5 10 17.6 10.55 45-7.15 57.35s-41.35 9.35-60 17.65c-17.7 7.85-33.35 30-45 45-12.75 16.95-23.55 34.1-35 52-12.25 19.45-28.05 33.9-51.6 23.45-20.3-9-29.4-28-44.5-43.3-16.45-16.65-35.8-23.95-55-6.8-17.15 15.35-13 39.3-23.95 58.2s-35.35 26-51.2 7.05"></path><path d="m2249.7 1876.05c-32.85-8.5-64.75-33.6-95.5-48.15-39.4-18.6-30.95-63.35 6.05-78.3 31.5-12.75 72.7-22.5 103.4-3.25 41.7 26.15-5.85 58.65 13.7 93.75 7.2 12.9 45.85 26 30.4 40.6-14.65 13.85-42.25-1.15-58.05-4.7"></path><path d="m3398.85 1860.7c-1.45-13.35 13.9-16.8 17.65-4.6 3.3 10.9-13.15 14.2-17.65 4.6"></path><path d="m1452.35 1830.15c-20.9-13.95-12.3-54.35 15.9-44.7 12.4 4.25 16.15 16.85 11.25 28.25s-15.65 14.3-27.15 16.45"></path><path d="m2363.95 1799.2c-20-16.3-20.3-36.5-10.6-58.2 8.4-18.75 17.05-43 32.8-57.05 20.4-18.2 41.4 7.2 45.35 27.55 4.3 22.05-7.95 42.35-16.05 61.9-7.1 17.1-33.3 58.3-51.55 25.8"></path><path d="m2804.5 1706.95c-35.65-10-56.95-29.2-78.3-58.55-10-13.5-21.3-26.35-25-42.7s-5-32.75-11.1-48.85c-2.95-7.6-6.15-15.85-10-23.15s-12.5-13.95-14.05-20.75c-2.7-11.85 5-11.75 11.25-19.7 4.83241-6.78549 7.67254-14.78634 8.2-23.1 2.2-16.25-5.75-35-2.5-50 2.85-13.45 25-25 37.55-30.3 36.65-15.55 62.3 0 89.6 25 13.75 12.5 23.85 22.85 43.5 17.3 16.75-5 32.8-7.7 40.4 13.6 5.55 15.55 3.35 33.55 6.9 49.65 3.77334 16.29264 8.78798 32.27263 15 47.8 12.2 31.35 30 59.7 43.35 90.45 7.05 16.35 18.35 37.1 7.3 53.25-10 14.6-33.5 20-50 23.9-37.0134 8.67977-75.66027 7.45535-112.05-3.55"></path><path d="m3266.6 1630.15c1.3-20 28.6-35 35-8.75 5.85 24.05-24.7 27.9-35 8.75"></path><path d="m2387.15 1614.7c-16.25-7.95-29.35-24.2-43.7-35.3-21.3-16.45-1.15-25 12.65-40 30.55-33.2 23.15-63 23.7-104.15.25-18.9 6.9-36.2 10.45-54.55s.95-35.4-3.8-53.85c-9.6-37.6-7.45-72.35 2.05-110 9.2-36.35 23.75-73.5 65.85-78.05 37.45-4.05 75 25.7 75.45 64.65 0 37.1-27.3 68.9-35.45 103.9-4.39091 18.22632-3.38328 37.3365 2.9 55 7.1 19.65 16.1 31.55 6.7 52.5-7.45 16.55-16.9 32.25-23.85 49.05s-10 35.3-18.55 52.3c-16.65 33.45-17.45 73.75-49.6 97.3-8.1 5.95-16.05 10-25 .9"></path><path d="m2118.15 1476.35c-12.7-14.4-18.75-31.95-30-47.25-11.7-16.05-31.9-18.55-42.65-35.5s-7-38.9 12.45-47.5c22.55-10 31.15 9.65 44.3 22.85 27.5 27.65 75 2.15 104.55-10 20-8.25 41.9-.4 29.25 24.05-8.1 15.65-25 24.3-33.85 40.7-10 18.5-10.6 41.35-27.3 56.3-8.0211 7.07177-18.52395 10.66571-29.19597 9.99051-10.67203-.67521-20.63817-5.56421-27.70403-13.59051"></path><path d="m3379.7 1445.6c-41.75-13.1-13.75-75 13.5-88.65 20-10 35 5.45 46.45 20 13.85 17.1 10.4 31.75-4.25 48-11.85 13.15-37.55 29.15-55.7 20.9"></path><path d="m2939.3 1338c-15.65-6.7-27.55-28.2-38-41.3-11.15-13.95-26.8-27.4-32.15-45-11.55-37.6 17.5-76.25 50-92 35-16.9 69.15-23.05 100.45-47.95 15.11903-11.38863 27.68826-25.81429 36.9-42.35 4.27384-8.49601 6.00972-18.04335 5-27.5-2.3-12.85-10-11.65-18.2-19.5-10.45-10-31.55-34.15-15.5-47.9 18.6-15.9 36.55 6.95 41.3 23.4 2.8 9.7-1.1 20 1.45 29s11.2 14.45 16.25 21.6c11.06252 15.15147 25.01378 27.9642 41.05 37.7 35.35 23.35 56.95 41.35 67.7 83.75 8.4 33.25 20.85 83.4-21 99.65-17.2 6.65-35.55 10.7-52.85 17.25s-31.85 19.55-49.5 26.8c-30.65 12.55-73.9 35.55-107.55 34.55-9.37661.05413-18.38283-3.65643-25-10.3"></path><path d="m2067.35 1199.6c-26.95-20.6 0-67.65 28.15-46.55 30 22.2-8.15 70.8-28.15 46.55"></path><path d="m1611.6 2214.25c-13-11.65-28.05-40.45-2.15-48.25 20-6.1 36.6 16.9 50.35 26.25 6.05 4.15 25.95 1.8 28.7 6.2 6.5 10.5-15 17.25-20.4 19.25-17.05 5.95-42.05 11.35-56.5-3.45"></path><path d="m1705.05 2197.05c-.4-10.9 27.55-12.1 27.15.3-.3 10.8-21.55 11.6-26 3.55-.68022-1.17528-1.07418-2.49419-1.15-3.85z"></path><path d="m1231.85 2183.55c-19.05-20 7.35-55 29.4-34 21.3 20-10 55.4-29.4 34"></path><path d="m1116.75 2004c5-13.3 23.3-15 23.1 2.7 0 16.8-20.8 13.1-23.1-2.7"></path><path d="m1129.7 1937.55c-10.55-19.45-16.25-41.65-7.1-62.65 5-11.45 10-18.9 20.8-23.8 12.05-5.5 15.35-2.15 24.1 8.3 13.95 16.7 20 40.65 8.4 60.7-6 10.6-44.65 50.65-46.2 17.45"></path><path d="m1691 1860.7c-22.65-29.15 3.4-60.45-13.1-91.15-15-28-27.7-57.9-53.8-76.95s-56.45-26.9-85-40.55c-26.7-12.85-62.05-23.4-80-48.2-9.35-12.85-11.45-29.2-21.25-41.8s-24.5-19.6-37.1-28.95c-11.5-8.55-29-18.95-28.75265-34.5 0-14 14.20265-31.1 23.65265-40.4 21.9-21.4 56.25-35.55 86.35-25s47.9 42.35 61.1 69.2c12.05 24.5 44 65.35 69.05 26.35 8.9-13.8-1.1-31.45 0-46.35 1.25-16.4 10.95-29.05 19.75-42.2 17.29771-26.68725 31.61663-55.19096 42.7-85 5.25-13.55 7.2-33.05 19.6-41.9s31.1-9.55 45.45-12.6c16.4-3.45 30.8-9.1 40.95-23 8.2-11.25 16.25-32.3 34.5-27.45 15.5 4.1 20 27.5 20 40.85 0 17.9-1.6 28.8 6.7 45.6 14.15 28.5 30.35 55 30.6 88.15-.59323 31.65383-9.60164 62.57925-26.1 89.6-15.85 27.05-38.3 50-60 72.6-20 20.7-51.6 44.35-53.95 75s27.6 59.3 17.6 91.2c-5 15.5-19.5 25-26.25 39.15-7.4 15.5 0 30.6-2.25 46.6-1.95 12.85-15.5 40-30.55 21.7"></path><path d="m1858.8 1830.15c-12.15-15.7-27.4-35.5-33.75-54.4-7.6-22.7 11.15-41.8 30.55-50.8s44.05-10.85 59.2 7.4 1 42.2-9.4 59.1c-6.95 11.3-28.75 66.2-46.65 38.7"></path><path d="m1168.1 1799.2c-9.2-30.5 32.25-75.95 53.7-38.3 20 35-46.35 66.5-53.7 38.3"></path><path d="m2225.5 1783.8c4.55-6.6 5-16.15 12.2-20.35s18-1.8 19.35 7.55c2.25 16.05-29.4 35-31.55 12.75"></path><path d="m2396.9 1722.3c4.05-7.8 15.8-10.9 15.6.95 0 12.6-12.3 6.15-15.6-.95"></path><path d="m2841.5 1691.55c-19.6-8.75-40.55-16.05-58.3-28.5-16.25-11.45-30-32.4-40.65-48.95-11.6-17.85-11.95-40.85-15.55-61.4-3.75-21.35-8.05-42.5 4.75-61.8 14.65-22.05 33-20 56.45-14.55 19 4.55 45.65 8.35 60.8 21.35 33.35 28.55 33.45 78.2 54 114.4 11.65 20.45 24.65 46.45 5.8 66.8-17.9 19.35-43.75 20.35-67.35 12.75"></path><path d="m2396.2 1568.6c3.65-7.7 14.7-19.35 17.2-3.6 2.1 13.25-11.65 13.35-17.2 3.6"></path><path d="m2414.8 1465.6c-21.85-11.75-16.5-53.75-7.4-72 11.7-23.45 21.35-44.45 6.25-69.5-20.95-35-16.2-109.15 5.75-145 28.85-46.9 114.2-24.65 101.9 33.95-10 46.75-70 85.4-53.85 134.75 5 15.45 14.2 22.05 21.35 35.65 8.95 16.9-.35 24.6-10.55 36.85-12.6 15-27.85 48.7-50.85 48.15-4.36632.06013-8.68459-.91662-12.6-2.85z"></path><path d="m3372.5 1414.85c.35-25.5 39.2-47.05 47.95-15 7.45 27.1-38.95 45.4-47.95 15"></path><path d="m2954.75 1307.25c-47.2-4.05-76.8-72.4-46.75-108.3 17.1-20.45 38.85-21.2 62.1-29.3 21.7-7.55 42.35-20.65 62.3-31.85s41.8-24.3 65.9-18.15c22.7748 6.36743 42.23226 21.24246 54.35 41.55 10.65 18.3 18.25 47.55 7.15 67.25-12.5 22.1-39.5 23.75-61.05 30-25.45 7.6-41.95 30-66.8 40.5-23.1 9.65-52.55 15.5-77.1 8.15"></path><path d="m1138.95 1886.75c5.3-23.4 27.6-7.8 24.3 12.05-3.65 22-27.25 1.85-24.4-11.55z"></path><path d="m1870.5 1753.05c.95.3 1.85-1.7 2.15.55-2.15 2.25-1.2 0-2.15-.55"></path><path d="m1684.25 1722.3c-.85-19.45 14.3-30.9 24.3-8.5 7.6 17.05-19.15 26.35-24.3 8.5"></path><path d="m2858.7 1653.45c5.6-17.45 28.7-21.1 28.15.85-.6 22.85-23 16.1-28.15-.85"></path><path d="m1677.1 1630.15c-18.95 1.15-61.25-30.3-61.7-49.3-.65-27.6 19.55-52.65 13.75-80.85-6.2-30 13.25-49.2 28.9-73.95 15-23.4 24.2-50 39.3-73.25 34.55-52.75 109.65-31.05 139.15 14.5 32.6 50.35 23.05 108.3-12.3 154.35-19.56048 24.46399-42.00664 46.47365-66.85 65.55-17.75 14.1-55.75 52-80 42.95"></path><path d="m1444.55 1522.45c-21.2-14.3-38.65-26.85-16.65-50.25 14.55-15.5 39.25-29.3 59.2-14.6 18.85 13.9 19.75 40.85 12.4 61.1-10 27.65-36 16.4-55 3.8"></path><path d="m2937.4 1276.5c-32.9-23.85-25.5-67.05 12.45-80.4 15.9-5.6 33.9-5.55 50-10.6s32.15-13.25 48.45-20c29.45-11.85 80-7.1 76.3 36.15-3.05 33.5-57.25 40-80.85 55.45-28.2 18.45-74.7 47.65-106.5 19.2"></path><path d="m2434.75 1261.1c-28.4-30-5-89.5 33.35-96.05 18.1-3.1 43.25 11.2 47.35 30.25s-11.7 38.65-23.85 52.1-41.95 38.8-56.8 13.65"></path><path d="m1671.65 1584-3.7-2.5"></path><path d="m1721.4 1361.8 1.25-1.05"></path><path d="m1671.65 1583.95c26.95 17.35 64.15-6.1 86.25-21.55 43.2-30 91.35-76.1 85.45-133.4-2.86864-20.34655-12.21317-39.22847-26.65-53.85-14.75-15.7-35-28.35-57.3-28.35-25 0-42.65 16.45-55.4 36.4-6.8 10.65-12.35 22-19.1 32.65s-15 20.75-22.7 31.05c-5.93333 7.96667-11.55 16.13333-16.85 24.5-3.65663 5.21635-6.44282 10.99136-8.25 17.1-.66217 4.56292-.18111 9.21886 1.4 13.55 1.75 9.7 2.35 19.55 3.8 29.3 2.9 19.4 9.05 38.3 25.65 50"></path><path d="m2945.15 1261.1c-36.25-26.75 16.4-57.85 45-42.35 35.85 19.25-18.85 64.05-45 42.35"></path><path d="m2448.5 1230.15c-18.8-32.3 26-72.85 52.85-43.15 22.9 25.3-26.85 71.4-52.85 43.15"></path><path d="m1673.65 1553.2c-13.15-7-23.45-33.7-26.1-47.6-4.2-21.95 10-31.9 23.7-47.1 23.15-25.55 37.05-68.5 71.4-81.85 36.4-14.1 77.55 12.35 86.9 48.65 10 38.7-16.9 70.85-44.5 94.05s-76.25 60.7-111.45 33.85"></path><path d="m2466.8 1215.15c-2.55-13.95 16.15-40 28.65-21.75 10 14.7-15.65 35-28.65 21.75"></path><path d="m1690.5 1537.85c-14.81131-5.56651-25.70032-18.38379-28.8-33.9-2.75-16.9 12.35-22.95 22.95-33.7 20.9-21.2 30-52.65 56.55-67.85 13.17378-7.36261 28.83595-8.84776 43.1588-4.0925 14.32285 4.75527 25.98677 15.31282 32.1412 29.0925 13.2 30-12.35 57.05-34.55 73.9-19.45 15-65.7 47.3-91.45 36.75"></path><path d="m1716.75 1488c-8.05-8.15.65-25 10-40.55 15.9-26.9 46.6-47.55 72.25-19.15 34.65 38.35-34.2 65-64.05 65-9.45-.2-15.05-2.1-18.2-5.3z"></path><path d="m1751.25 1451.65c-.65 5 2.15 10 10 10.4 12.05.5 23.65-22 6.35-23.85-8.11575-.44255-15.21949 5.4012-16.35 13.45z"></path><path d="m1322.25 1461.05c-5.35-31.2 53.5-68.6 76.15-84.6 32.45-22.95 72.55-39.35 110-15.5 20 12.9 71.6 83.9 91.95 45.4 18.80429-34.62697 34.28997-70.95554 46.25-108.5 11.35-36.7 51.35-61.2 83.8-78.9s76.4-39.3 110.6-13.5 37.45 67.4 50.55 104.4c7.02478 18.28029 17.17611 35.19918 30 50 11.55 14.55 32.35 28.85 28.5 49.25-3.3 17.35-20.4 35-29.55 50-10.1649 16.69486-18.14668 34.62445-23.75 53.35-6.25 20.55-11.65 40-19.35 60-4.2 10.9-9.6 26.8 1.15 35.95 19.35 16.45 86.15-1.05 106.75-9.3 35.7-14.25 80.25-35 69.2-80-9.45-38.55-36.75-70.4-64.55-97.25-17.75-17.15-21.4-28.85-5-50.5 11.55-15.45 23.15-31.25 34.5-47.15s27.8-30.55 30.7-50.5-7.2-38.7-13.05-56.65c-12.25-37.55-13.4-82.85 23.8-106.3 16.73076-9.87213 35.31804-16.18704 54.6-18.55 15-2.1 15.5-1.1 20.45 13.3 3.15 9.25 6.9 18.25 10.25 27.5 12.25 33.75 30 83.05-.55 111.05-13.2 12.1-37.95 23-30.6 45s34.4 21 50.75 11.95c17.5-9.7 28.65-25.55 49.1-30.55 19.68751-3.80656 39.9073-3.9591 59.65-.45 8.15 1.45 21.85 3.2 24.3 12.3 3.5 13.15-12.6 12.35-19.35 18.55-11 10-12.3 33.35-12.65 47.05-.45 16.6 1.2 33.3-.4 50-1.05 10.75-3.05 21.45-4.7 32.1s2.7 25 5 35.95c1.35 6.35 1.5 13.05 2.5 19.5 1.14338 9.01585 3.30725 17.87263 6.45 26.4 6.55 16.45 19.15 25 35.65 14.65 26.4-16.35 18.4-63.5 29.7-89.65 13.45-31.1 22.75-60 10.45-93.25-6.1249-15.45076-13.25688-30.48305-21.35-45-10.45-19.6-9.2-21.5 1.25-41.45 15-28.95 27.5-57.8 41.2-87.55s36.65-54.45 71.15-59.45c32.88836-4.02931 65.33077 10.33832 84.45 37.4 20.8 28.5 16.6 60.5 11.35 93.2-5 31.45-16.2 63.45-16.3 95.4 0 33.8 12.2 61.85 2.45 95.75-5.18577 14.90661-9.16524 30.20586-11.9 45.75-2 16.35-.3 32.05-5.9 47.85-10.7 30-29.2 58.3-35 90s10 63.25 3.95 95-22.85 64.45 10 89c13.8945 10.38463 33.21067 9.41882 46-2.3 14.35-11.8 13.1-26.7 11-43.5s-1.4-35.7 18.45-40.8c16.33074-3.35722 32.666 5.7132 38.45 21.35 6 15.65 1.1 32.9 8.35 48.65s20.7 23.05 34.6 31.15c30.7 17.85 47.45 41.05 47.20276 77.95 0 23.3-8.90276 45.5-18.95276 66.15-15.45 31.7-14.45 63.75-55.4 45-20.7-9.45-42.2-13.15-63.25-20-21.25095-6.92418-43.72606-9.27563-65.95-6.9-12.50627 1.32292-24.87108 3.74904-36.95 7.25-8.05 2.3-16.7 2.2-24.6 4.75-7.13156 2.95845-14.63455 4.92672-22.3 5.85-16.45.9-32.55-4.4-47.7-10.35-21.65-8.5-42.15-10-65-13.3-43.6-6.7-78.35-42.5-112.65-67.7-36-26.5-82.2-30.95-119.55-56.55-34.55-23.7-88-50.85-114 .7-10.35 20.5-2.6 43.3-8.05 64.6s-29.55 38.1-52.1 31.25c-20-6.05-37.4-23.6-57.35-31.45-23.95-9.45-40-10.5-64.1-1.9-47.25 16.9-85.3 7.55-119.25-30-13.4-15-27.45-40-47.35-45.7-22.5-6.7-45 5-59.3 21.95-30 35.95-10 87.5-3.3 128.25 3.45 21.45 5.5 45 19.55 62.8 6.95 8.75 16.1 14.2 22.4 23.45 6.01963 9.50633 13.45529 18.03795 22.05 25.3 6.25 5.3 13 10 19.25 15 14.05 11.8 38.25 14.45 56 14.7 19.3879.56786 38.57553 4.09177 56.9 10.45 9.45 3.15 18.75 6.8 27.9 10.7 19.3 8.25 45.9 12.9 42.75 39.7-1.93794 14.49761-5.42453 28.74569-10.4 42.5-7.9 22.85-29.15 58.2-13.75 81.8 7.05 10.8 30.4 17.3 20 34.15-6.25 10-29.05 14.25-40 17.45-26.25 7.85-56.5 21-84.25 20-29.1-1.3-55.65-22.15-68.7-46.8-13.65-25.75-31.6-48.15-46.4-73.2s-22.4-51.7-29.25-80c-5-20.8-15.85-72.1-46.55-66.35-25 4.65-51.15 33.95-69.05 50.55-21.65 20-38.4 44.05-57.65 66.25s-41.8 38.35-64.5 56.05c-10.5 8.2-22.5 19.7-35 24.25-14.65 5.3-28.7-4.7-40.85-12.2-22.2-13.65-46.45-44.5-74.6-41.75s-55.5 28-57.65 56.15c-1.5 19.35-.35 24.2-15 38.25-10.5895 9.74168-19.09413 21.52908-25 34.65-12.45 29.5-2.4 55-5.4 84.5-1.55 15.35-10 29.65-27.15 29.65-16.3 0-24.7-14.4-32.85-26.35-19.65-28.8-40.3-36.85-71-18.15-24.6 15-51.1 27.45-75.35 42.9-25.95 16.6-33 47.4-55.85 65.3-11.8 9.25-27.6 13.15-39.4 1.85"></path></g></svg>