<svg width="110" height="150" viewBox="0 0 110 150" fill="none" xmlns="http://www.w3.org/2000/svg">
<rect width="110" height="150" fill="transparent"/>
<path d="M98 52.2L89 99.7L3.79999 113.4L12.7 64.4L98 52.2Z" fill="#D3B63C" stroke="#1D1E1C" stroke-width="2" stroke-miterlimit="10" stroke-linecap="round" stroke-linejoin="round"/>
<path d="M98 50.7L107.5 113.2L22.3 126.9L12.7 64.4L98 50.7Z" fill="#FAD843" stroke="#1D1E1C" stroke-width="2" stroke-miterlimit="10" stroke-linecap="round" stroke-linejoin="round"/>
<path d="M22.3 126.9L43.4 83.8" stroke="#1D1E1C" stroke-width="2" stroke-miterlimit="10" stroke-linecap="round" stroke-linejoin="round"/>
<path d="M106.9 113.4L74.7 78.8" stroke="#1D1E1C" stroke-width="2" stroke-miterlimit="10" stroke-linecap="round" stroke-linejoin="round"/>
<path d="M12.7 64.4L98 50.7L61.2 95.1L12.7 64.4Z" fill="#D3B63C" stroke="#1D1E1C" stroke-width="2" stroke-miterlimit="10" stroke-linecap="round" stroke-linejoin="round"/>
<path opacity="0.21" d="M3.79999 113.4L22.3 126.9L12.7 64.4L3.79999 113.4Z" fill="#1D1E1C"/>
<path d="M98 50.7L12.7 64.4L49.6 19.6L98 50.7Z" fill="#D3B63C" stroke="#1D1E1C" stroke-width="2" stroke-miterlimit="10" stroke-linecap="round" stroke-linejoin="round"/>
<path d="M27.4 73.7L22.7 41.6L82.4 32.4L87.5 63.4L61.2 95.1L27.4 73.7Z" fill="white" stroke="#1D1D1B" stroke-width="2" stroke-miterlimit="10"/>
<path d="M33.8 51.5L74.5 45.2" stroke="#1D1D1B" stroke-width="2" stroke-miterlimit="10" stroke-linecap="round"/>
<path d="M35.1 59.2L75.8 52.9" stroke="#1D1D1B" stroke-width="2" stroke-miterlimit="10" stroke-linecap="round"/>
<path d="M36.8 67L77.5 60.7" stroke="#1D1D1B" stroke-width="2" stroke-miterlimit="10" stroke-linecap="round"/>
<path d="M38.8 74.7L79.5 68.4" stroke="#1D1D1B" stroke-width="2" stroke-miterlimit="10" stroke-linecap="round"/>
</svg>
