<svg width="114" height="126" viewBox="0 0 114 126" fill="none" xmlns="http://www.w3.org/2000/svg">
<g clip-path="url(#clip0_1_12)">
<path d="M6.63342 62.8504V62.0589C6.63342 60.8716 7.30706 59.7833 8.42979 59.0907C9.88935 58.2003 10.8998 56.9141 11.3489 55.43L11.9103 53.6491C12.3594 52.0661 14.0435 50.8789 15.9521 50.8789H43.2346C45.4801 50.8789 47.6133 52.0661 48.6238 53.847L49.2974 55.1332C50.1956 56.7162 51.992 57.8045 54.0129 57.8045H103.413C105.996 57.8045 108.241 59.1897 109.252 61.2674L109.925 62.7514H6.63342V62.8504Z" fill="#DBBD3E" stroke="#1D1E1C" stroke-width="2" stroke-miterlimit="10"/>
<path d="M96.6218 121.112H25.2235V41.2019H78.0695L96.6218 56.9644V121.112Z" fill="#F0F0F0" stroke="#1D1E1C" stroke-width="2" stroke-miterlimit="10"/>
<path d="M96.6218 56.9644L77.9571 41.2019V56.4656L96.6218 56.9644Z" fill="#DADAD2" stroke="#1D1D1B" stroke-width="2" stroke-miterlimit="10" stroke-linecap="round" stroke-linejoin="round"/>
<path opacity="0.23" d="M7.87036 58.8599L109.075 60.4046C109.075 60.4046 110.199 61.6918 109.862 62.8504H6.63342C6.63342 62.8504 6.74586 59.6322 7.87036 58.8599Z" fill="black"/>
<path d="M8.29097 61.8527H107.432C111.021 61.8527 113.825 64.4631 113.712 67.6759L112.591 119.181C112.479 122.293 109.675 124.703 106.311 124.703H10.3097C6.94517 124.703 4.1414 122.293 4.02925 119.281L1.89839 67.7763C1.78624 64.5635 4.70216 61.8527 8.29097 61.8527Z" fill="#FAD844" stroke="#1D1E1C" stroke-width="2" stroke-miterlimit="10"/>
</g>
<defs>
<clipPath id="clip0_1_12">
<rect width="114" height="126" fill="white"/>
</clipPath>
</defs>
</svg>
