<svg width="80" height="80" viewBox="0 0 80 80" fill="none" xmlns="http://www.w3.org/2000/svg">
<rect x="10" y="12" width="60" height="60" rx="30" fill="#2D81F9"/>
<rect x="10" y="12" width="60" height="60" rx="30" fill="url(#paint0_linear_101_2)"/>
<rect x="10" y="12" width="60" height="60" rx="30" stroke="black" stroke-width="2"/>
<rect width="6.84335" height="26.254" rx="3.42168" transform="matrix(0.856924 0.515443 -0.484714 0.874673 54.5264 27.4688)" fill="white" stroke="black"/>
<rect width="6.84335" height="22.4441" rx="3.42168" transform="matrix(0.856924 -0.515443 0.484714 0.874673 34.3472 34.3303)" fill="white" stroke="black"/>
<rect width="6.82289" height="24.9175" rx="3.41144" transform="matrix(0.899472 0.436978 -0.408529 0.912745 37.4119 30.803)" fill="white" stroke="black"/>
<g filter="url(#filter0_d_101_2)">
<rect width="6.84335" height="22.4216" rx="3.42168" transform="matrix(0.856924 -0.515443 0.484714 0.874673 19.6094 37.1541)" fill="white"/>
<rect width="6.84335" height="22.4216" rx="3.42168" transform="matrix(0.856924 -0.515443 0.484714 0.874673 19.6094 37.1541)" stroke="black"/>
</g>
<defs>
<filter id="filter0_d_101_2" x="20.3384" y="34.4012" width="15.2742" height="21.59" filterUnits="userSpaceOnUse" color-interpolation-filters="sRGB">
<feFlood flood-opacity="0" result="BackgroundImageFix"/>
<feColorMatrix in="SourceAlpha" type="matrix" values="0 0 0 0 0 0 0 0 0 0 0 0 0 0 0 0 0 0 127 0" result="hardAlpha"/>
<feOffset/>
<feComposite in2="hardAlpha" operator="out"/>
<feColorMatrix type="matrix" values="0 0 0 0 0 0 0 0 0 0 0 0 0 0 0 0 0 0 0.25 0"/>
<feBlend mode="normal" in2="BackgroundImageFix" result="effect1_dropShadow_101_2"/>
<feBlend mode="normal" in="SourceGraphic" in2="effect1_dropShadow_101_2" result="shape"/>
</filter>
<linearGradient id="paint0_linear_101_2" x1="72.6842" y1="10.1053" x2="9.05263" y2="74.2105" gradientUnits="userSpaceOnUse">
<stop stop-color="#5CD4FB"/>
<stop offset="1" stop-color="#5CD4FB" stop-opacity="0"/>
</linearGradient>
</defs>
</svg>
