<svg width="354" height="155" viewBox="0 0 354 155" fill="none" xmlns="http://www.w3.org/2000/svg">
<g clip-path="url(#clip0_1_2)">
<g filter="url(#filter0_d_1_2)">
<rect width="76" height="25" rx="2" fill="#2B333B"/>
<rect x="0.5" y="0.5" width="75" height="24" rx="1.5" stroke="#151F28"/>
</g>
<path d="M17.1658 10.8551C17.1431 10.6259 17.0456 10.4479 16.8732 10.321C16.7009 10.1941 16.467 10.1307 16.1715 10.1307C15.9708 10.1307 15.8013 10.1591 15.663 10.2159C15.5247 10.2708 15.4187 10.3475 15.3448 10.446C15.2728 10.5445 15.2369 10.6562 15.2369 10.7812C15.2331 10.8854 15.2549 10.9763 15.3022 11.054C15.3514 11.1316 15.4187 11.1989 15.5039 11.2557C15.5891 11.3106 15.6876 11.3589 15.7994 11.4006C15.9111 11.4403 16.0304 11.4744 16.1573 11.5028L16.68 11.6278C16.9338 11.6847 17.1668 11.7604 17.3789 11.8551C17.591 11.9498 17.7747 12.0663 17.93 12.2045C18.0853 12.3428 18.2056 12.5057 18.2908 12.6932C18.378 12.8807 18.4225 13.0956 18.4244 13.3381C18.4225 13.6941 18.3316 14.0028 18.1516 14.2642C17.9736 14.5237 17.716 14.7254 17.3789 14.8693C17.0437 15.0114 16.6393 15.0824 16.1658 15.0824C15.6961 15.0824 15.2871 15.0104 14.9386 14.8665C14.592 14.7225 14.3211 14.5095 14.1261 14.2273C13.9329 13.9432 13.8316 13.5919 13.8221 13.1733H15.0124C15.0257 13.3684 15.0816 13.5312 15.18 13.6619C15.2804 13.7907 15.4139 13.8883 15.5806 13.9545C15.7492 14.0189 15.9395 14.0511 16.1516 14.0511C16.36 14.0511 16.5408 14.0208 16.6942 13.9602C16.8496 13.8996 16.9698 13.8153 17.055 13.7074C17.1403 13.5994 17.1829 13.4754 17.1829 13.3352C17.1829 13.2045 17.1441 13.0947 17.0664 13.0057C16.9906 12.9167 16.8789 12.8409 16.7312 12.7784C16.5853 12.7159 16.4064 12.6591 16.1942 12.608L15.5607 12.4489C15.0702 12.3295 14.6829 12.143 14.3988 11.8892C14.1147 11.6354 13.9736 11.2936 13.9755 10.8636C13.9736 10.5114 14.0674 10.2036 14.2567 9.94034C14.448 9.67708 14.7103 9.47159 15.0437 9.32386C15.377 9.17614 15.7558 9.10227 16.18 9.10227C16.6119 9.10227 16.9888 9.17614 17.3107 9.32386C17.6346 9.47159 17.8865 9.67708 18.0664 9.94034C18.2463 10.2036 18.3391 10.5085 18.3448 10.8551H17.1658ZM21.2006 15.0852C20.7594 15.0852 20.3777 14.9915 20.0558 14.804C19.7357 14.6146 19.4885 14.3513 19.3143 14.0142C19.14 13.6752 19.0529 13.2822 19.0529 12.8352C19.0529 12.3845 19.14 11.9905 19.3143 11.6534C19.4885 11.3144 19.7357 11.0511 20.0558 10.8636C20.3777 10.6742 20.7594 10.5795 21.2006 10.5795C21.6419 10.5795 22.0226 10.6742 22.3427 10.8636C22.6647 11.0511 22.9128 11.3144 23.087 11.6534C23.2612 11.9905 23.3484 12.3845 23.3484 12.8352C23.3484 13.2822 23.2612 13.6752 23.087 14.0142C22.9128 14.3513 22.6647 14.6146 22.3427 14.804C22.0226 14.9915 21.6419 15.0852 21.2006 15.0852ZM21.2063 14.1477C21.4071 14.1477 21.5747 14.0909 21.7092 13.9773C21.8436 13.8617 21.945 13.7045 22.0131 13.5057C22.0832 13.3068 22.1183 13.0805 22.1183 12.8267C22.1183 12.5729 22.0832 12.3466 22.0131 12.1477C21.945 11.9489 21.8436 11.7917 21.7092 11.6761C21.5747 11.5606 21.4071 11.5028 21.2063 11.5028C21.0037 11.5028 20.8332 11.5606 20.695 11.6761C20.5586 11.7917 20.4554 11.9489 20.3853 12.1477C20.3171 12.3466 20.283 12.5729 20.283 12.8267C20.283 13.0805 20.3171 13.3068 20.3853 13.5057C20.4554 13.7045 20.5586 13.8617 20.695 13.9773C20.8332 14.0909 21.0037 14.1477 21.2063 14.1477ZM26.9336 13.142V10.6364H28.1438V15H26.9819V14.2074H26.9364C26.8379 14.4631 26.6741 14.6686 26.445 14.8239C26.2177 14.9792 25.9402 15.0568 25.6126 15.0568C25.3209 15.0568 25.0643 14.9905 24.8427 14.858C24.6211 14.7254 24.4478 14.5369 24.3228 14.2926C24.1997 14.0483 24.1372 13.7557 24.1353 13.4148V10.6364H25.3455V13.1989C25.3474 13.4564 25.4165 13.66 25.5529 13.8097C25.6893 13.9593 25.872 14.0341 26.1012 14.0341C26.247 14.0341 26.3834 14.0009 26.5103 13.9347C26.6372 13.8665 26.7395 13.7661 26.8171 13.6335C26.8967 13.5009 26.9355 13.3371 26.9336 13.142ZM29.1119 15V10.6364H30.2852V11.3977H30.3306C30.4102 11.1269 30.5437 10.9223 30.7312 10.7841C30.9187 10.6439 31.1346 10.5739 31.3789 10.5739C31.4395 10.5739 31.5049 10.5777 31.5749 10.5852C31.645 10.5928 31.7066 10.6032 31.7596 10.6165V11.6903C31.7028 11.6733 31.6242 11.6581 31.5238 11.6449C31.4234 11.6316 31.3316 11.625 31.2482 11.625C31.0702 11.625 30.9111 11.6638 30.771 11.7415C30.6327 11.8172 30.5228 11.9233 30.4414 12.0597C30.3619 12.196 30.3221 12.3532 30.3221 12.5312V15H29.1119ZM34.1538 15.0852C33.7068 15.0852 33.3223 14.9905 33.0004 14.8011C32.6803 14.6098 32.4341 14.3447 32.2617 14.0057C32.0913 13.6667 32.006 13.2765 32.006 12.8352C32.006 12.3883 32.0922 11.9962 32.2646 11.6591C32.4388 11.3201 32.686 11.0559 33.006 10.8665C33.3261 10.6752 33.7068 10.5795 34.1481 10.5795C34.5288 10.5795 34.8621 10.6487 35.1481 10.7869C35.4341 10.9252 35.6604 11.1193 35.8271 11.3693C35.9937 11.6193 36.0856 11.9129 36.1026 12.25H34.9606C34.9284 12.0322 34.8432 11.857 34.7049 11.7244C34.5685 11.59 34.3896 11.5227 34.168 11.5227C33.9805 11.5227 33.8166 11.5739 33.6765 11.6761C33.5382 11.7765 33.4303 11.9233 33.3526 12.1165C33.275 12.3097 33.2362 12.5436 33.2362 12.8182C33.2362 13.0966 33.274 13.3333 33.3498 13.5284C33.4274 13.7235 33.5363 13.8722 33.6765 13.9744C33.8166 14.0767 33.9805 14.1278 34.168 14.1278C34.3062 14.1278 34.4303 14.0994 34.5401 14.0426C34.6519 13.9858 34.7437 13.9034 34.8157 13.7955C34.8896 13.6856 34.9379 13.554 34.9606 13.4006H36.1026C36.0837 13.7339 35.9928 14.0275 35.8299 14.2812C35.6689 14.5331 35.4464 14.7301 35.1623 14.8722C34.8782 15.0142 34.542 15.0852 34.1538 15.0852ZM38.8661 15.0852C38.4173 15.0852 38.0309 14.9943 37.707 14.8125C37.3851 14.6288 37.137 14.3693 36.9627 14.0341C36.7885 13.697 36.7013 13.2983 36.7013 12.8381C36.7013 12.3892 36.7885 11.9953 36.9627 11.6562C37.137 11.3172 37.3822 11.053 37.6985 10.8636C38.0167 10.6742 38.3898 10.5795 38.8178 10.5795C39.1057 10.5795 39.3737 10.6259 39.6218 10.7188C39.8718 10.8097 40.0896 10.947 40.2752 11.1307C40.4627 11.3144 40.6085 11.5455 40.7127 11.8239C40.8169 12.1004 40.869 12.4242 40.869 12.7955V13.1278H37.1843V12.3778H39.7298C39.7298 12.2036 39.6919 12.0492 39.6161 11.9148C39.5404 11.7803 39.4353 11.6752 39.3008 11.5994C39.1682 11.5218 39.0138 11.483 38.8377 11.483C38.654 11.483 38.4911 11.5256 38.3491 11.6108C38.2089 11.6941 38.0991 11.8068 38.0195 11.9489C37.94 12.089 37.8993 12.2453 37.8974 12.4176V13.1307C37.8974 13.3466 37.9371 13.5331 38.0167 13.6903C38.0981 13.8475 38.2127 13.9688 38.3604 14.054C38.5082 14.1392 38.6834 14.1818 38.886 14.1818C39.0205 14.1818 39.1436 14.1629 39.2553 14.125C39.3671 14.0871 39.4627 14.0303 39.5423 13.9545C39.6218 13.8788 39.6824 13.786 39.7241 13.6761L40.8434 13.75C40.7866 14.0189 40.6701 14.2538 40.494 14.4545C40.3197 14.6534 40.0943 14.8087 39.8178 14.9205C39.5432 15.0303 39.226 15.0852 38.8661 15.0852ZM45.4819 15.0852C45.0349 15.0852 44.6504 14.9905 44.3285 14.8011C44.0084 14.6098 43.7622 14.3447 43.5898 14.0057C43.4194 13.6667 43.3342 13.2765 43.3342 12.8352C43.3342 12.3883 43.4203 11.9962 43.5927 11.6591C43.7669 11.3201 44.0141 11.0559 44.3342 10.8665C44.6542 10.6752 45.0349 10.5795 45.4762 10.5795C45.8569 10.5795 46.1902 10.6487 46.4762 10.7869C46.7622 10.9252 46.9885 11.1193 47.1552 11.3693C47.3219 11.6193 47.4137 11.9129 47.4308 12.25H46.2887C46.2565 12.0322 46.1713 11.857 46.033 11.7244C45.8967 11.59 45.7177 11.5227 45.4961 11.5227C45.3086 11.5227 45.1448 11.5739 45.0046 11.6761C44.8664 11.7765 44.7584 11.9233 44.6808 12.1165C44.6031 12.3097 44.5643 12.5436 44.5643 12.8182C44.5643 13.0966 44.6022 13.3333 44.6779 13.5284C44.7556 13.7235 44.8645 13.8722 45.0046 13.9744C45.1448 14.0767 45.3086 14.1278 45.4961 14.1278C45.6344 14.1278 45.7584 14.0994 45.8683 14.0426C45.98 13.9858 46.0719 13.9034 46.1438 13.7955C46.2177 13.6856 46.266 13.554 46.2887 13.4006H47.4308C47.4118 13.7339 47.3209 14.0275 47.158 14.2812C46.997 14.5331 46.7745 14.7301 46.4904 14.8722C46.2063 15.0142 45.8701 15.0852 45.4819 15.0852ZM50.1772 15.0852C49.7359 15.0852 49.3543 14.9915 49.0323 14.804C48.7122 14.6146 48.4651 14.3513 48.2908 14.0142C48.1166 13.6752 48.0295 13.2822 48.0295 12.8352C48.0295 12.3845 48.1166 11.9905 48.2908 11.6534C48.4651 11.3144 48.7122 11.0511 49.0323 10.8636C49.3543 10.6742 49.7359 10.5795 50.1772 10.5795C50.6185 10.5795 50.9992 10.6742 51.3192 10.8636C51.6412 11.0511 51.8893 11.3144 52.0636 11.6534C52.2378 11.9905 52.3249 12.3845 52.3249 12.8352C52.3249 13.2822 52.2378 13.6752 52.0636 14.0142C51.8893 14.3513 51.6412 14.6146 51.3192 14.804C50.9992 14.9915 50.6185 15.0852 50.1772 15.0852ZM50.1829 14.1477C50.3836 14.1477 50.5513 14.0909 50.6857 13.9773C50.8202 13.8617 50.9215 13.7045 50.9897 13.5057C51.0598 13.3068 51.0948 13.0805 51.0948 12.8267C51.0948 12.5729 51.0598 12.3466 50.9897 12.1477C50.9215 11.9489 50.8202 11.7917 50.6857 11.6761C50.5513 11.5606 50.3836 11.5028 50.1829 11.5028C49.9802 11.5028 49.8098 11.5606 49.6715 11.6761C49.5352 11.7917 49.4319 11.9489 49.3619 12.1477C49.2937 12.3466 49.2596 12.5729 49.2596 12.8267C49.2596 13.0805 49.2937 13.3068 49.3619 13.5057C49.4319 13.7045 49.5352 13.8617 49.6715 13.9773C49.8098 14.0909 49.9802 14.1477 50.1829 14.1477ZM54.7198 15.071C54.3884 15.071 54.0882 14.9858 53.8192 14.8153C53.5522 14.643 53.3401 14.3902 53.1829 14.0568C53.0276 13.7216 52.9499 13.3106 52.9499 12.8239C52.9499 12.3239 53.0304 11.9081 53.1914 11.5767C53.3524 11.2434 53.5664 10.9943 53.8335 10.8295C54.1024 10.6629 54.3969 10.5795 54.717 10.5795C54.9613 10.5795 55.1649 10.6212 55.3278 10.7045C55.4925 10.786 55.6251 10.8883 55.7255 11.0114C55.8278 11.1326 55.9054 11.2519 55.9585 11.3693H55.9954V9.18182H57.2028V15H56.0096V14.3011H55.9585C55.9016 14.4223 55.8211 14.5426 55.717 14.6619C55.6147 14.7794 55.4812 14.8769 55.3164 14.9545C55.1535 15.0322 54.9547 15.071 54.7198 15.071ZM55.1033 14.108C55.2984 14.108 55.4632 14.0549 55.5977 13.9489C55.734 13.8409 55.8382 13.6903 55.9102 13.4972C55.984 13.304 56.021 13.0777 56.021 12.8182C56.021 12.5587 55.985 12.3333 55.913 12.142C55.841 11.9508 55.7369 11.803 55.6005 11.6989C55.4641 11.5947 55.2984 11.5426 55.1033 11.5426C54.9045 11.5426 54.7369 11.5966 54.6005 11.7045C54.4641 11.8125 54.3609 11.9621 54.2908 12.1534C54.2208 12.3447 54.1857 12.5663 54.1857 12.8182C54.1857 13.072 54.2208 13.2964 54.2908 13.4915C54.3628 13.6847 54.466 13.8362 54.6005 13.946C54.7369 14.054 54.9045 14.108 55.1033 14.108ZM60.1864 15.0852C59.7376 15.0852 59.3512 14.9943 59.0273 14.8125C58.7054 14.6288 58.4573 14.3693 58.283 14.0341C58.1088 13.697 58.0217 13.2983 58.0217 12.8381C58.0217 12.3892 58.1088 11.9953 58.283 11.6562C58.4573 11.3172 58.7025 11.053 59.0188 10.8636C59.337 10.6742 59.7101 10.5795 60.1381 10.5795C60.426 10.5795 60.694 10.6259 60.9421 10.7188C61.1921 10.8097 61.4099 10.947 61.5955 11.1307C61.783 11.3144 61.9289 11.5455 62.033 11.8239C62.1372 12.1004 62.1893 12.4242 62.1893 12.7955V13.1278H58.5046V12.3778H61.0501C61.0501 12.2036 61.0122 12.0492 60.9364 11.9148C60.8607 11.7803 60.7556 11.6752 60.6211 11.5994C60.4885 11.5218 60.3342 11.483 60.158 11.483C59.9743 11.483 59.8114 11.5256 59.6694 11.6108C59.5292 11.6941 59.4194 11.8068 59.3398 11.9489C59.2603 12.089 59.2196 12.2453 59.2177 12.4176V13.1307C59.2177 13.3466 59.2575 13.5331 59.337 13.6903C59.4184 13.8475 59.533 13.9688 59.6808 14.054C59.8285 14.1392 60.0037 14.1818 60.2063 14.1818C60.3408 14.1818 60.4639 14.1629 60.5756 14.125C60.6874 14.0871 60.783 14.0303 60.8626 13.9545C60.9421 13.8788 61.0027 13.786 61.0444 13.6761L62.1637 13.75C62.1069 14.0189 61.9904 14.2538 61.8143 14.4545C61.64 14.6534 61.4147 14.8087 61.1381 14.9205C60.8635 15.0303 60.5463 15.0852 60.1864 15.0852Z" fill="white"/>
<g filter="url(#filter1_d_1_2)">
<rect y="58" width="90" height="39" rx="2" fill="#2B333B"/>
<rect x="0.5" y="58.5" width="89" height="38" rx="1.5" stroke="#151F28"/>
</g>
<path d="M28.2507 70H26.9325L28.9411 64.1818H30.5263L32.532 70H31.2138L29.7564 65.5114H29.7109L28.2507 70ZM28.1683 67.7131H31.282V68.6733H28.1683V67.7131ZM33.2095 70V65.6364H34.3828V66.3977H34.4283C34.5078 66.1269 34.6413 65.9223 34.8288 65.7841C35.0163 65.6439 35.2322 65.5739 35.4766 65.5739C35.5372 65.5739 35.6025 65.5777 35.6726 65.5852C35.7427 65.5928 35.8042 65.6032 35.8572 65.6165V66.6903C35.8004 66.6733 35.7218 66.6581 35.6214 66.6449C35.5211 66.6316 35.4292 66.625 35.3459 66.625C35.1679 66.625 35.0088 66.6638 34.8686 66.7415C34.7304 66.8172 34.6205 66.9233 34.5391 67.0597C34.4595 67.196 34.4197 67.3532 34.4197 67.5312V70H33.2095ZM38.2685 70.0852C37.8196 70.0852 37.4332 69.9943 37.1094 69.8125C36.7874 69.6288 36.5393 69.3693 36.3651 69.0341C36.1908 68.697 36.1037 68.2983 36.1037 67.8381C36.1037 67.3892 36.1908 66.9953 36.3651 66.6562C36.5393 66.3172 36.7846 66.053 37.1009 65.8636C37.419 65.6742 37.7921 65.5795 38.2202 65.5795C38.508 65.5795 38.776 65.6259 39.0241 65.7188C39.2741 65.8097 39.492 65.947 39.6776 66.1307C39.8651 66.3144 40.0109 66.5455 40.1151 66.8239C40.2192 67.1004 40.2713 67.4242 40.2713 67.7955V68.1278H36.5866V67.3778H39.1321C39.1321 67.2036 39.0942 67.0492 39.0185 66.9148C38.9427 66.7803 38.8376 66.6752 38.7031 66.5994C38.5705 66.5218 38.4162 66.483 38.2401 66.483C38.0563 66.483 37.8935 66.5256 37.7514 66.6108C37.6113 66.6941 37.5014 66.8068 37.4219 66.9489C37.3423 67.089 37.3016 67.2453 37.2997 67.4176V68.1307C37.2997 68.3466 37.3395 68.5331 37.419 68.6903C37.5005 68.8475 37.6151 68.9688 37.7628 69.054C37.9105 69.1392 38.0857 69.1818 38.2884 69.1818C38.4228 69.1818 38.5459 69.1629 38.6577 69.125C38.7694 69.0871 38.8651 69.0303 38.9446 68.9545C39.0241 68.8788 39.0848 68.786 39.1264 68.6761L40.2457 68.75C40.1889 69.0189 40.0724 69.2538 39.8963 69.4545C39.7221 69.6534 39.4967 69.8087 39.2202 69.9205C38.9455 70.0303 38.6283 70.0852 38.2685 70.0852ZM45.2337 65.6364V66.5455H42.6058V65.6364H45.2337ZM43.2024 64.5909H44.4126V68.6591C44.4126 68.7708 44.4297 68.858 44.4638 68.9205C44.4979 68.9811 44.5452 69.0237 44.6058 69.0483C44.6683 69.0729 44.7403 69.0852 44.8217 69.0852C44.8786 69.0852 44.9354 69.0805 44.9922 69.071C45.049 69.0597 45.0926 69.0511 45.1229 69.0455L45.3132 69.946C45.2526 69.965 45.1674 69.9867 45.0575 70.0114C44.9477 70.0379 44.8142 70.054 44.657 70.0597C44.3653 70.071 44.1096 70.0322 43.8899 69.9432C43.6721 69.8542 43.5026 69.7159 43.3814 69.5284C43.2602 69.3409 43.2005 69.1042 43.2024 68.8182V64.5909ZM47.326 67.4773V70H46.1158V64.1818H47.2919V66.4062H47.343C47.4415 66.1487 47.6006 65.947 47.8203 65.8011C48.04 65.6534 48.3156 65.5795 48.647 65.5795C48.95 65.5795 49.2143 65.6458 49.4396 65.7784C49.6669 65.9091 49.843 66.0975 49.968 66.3438C50.0949 66.5881 50.1574 66.8807 50.1555 67.2216V70H48.9453V67.4375C48.9472 67.1686 48.879 66.9593 48.7408 66.8097C48.6044 66.66 48.4131 66.5852 48.1669 66.5852C48.0021 66.5852 47.8563 66.6203 47.7294 66.6903C47.6044 66.7604 47.5059 66.8627 47.4339 66.9972C47.3639 67.1297 47.3279 67.2898 47.326 67.4773ZM53.0966 70.0852C52.6477 70.0852 52.2614 69.9943 51.9375 69.8125C51.6155 69.6288 51.3674 69.3693 51.1932 69.0341C51.0189 68.697 50.9318 68.2983 50.9318 67.8381C50.9318 67.3892 51.0189 66.9953 51.1932 66.6562C51.3674 66.3172 51.6127 66.053 51.929 65.8636C52.2472 65.6742 52.6203 65.5795 53.0483 65.5795C53.3362 65.5795 53.6042 65.6259 53.8523 65.7188C54.1023 65.8097 54.3201 65.947 54.5057 66.1307C54.6932 66.3144 54.839 66.5455 54.9432 66.8239C55.0473 67.1004 55.0994 67.4242 55.0994 67.7955V68.1278H51.4148V67.3778H53.9602C53.9602 67.2036 53.9223 67.0492 53.8466 66.9148C53.7708 66.7803 53.6657 66.6752 53.5312 66.5994C53.3987 66.5218 53.2443 66.483 53.0682 66.483C52.8845 66.483 52.7216 66.5256 52.5795 66.6108C52.4394 66.6941 52.3295 66.8068 52.25 66.9489C52.1705 67.089 52.1297 67.2453 52.1278 67.4176V68.1307C52.1278 68.3466 52.1676 68.5331 52.2472 68.6903C52.3286 68.8475 52.4432 68.9688 52.5909 69.054C52.7386 69.1392 52.9138 69.1818 53.1165 69.1818C53.2509 69.1818 53.3741 69.1629 53.4858 69.125C53.5975 69.0871 53.6932 69.0303 53.7727 68.9545C53.8523 68.8788 53.9129 68.786 53.9545 68.6761L55.0739 68.75C55.017 69.0189 54.9006 69.2538 54.7244 69.4545C54.5502 69.6534 54.3248 69.8087 54.0483 69.9205C53.7737 70.0303 53.4564 70.0852 53.0966 70.0852ZM55.8892 70V65.6364H57.0625V66.3977H57.108C57.1875 66.1269 57.321 65.9223 57.5085 65.7841C57.696 65.6439 57.9119 65.5739 58.1562 65.5739C58.2169 65.5739 58.2822 65.5777 58.3523 65.5852C58.4223 65.5928 58.4839 65.6032 58.5369 65.6165V66.6903C58.4801 66.6733 58.4015 66.6581 58.3011 66.6449C58.2008 66.6316 58.1089 66.625 58.0256 66.625C57.8475 66.625 57.6884 66.6638 57.5483 66.7415C57.41 66.8172 57.3002 66.9233 57.2188 67.0597C57.1392 67.196 57.0994 67.3532 57.0994 67.5312V70H55.8892ZM60.9482 70.0852C60.4993 70.0852 60.1129 69.9943 59.7891 69.8125C59.4671 69.6288 59.219 69.3693 59.0447 69.0341C58.8705 68.697 58.7834 68.2983 58.7834 67.8381C58.7834 67.3892 58.8705 66.9953 59.0447 66.6562C59.219 66.3172 59.4643 66.053 59.7805 65.8636C60.0987 65.6742 60.4718 65.5795 60.8999 65.5795C61.1877 65.5795 61.4557 65.6259 61.7038 65.7188C61.9538 65.8097 62.1716 65.947 62.3572 66.1307C62.5447 66.3144 62.6906 66.5455 62.7947 66.8239C62.8989 67.1004 62.951 67.4242 62.951 67.7955V68.1278H59.2663V67.3778H61.8118C61.8118 67.2036 61.7739 67.0492 61.6982 66.9148C61.6224 66.7803 61.5173 66.6752 61.3828 66.5994C61.2502 66.5218 61.0959 66.483 60.9197 66.483C60.736 66.483 60.5732 66.5256 60.4311 66.6108C60.291 66.6941 60.1811 66.8068 60.1016 66.9489C60.022 67.089 59.9813 67.2453 59.9794 67.4176V68.1307C59.9794 68.3466 60.0192 68.5331 60.0987 68.6903C60.1802 68.8475 60.2947 68.9688 60.4425 69.054C60.5902 69.1392 60.7654 69.1818 60.968 69.1818C61.1025 69.1818 61.2256 69.1629 61.3374 69.125C61.4491 69.0871 61.5447 69.0303 61.6243 68.9545C61.7038 68.8788 61.7644 68.786 61.8061 68.6761L62.9254 68.75C62.8686 69.0189 62.7521 69.2538 62.576 69.4545C62.4018 69.6534 62.1764 69.8087 61.8999 69.9205C61.6252 70.0303 61.308 70.0852 60.9482 70.0852ZM19.1861 81.6364V75.6364H20.3793V76.3693H20.4332C20.4863 76.2519 20.563 76.1326 20.6634 76.0114C20.7656 75.8883 20.8982 75.786 21.0611 75.7045C21.2259 75.6212 21.4304 75.5795 21.6747 75.5795C21.9929 75.5795 22.2865 75.6629 22.5554 75.8295C22.8243 75.9943 23.0393 76.2434 23.2003 76.5767C23.3613 76.9081 23.4418 77.3239 23.4418 77.8239C23.4418 78.3106 23.3632 78.7216 23.206 79.0568C23.0507 79.3902 22.8385 79.643 22.5696 79.8153C22.3026 79.9858 22.0033 80.071 21.6719 80.071C21.437 80.071 21.2372 80.0322 21.0724 79.9545C20.9096 79.8769 20.776 79.7794 20.6719 79.6619C20.5677 79.5426 20.4882 79.4223 20.4332 79.3011H20.3963V81.6364H19.1861ZM20.3707 77.8182C20.3707 78.0777 20.4067 78.304 20.4787 78.4972C20.5507 78.6903 20.6548 78.8409 20.7912 78.9489C20.9276 79.0549 21.0933 79.108 21.2884 79.108C21.4853 79.108 21.652 79.054 21.7884 78.946C21.9247 78.8362 22.0279 78.6847 22.098 78.4915C22.17 78.2964 22.206 78.072 22.206 77.8182C22.206 77.5663 22.1709 77.3447 22.1009 77.1534C22.0308 76.9621 21.9276 76.8125 21.7912 76.7045C21.6548 76.5966 21.4872 76.5426 21.2884 76.5426C21.0914 76.5426 20.9247 76.5947 20.7884 76.6989C20.6539 76.803 20.5507 76.9508 20.4787 77.142C20.4067 77.3333 20.3707 77.5587 20.3707 77.8182ZM24.2486 80V75.6364H25.4219V76.3977H25.4673C25.5469 76.1269 25.6804 75.9223 25.8679 75.7841C26.0554 75.6439 26.2713 75.5739 26.5156 75.5739C26.5762 75.5739 26.6416 75.5777 26.7116 75.5852C26.7817 75.5928 26.8433 75.6032 26.8963 75.6165V76.6903C26.8395 76.6733 26.7609 76.6581 26.6605 76.6449C26.5601 76.6316 26.4683 76.625 26.3849 76.625C26.2069 76.625 26.0478 76.6638 25.9077 76.7415C25.7694 76.8172 25.6596 76.9233 25.5781 77.0597C25.4986 77.196 25.4588 77.3532 25.4588 77.5312V80H24.2486ZM29.3075 80.0852C28.8587 80.0852 28.4723 79.9943 28.1484 79.8125C27.8265 79.6288 27.5784 79.3693 27.4041 79.0341C27.2299 78.697 27.1428 78.2983 27.1428 77.8381C27.1428 77.3892 27.2299 76.9953 27.4041 76.6562C27.5784 76.3172 27.8236 76.053 28.1399 75.8636C28.4581 75.6742 28.8312 75.5795 29.2592 75.5795C29.5471 75.5795 29.8151 75.6259 30.0632 75.7188C30.3132 75.8097 30.531 75.947 30.7166 76.1307C30.9041 76.3144 31.05 76.5455 31.1541 76.8239C31.2583 77.1004 31.3104 77.4242 31.3104 77.7955V78.1278H27.6257V77.3778H30.1712C30.1712 77.2036 30.1333 77.0492 30.0575 76.9148C29.9818 76.7803 29.8767 76.6752 29.7422 76.5994C29.6096 76.5218 29.4553 76.483 29.2791 76.483C29.0954 76.483 28.9325 76.5256 28.7905 76.6108C28.6503 76.6941 28.5405 76.8068 28.4609 76.9489C28.3814 77.089 28.3407 77.2453 28.3388 77.4176V78.1307C28.3388 78.3466 28.3786 78.5331 28.4581 78.6903C28.5395 78.8475 28.6541 78.9688 28.8018 79.054C28.9496 79.1392 29.1248 79.1818 29.3274 79.1818C29.4619 79.1818 29.585 79.1629 29.6967 79.125C29.8085 79.0871 29.9041 79.0303 29.9837 78.9545C30.0632 78.8788 30.1238 78.786 30.1655 78.6761L31.2848 78.75C31.228 79.0189 31.1115 79.2538 30.9354 79.4545C30.7611 79.6534 30.5357 79.8087 30.2592 79.9205C29.9846 80.0303 29.6674 80.0852 29.3075 80.0852ZM32.1001 81.6364V75.6364H33.2933V76.3693H33.3473C33.4003 76.2519 33.477 76.1326 33.5774 76.0114C33.6797 75.8883 33.8123 75.786 33.9751 75.7045C34.1399 75.6212 34.3445 75.5795 34.5888 75.5795C34.907 75.5795 35.2005 75.6629 35.4695 75.8295C35.7384 75.9943 35.9534 76.2434 36.1143 76.5767C36.2753 76.9081 36.3558 77.3239 36.3558 77.8239C36.3558 78.3106 36.2772 78.7216 36.12 79.0568C35.9647 79.3902 35.7526 79.643 35.4837 79.8153C35.2166 79.9858 34.9174 80.071 34.5859 80.071C34.3511 80.071 34.1513 80.0322 33.9865 79.9545C33.8236 79.8769 33.6901 79.7794 33.5859 79.6619C33.4818 79.5426 33.4022 79.4223 33.3473 79.3011H33.3104V81.6364H32.1001ZM33.2848 77.8182C33.2848 78.0777 33.3208 78.304 33.3928 78.4972C33.4647 78.6903 33.5689 78.8409 33.7053 78.9489C33.8416 79.0549 34.0073 79.108 34.2024 79.108C34.3994 79.108 34.5661 79.054 34.7024 78.946C34.8388 78.8362 34.942 78.6847 35.0121 78.4915C35.084 78.2964 35.12 78.072 35.12 77.8182C35.12 77.5663 35.085 77.3447 35.0149 77.1534C34.9448 76.9621 34.8416 76.8125 34.7053 76.7045C34.5689 76.5966 34.4013 76.5426 34.2024 76.5426C34.0054 76.5426 33.8388 76.5947 33.7024 76.6989C33.5679 76.803 33.4647 76.9508 33.3928 77.142C33.3208 77.3333 33.2848 77.5587 33.2848 77.8182ZM37.1626 80V75.6364H38.3359V76.3977H38.3814C38.4609 76.1269 38.5945 75.9223 38.782 75.7841C38.9695 75.6439 39.1854 75.5739 39.4297 75.5739C39.4903 75.5739 39.5556 75.5777 39.6257 75.5852C39.6958 75.5928 39.7573 75.6032 39.8104 75.6165V76.6903C39.7536 76.6733 39.675 76.6581 39.5746 76.6449C39.4742 76.6316 39.3823 76.625 39.299 76.625C39.121 76.625 38.9619 76.6638 38.8217 76.7415C38.6835 76.8172 38.5736 76.9233 38.4922 77.0597C38.4126 77.196 38.3729 77.3532 38.3729 77.5312V80H37.1626ZM42.2045 80.0852C41.7633 80.0852 41.3816 79.9915 41.0597 79.804C40.7396 79.6146 40.4924 79.3513 40.3182 79.0142C40.1439 78.6752 40.0568 78.2822 40.0568 77.8352C40.0568 77.3845 40.1439 76.9905 40.3182 76.6534C40.4924 76.3144 40.7396 76.0511 41.0597 75.8636C41.3816 75.6742 41.7633 75.5795 42.2045 75.5795C42.6458 75.5795 43.0265 75.6742 43.3466 75.8636C43.6686 76.0511 43.9167 76.3144 44.0909 76.6534C44.2652 76.9905 44.3523 77.3845 44.3523 77.8352C44.3523 78.2822 44.2652 78.6752 44.0909 79.0142C43.9167 79.3513 43.6686 79.6146 43.3466 79.804C43.0265 79.9915 42.6458 80.0852 42.2045 80.0852ZM42.2102 79.1477C42.411 79.1477 42.5786 79.0909 42.7131 78.9773C42.8475 78.8617 42.9489 78.7045 43.017 78.5057C43.0871 78.3068 43.1222 78.0805 43.1222 77.8267C43.1222 77.5729 43.0871 77.3466 43.017 77.1477C42.9489 76.9489 42.8475 76.7917 42.7131 76.6761C42.5786 76.5606 42.411 76.5028 42.2102 76.5028C42.0076 76.5028 41.8371 76.5606 41.6989 76.6761C41.5625 76.7917 41.4593 76.9489 41.3892 77.1477C41.321 77.3466 41.2869 77.5729 41.2869 77.8267C41.2869 78.0805 41.321 78.3068 41.3892 78.5057C41.4593 78.7045 41.5625 78.8617 41.6989 78.9773C41.8371 79.0909 42.0076 79.1477 42.2102 79.1477ZM47.1108 80.0852C46.6638 80.0852 46.2794 79.9905 45.9574 79.8011C45.6373 79.6098 45.3911 79.3447 45.2188 79.0057C45.0483 78.6667 44.9631 78.2765 44.9631 77.8352C44.9631 77.3883 45.0492 76.9962 45.2216 76.6591C45.3958 76.3201 45.643 76.0559 45.9631 75.8665C46.2831 75.6752 46.6638 75.5795 47.1051 75.5795C47.4858 75.5795 47.8191 75.6487 48.1051 75.7869C48.3911 75.9252 48.6174 76.1193 48.7841 76.3693C48.9508 76.6193 49.0426 76.9129 49.0597 77.25H47.9176C47.8854 77.0322 47.8002 76.857 47.6619 76.7244C47.5256 76.59 47.3466 76.5227 47.125 76.5227C46.9375 76.5227 46.7737 76.5739 46.6335 76.6761C46.4953 76.7765 46.3873 76.9233 46.3097 77.1165C46.232 77.3097 46.1932 77.5436 46.1932 77.8182C46.1932 78.0966 46.2311 78.3333 46.3068 78.5284C46.3845 78.7235 46.4934 78.8722 46.6335 78.9744C46.7737 79.0767 46.9375 79.1278 47.125 79.1278C47.2633 79.1278 47.3873 79.0994 47.4972 79.0426C47.6089 78.9858 47.7008 78.9034 47.7727 78.7955C47.8466 78.6856 47.8949 78.554 47.9176 78.4006H49.0597C49.0407 78.7339 48.9498 79.0275 48.7869 79.2812C48.6259 79.5331 48.4034 79.7301 48.1193 79.8722C47.8352 80.0142 47.4991 80.0852 47.1108 80.0852ZM51.8232 80.0852C51.3743 80.0852 50.9879 79.9943 50.6641 79.8125C50.3421 79.6288 50.094 79.3693 49.9197 79.0341C49.7455 78.697 49.6584 78.2983 49.6584 77.8381C49.6584 77.3892 49.7455 76.9953 49.9197 76.6562C50.094 76.3172 50.3393 76.053 50.6555 75.8636C50.9737 75.6742 51.3468 75.5795 51.7749 75.5795C52.0627 75.5795 52.3307 75.6259 52.5788 75.7188C52.8288 75.8097 53.0466 75.947 53.2322 76.1307C53.4197 76.3144 53.5656 76.5455 53.6697 76.8239C53.7739 77.1004 53.826 77.4242 53.826 77.7955V78.1278H50.1413V77.3778H52.6868C52.6868 77.2036 52.6489 77.0492 52.5732 76.9148C52.4974 76.7803 52.3923 76.6752 52.2578 76.5994C52.1252 76.5218 51.9709 76.483 51.7947 76.483C51.611 76.483 51.4482 76.5256 51.3061 76.6108C51.166 76.6941 51.0561 76.8068 50.9766 76.9489C50.897 77.089 50.8563 77.2453 50.8544 77.4176V78.1307C50.8544 78.3466 50.8942 78.5331 50.9737 78.6903C51.0552 78.8475 51.1697 78.9688 51.3175 79.054C51.4652 79.1392 51.6404 79.1818 51.843 79.1818C51.9775 79.1818 52.1006 79.1629 52.2124 79.125C52.3241 79.0871 52.4197 79.0303 52.4993 78.9545C52.5788 78.8788 52.6394 78.786 52.6811 78.6761L53.8004 78.75C53.7436 79.0189 53.6271 79.2538 53.451 79.4545C53.2768 79.6534 53.0514 79.8087 52.7749 79.9205C52.5002 80.0303 52.183 80.0852 51.8232 80.0852ZM58.2464 76.8807L57.1385 76.9489C57.1196 76.8542 57.0788 76.7689 57.0163 76.6932C56.9538 76.6155 56.8714 76.554 56.7692 76.5085C56.6688 76.4612 56.5485 76.4375 56.4084 76.4375C56.2209 76.4375 56.0627 76.4773 55.9339 76.5568C55.8052 76.6345 55.7408 76.7386 55.7408 76.8693C55.7408 76.9735 55.7824 77.0616 55.8658 77.1335C55.9491 77.2055 56.0921 77.2633 56.2947 77.3068L57.0845 77.4659C57.5088 77.553 57.825 77.6932 58.0334 77.8864C58.2417 78.0795 58.3459 78.3333 58.3459 78.6477C58.3459 78.9337 58.2616 79.1847 58.093 79.4006C57.9264 79.6165 57.6972 79.785 57.4055 79.9062C57.1158 80.0256 56.7815 80.0852 56.4027 80.0852C55.825 80.0852 55.3648 79.965 55.022 79.7244C54.6811 79.482 54.4813 79.1525 54.4226 78.7358L55.6129 78.6733C55.6489 78.8494 55.736 78.9839 55.8743 79.0767C56.0125 79.1676 56.1896 79.2131 56.4055 79.2131C56.6177 79.2131 56.7881 79.1723 56.9169 79.0909C57.0476 79.0076 57.1139 78.9006 57.1158 78.7699C57.1139 78.66 57.0675 78.5701 56.9766 78.5C56.8857 78.428 56.7455 78.3731 56.5561 78.3352L55.8004 78.1847C55.3743 78.0994 55.0571 77.9517 54.8487 77.7415C54.6423 77.5312 54.5391 77.2633 54.5391 76.9375C54.5391 76.6572 54.6148 76.4157 54.7663 76.2131C54.9197 76.0104 55.1347 75.8542 55.4112 75.7443C55.6896 75.6345 56.0154 75.5795 56.3885 75.5795C56.9396 75.5795 57.3733 75.696 57.6896 75.929C58.0078 76.1619 58.1934 76.4792 58.2464 76.8807ZM62.7386 76.8807L61.6307 76.9489C61.6117 76.8542 61.571 76.7689 61.5085 76.6932C61.446 76.6155 61.3636 76.554 61.2614 76.5085C61.161 76.4612 61.0407 76.4375 60.9006 76.4375C60.7131 76.4375 60.5549 76.4773 60.4261 76.5568C60.2973 76.6345 60.233 76.7386 60.233 76.8693C60.233 76.9735 60.2746 77.0616 60.358 77.1335C60.4413 77.2055 60.5843 77.2633 60.7869 77.3068L61.5767 77.4659C62.0009 77.553 62.3172 77.6932 62.5256 77.8864C62.7339 78.0795 62.8381 78.3333 62.8381 78.6477C62.8381 78.9337 62.7538 79.1847 62.5852 79.4006C62.4186 79.6165 62.1894 79.785 61.8977 79.9062C61.608 80.0256 61.2737 80.0852 60.8949 80.0852C60.3172 80.0852 59.857 79.965 59.5142 79.7244C59.1733 79.482 58.9735 79.1525 58.9148 78.7358L60.1051 78.6733C60.1411 78.8494 60.2282 78.9839 60.3665 79.0767C60.5047 79.1676 60.6818 79.2131 60.8977 79.2131C61.1098 79.2131 61.2803 79.1723 61.4091 79.0909C61.5398 79.0076 61.6061 78.9006 61.608 78.7699C61.6061 78.66 61.5597 78.5701 61.4688 78.5C61.3778 78.428 61.2377 78.3731 61.0483 78.3352L60.2926 78.1847C59.8665 78.0994 59.5492 77.9517 59.3409 77.7415C59.1345 77.5312 59.0312 77.2633 59.0312 76.9375C59.0312 76.6572 59.107 76.4157 59.2585 76.2131C59.4119 76.0104 59.6269 75.8542 59.9034 75.7443C60.1818 75.6345 60.5076 75.5795 60.8807 75.5795C61.4318 75.5795 61.8655 75.696 62.1818 75.929C62.5 76.1619 62.6856 76.4792 62.7386 76.8807ZM65.5717 80.0852C65.1304 80.0852 64.7488 79.9915 64.4268 79.804C64.1068 79.6146 63.8596 79.3513 63.6854 79.0142C63.5111 78.6752 63.424 78.2822 63.424 77.8352C63.424 77.3845 63.5111 76.9905 63.6854 76.6534C63.8596 76.3144 64.1068 76.0511 64.4268 75.8636C64.7488 75.6742 65.1304 75.5795 65.5717 75.5795C66.013 75.5795 66.3937 75.6742 66.7138 75.8636C67.0357 76.0511 67.2839 76.3144 67.4581 76.6534C67.6323 76.9905 67.7195 77.3845 67.7195 77.8352C67.7195 78.2822 67.6323 78.6752 67.4581 79.0142C67.2839 79.3513 67.0357 79.6146 66.7138 79.804C66.3937 79.9915 66.013 80.0852 65.5717 80.0852ZM65.5774 79.1477C65.7782 79.1477 65.9458 79.0909 66.0803 78.9773C66.2147 78.8617 66.3161 78.7045 66.3842 78.5057C66.4543 78.3068 66.4893 78.0805 66.4893 77.8267C66.4893 77.5729 66.4543 77.3466 66.3842 77.1477C66.3161 76.9489 66.2147 76.7917 66.0803 76.6761C65.9458 76.5606 65.7782 76.5028 65.5774 76.5028C65.3748 76.5028 65.2043 76.5606 65.0661 76.6761C64.9297 76.7917 64.8265 76.9489 64.7564 77.1477C64.6882 77.3466 64.6541 77.5729 64.6541 77.8267C64.6541 78.0805 64.6882 78.3068 64.7564 78.5057C64.8265 78.7045 64.9297 78.8617 65.0661 78.9773C65.2043 79.0909 65.3748 79.1477 65.5774 79.1477ZM68.5064 80V75.6364H69.6797V76.3977H69.7251C69.8047 76.1269 69.9382 75.9223 70.1257 75.7841C70.3132 75.6439 70.5291 75.5739 70.7734 75.5739C70.834 75.5739 70.8994 75.5777 70.9695 75.5852C71.0395 75.5928 71.1011 75.6032 71.1541 75.6165V76.6903C71.0973 76.6733 71.0187 76.6581 70.9183 76.6449C70.8179 76.6316 70.7261 76.625 70.6428 76.625C70.4647 76.625 70.3056 76.6638 70.1655 76.7415C70.0272 76.8172 69.9174 76.9233 69.8359 77.0597C69.7564 77.196 69.7166 77.3532 69.7166 77.5312V80H68.5064ZM25.38 90.071C25.0485 90.071 24.7483 89.9858 24.4794 89.8153C24.2124 89.643 24.0002 89.3902 23.843 89.0568C23.6877 88.7216 23.6101 88.3106 23.6101 87.8239C23.6101 87.3239 23.6906 86.9081 23.8516 86.5767C24.0125 86.2434 24.2266 85.9943 24.4936 85.8295C24.7625 85.6629 25.0571 85.5795 25.3771 85.5795C25.6214 85.5795 25.825 85.6212 25.9879 85.7045C26.1527 85.786 26.2853 85.8883 26.3857 86.0114C26.4879 86.1326 26.5656 86.2519 26.6186 86.3693H26.6555V84.1818H27.8629V90H26.6697V89.3011H26.6186C26.5618 89.4223 26.4813 89.5426 26.3771 89.6619C26.2749 89.7794 26.1413 89.8769 25.9766 89.9545C25.8137 90.0322 25.6148 90.071 25.38 90.071ZM25.7635 89.108C25.9586 89.108 26.1233 89.0549 26.2578 88.9489C26.3942 88.8409 26.4983 88.6903 26.5703 88.4972C26.6442 88.304 26.6811 88.0777 26.6811 87.8182C26.6811 87.5587 26.6451 87.3333 26.5732 87.142C26.5012 86.9508 26.397 86.803 26.2607 86.6989C26.1243 86.5947 25.9586 86.5426 25.7635 86.5426C25.5646 86.5426 25.397 86.5966 25.2607 86.7045C25.1243 86.8125 25.0211 86.9621 24.951 87.1534C24.8809 87.3447 24.8459 87.5663 24.8459 87.8182C24.8459 88.072 24.8809 88.2964 24.951 88.4915C25.023 88.6847 25.1262 88.8362 25.2607 88.946C25.397 89.054 25.5646 89.108 25.7635 89.108ZM28.858 90V85.6364H30.0682V90H28.858ZM29.4659 85.0739C29.286 85.0739 29.1316 85.0142 29.0028 84.8949C28.8759 84.7737 28.8125 84.6288 28.8125 84.4602C28.8125 84.2936 28.8759 84.1506 29.0028 84.0312C29.1316 83.91 29.286 83.8494 29.4659 83.8494C29.6458 83.8494 29.7992 83.91 29.9261 84.0312C30.0549 84.1506 30.1193 84.2936 30.1193 84.4602C30.1193 84.6288 30.0549 84.7737 29.9261 84.8949C29.7992 85.0142 29.6458 85.0739 29.4659 85.0739ZM31.0376 90V85.6364H32.2109V86.3977H32.2564C32.3359 86.1269 32.4695 85.9223 32.657 85.7841C32.8445 85.6439 33.0604 85.5739 33.3047 85.5739C33.3653 85.5739 33.4306 85.5777 33.5007 85.5852C33.5708 85.5928 33.6323 85.6032 33.6854 85.6165V86.6903C33.6286 86.6733 33.55 86.6581 33.4496 86.6449C33.3492 86.6316 33.2573 86.625 33.174 86.625C32.996 86.625 32.8369 86.6638 32.6967 86.7415C32.5585 86.8172 32.4486 86.9233 32.3672 87.0597C32.2876 87.196 32.2479 87.3532 32.2479 87.5312V90H31.0376ZM36.0966 90.0852C35.6477 90.0852 35.2614 89.9943 34.9375 89.8125C34.6155 89.6288 34.3674 89.3693 34.1932 89.0341C34.0189 88.697 33.9318 88.2983 33.9318 87.8381C33.9318 87.3892 34.0189 86.9953 34.1932 86.6562C34.3674 86.3172 34.6127 86.053 34.929 85.8636C35.2472 85.6742 35.6203 85.5795 36.0483 85.5795C36.3362 85.5795 36.6042 85.6259 36.8523 85.7188C37.1023 85.8097 37.3201 85.947 37.5057 86.1307C37.6932 86.3144 37.839 86.5455 37.9432 86.8239C38.0473 87.1004 38.0994 87.4242 38.0994 87.7955V88.1278H34.4148V87.3778H36.9602C36.9602 87.2036 36.9223 87.0492 36.8466 86.9148C36.7708 86.7803 36.6657 86.6752 36.5312 86.5994C36.3987 86.5218 36.2443 86.483 36.0682 86.483C35.8845 86.483 35.7216 86.5256 35.5795 86.6108C35.4394 86.6941 35.3295 86.8068 35.25 86.9489C35.1705 87.089 35.1297 87.2453 35.1278 87.4176V88.1307C35.1278 88.3466 35.1676 88.5331 35.2472 88.6903C35.3286 88.8475 35.4432 88.9688 35.5909 89.054C35.7386 89.1392 35.9138 89.1818 36.1165 89.1818C36.2509 89.1818 36.3741 89.1629 36.4858 89.125C36.5975 89.0871 36.6932 89.0303 36.7727 88.9545C36.8523 88.8788 36.9129 88.786 36.9545 88.6761L38.0739 88.75C38.017 89.0189 37.9006 89.2538 37.7244 89.4545C37.5502 89.6534 37.3248 89.8087 37.0483 89.9205C36.7737 90.0303 36.4564 90.0852 36.0966 90.0852ZM40.8608 90.0852C40.4138 90.0852 40.0294 89.9905 39.7074 89.8011C39.3873 89.6098 39.1411 89.3447 38.9688 89.0057C38.7983 88.6667 38.7131 88.2765 38.7131 87.8352C38.7131 87.3883 38.7992 86.9962 38.9716 86.6591C39.1458 86.3201 39.393 86.0559 39.7131 85.8665C40.0331 85.6752 40.4138 85.5795 40.8551 85.5795C41.2358 85.5795 41.5691 85.6487 41.8551 85.7869C42.1411 85.9252 42.3674 86.1193 42.5341 86.3693C42.7008 86.6193 42.7926 86.9129 42.8097 87.25H41.6676C41.6354 87.0322 41.5502 86.857 41.4119 86.7244C41.2756 86.59 41.0966 86.5227 40.875 86.5227C40.6875 86.5227 40.5237 86.5739 40.3835 86.6761C40.2453 86.7765 40.1373 86.9233 40.0597 87.1165C39.982 87.3097 39.9432 87.5436 39.9432 87.8182C39.9432 88.0966 39.9811 88.3333 40.0568 88.5284C40.1345 88.7235 40.2434 88.8722 40.3835 88.9744C40.5237 89.0767 40.6875 89.1278 40.875 89.1278C41.0133 89.1278 41.1373 89.0994 41.2472 89.0426C41.3589 88.9858 41.4508 88.9034 41.5227 88.7955C41.5966 88.6856 41.6449 88.554 41.6676 88.4006H42.8097C42.7907 88.7339 42.6998 89.0275 42.5369 89.2812C42.3759 89.5331 42.1534 89.7301 41.8693 89.8722C41.5852 90.0142 41.2491 90.0852 40.8608 90.0852ZM45.9055 85.6364V86.5455H43.2777V85.6364H45.9055ZM43.8743 84.5909H45.0845V88.6591C45.0845 88.7708 45.1016 88.858 45.1357 88.9205C45.1697 88.9811 45.2171 89.0237 45.2777 89.0483C45.3402 89.0729 45.4122 89.0852 45.4936 89.0852C45.5504 89.0852 45.6072 89.0805 45.6641 89.071C45.7209 89.0597 45.7644 89.0511 45.7947 89.0455L45.9851 89.946C45.9245 89.965 45.8393 89.9867 45.7294 90.0114C45.6196 90.0379 45.486 90.054 45.3288 90.0597C45.0372 90.071 44.7815 90.0322 44.5618 89.9432C44.344 89.8542 44.1745 89.7159 44.0533 89.5284C43.9321 89.3409 43.8724 89.1042 43.8743 88.8182V84.5909ZM46.6939 90V85.6364H47.9041V90H46.6939ZM47.3018 85.0739C47.1219 85.0739 46.9676 85.0142 46.8388 84.8949C46.7119 84.7737 46.6484 84.6288 46.6484 84.4602C46.6484 84.2936 46.7119 84.1506 46.8388 84.0312C46.9676 83.91 47.1219 83.8494 47.3018 83.8494C47.4818 83.8494 47.6352 83.91 47.7621 84.0312C47.8909 84.1506 47.9553 84.2936 47.9553 84.4602C47.9553 84.6288 47.8909 84.7737 47.7621 84.8949C47.6352 85.0142 47.4818 85.0739 47.3018 85.0739ZM52.9418 85.6364L51.4162 90H50.0526L48.527 85.6364H49.8054L50.7116 88.7585H50.7571L51.6605 85.6364H52.9418ZM55.4091 90.0852C54.9602 90.0852 54.5739 89.9943 54.25 89.8125C53.928 89.6288 53.6799 89.3693 53.5057 89.0341C53.3314 88.697 53.2443 88.2983 53.2443 87.8381C53.2443 87.3892 53.3314 86.9953 53.5057 86.6562C53.6799 86.3172 53.9252 86.053 54.2415 85.8636C54.5597 85.6742 54.9328 85.5795 55.3608 85.5795C55.6487 85.5795 55.9167 85.6259 56.1648 85.7188C56.4148 85.8097 56.6326 85.947 56.8182 86.1307C57.0057 86.3144 57.1515 86.5455 57.2557 86.8239C57.3598 87.1004 57.4119 87.4242 57.4119 87.7955V88.1278H53.7273V87.3778H56.2727C56.2727 87.2036 56.2348 87.0492 56.1591 86.9148C56.0833 86.7803 55.9782 86.6752 55.8438 86.5994C55.7112 86.5218 55.5568 86.483 55.3807 86.483C55.197 86.483 55.0341 86.5256 54.892 86.6108C54.7519 86.6941 54.642 86.8068 54.5625 86.9489C54.483 87.089 54.4422 87.2453 54.4403 87.4176V88.1307C54.4403 88.3466 54.4801 88.5331 54.5597 88.6903C54.6411 88.8475 54.7557 88.9688 54.9034 89.054C55.0511 89.1392 55.2263 89.1818 55.429 89.1818C55.5634 89.1818 55.6866 89.1629 55.7983 89.125C55.91 89.0871 56.0057 89.0303 56.0852 88.9545C56.1648 88.8788 56.2254 88.786 56.267 88.6761L57.3864 88.75C57.3295 89.0189 57.2131 89.2538 57.0369 89.4545C56.8627 89.6534 56.6373 89.8087 56.3608 89.9205C56.0862 90.0303 55.7689 90.0852 55.4091 90.0852ZM61.8324 86.8807L60.7244 86.9489C60.7055 86.8542 60.6648 86.7689 60.6023 86.6932C60.5398 86.6155 60.4574 86.554 60.3551 86.5085C60.2547 86.4612 60.1345 86.4375 59.9943 86.4375C59.8068 86.4375 59.6487 86.4773 59.5199 86.5568C59.3911 86.6345 59.3267 86.7386 59.3267 86.8693C59.3267 86.9735 59.3684 87.0616 59.4517 87.1335C59.535 87.2055 59.678 87.2633 59.8807 87.3068L60.6705 87.4659C61.0947 87.553 61.411 87.6932 61.6193 87.8864C61.8277 88.0795 61.9318 88.3333 61.9318 88.6477C61.9318 88.9337 61.8475 89.1847 61.679 89.4006C61.5123 89.6165 61.2831 89.785 60.9915 89.9062C60.7017 90.0256 60.3674 90.0852 59.9886 90.0852C59.411 90.0852 58.9508 89.965 58.608 89.7244C58.267 89.482 58.0672 89.1525 58.0085 88.7358L59.1989 88.6733C59.2348 88.8494 59.322 88.9839 59.4602 89.0767C59.5985 89.1676 59.7756 89.2131 59.9915 89.2131C60.2036 89.2131 60.3741 89.1723 60.5028 89.0909C60.6335 89.0076 60.6998 88.9006 60.7017 88.7699C60.6998 88.66 60.6534 88.5701 60.5625 88.5C60.4716 88.428 60.3314 88.3731 60.142 88.3352L59.3864 88.1847C58.9602 88.0994 58.643 87.9517 58.4347 87.7415C58.2282 87.5312 58.125 87.2633 58.125 86.9375C58.125 86.6572 58.2008 86.4157 58.3523 86.2131C58.5057 86.0104 58.7206 85.8542 58.9972 85.7443C59.2756 85.6345 59.6013 85.5795 59.9744 85.5795C60.5256 85.5795 60.9593 85.696 61.2756 85.929C61.5938 86.1619 61.7794 86.4792 61.8324 86.8807ZM63.7337 88.2557V88.1591C63.7356 87.8277 63.7649 87.5634 63.8217 87.3665C63.8804 87.1695 63.9657 87.0104 64.0774 86.8892C64.1892 86.768 64.3236 86.6581 64.4808 86.5597C64.5982 86.4839 64.7034 86.4053 64.7962 86.3239C64.889 86.2424 64.9628 86.1525 65.0178 86.054C65.0727 85.9536 65.1001 85.8419 65.1001 85.7188C65.1001 85.5881 65.0689 85.4735 65.0064 85.375C64.9439 85.2765 64.8596 85.2008 64.7536 85.1477C64.6494 85.0947 64.5339 85.0682 64.407 85.0682C64.2839 85.0682 64.1674 85.0956 64.0575 85.1506C63.9477 85.2036 63.8577 85.2831 63.7876 85.3892C63.7176 85.4934 63.6797 85.6231 63.674 85.7784H62.5149C62.5244 85.3996 62.6153 85.0871 62.7876 84.8409C62.96 84.5928 63.1882 84.4081 63.4723 84.2869C63.7564 84.1638 64.0698 84.1023 64.4126 84.1023C64.7895 84.1023 65.1229 84.1648 65.4126 84.2898C65.7024 84.4129 65.9297 84.5919 66.0945 84.8267C66.2592 85.0616 66.3416 85.3447 66.3416 85.6761C66.3416 85.8977 66.3047 86.0947 66.2308 86.267C66.1589 86.4375 66.0575 86.589 65.9268 86.7216C65.7962 86.8523 65.6418 86.9706 65.4638 87.0767C65.3142 87.1657 65.1911 87.2585 65.0945 87.3551C64.9998 87.4517 64.9287 87.5634 64.8814 87.6903C64.8359 87.8172 64.8123 87.9735 64.8104 88.1591V88.2557H63.7337ZM64.2962 90.0739C64.1068 90.0739 63.9448 90.0076 63.8104 89.875C63.6778 89.7405 63.6125 89.5795 63.6143 89.392C63.6125 89.2064 63.6778 89.0473 63.8104 88.9148C63.9448 88.7822 64.1068 88.7159 64.2962 88.7159C64.4761 88.7159 64.6342 88.7822 64.7706 88.9148C64.907 89.0473 64.9761 89.2064 64.978 89.392C64.9761 89.517 64.9429 89.6316 64.8786 89.7358C64.8161 89.8381 64.7337 89.9205 64.6314 89.983C64.5291 90.0436 64.4174 90.0739 64.2962 90.0739Z" fill="white"/>
<g filter="url(#filter2_d_1_2)">
<rect y="130" width="76" height="25" rx="2" fill="#2B333B"/>
<rect x="0.5" y="130.5" width="75" height="24" rx="1.5" stroke="#151F28"/>
</g>
<path d="M9.43146 145V139.182H11.7269C12.1682 139.182 12.5442 139.266 12.8548 139.435C13.1654 139.601 13.4021 139.833 13.565 140.131C13.7298 140.426 13.8121 140.767 13.8121 141.153C13.8121 141.54 13.7288 141.881 13.5621 142.176C13.3955 142.472 13.154 142.702 12.8377 142.866C12.5233 143.031 12.1426 143.114 11.6957 143.114H10.2326V142.128H11.4968C11.7335 142.128 11.9286 142.087 12.082 142.006C12.2373 141.922 12.3529 141.808 12.4286 141.662C12.5063 141.514 12.5451 141.345 12.5451 141.153C12.5451 140.96 12.5063 140.792 12.4286 140.648C12.3529 140.502 12.2373 140.389 12.082 140.31C11.9267 140.228 11.7298 140.188 11.4911 140.188H10.6616V145H9.43146ZM16.5067 145.085C16.0579 145.085 15.6715 144.994 15.3477 144.812C15.0257 144.629 14.7776 144.369 14.6033 144.034C14.4291 143.697 14.342 143.298 14.342 142.838C14.342 142.389 14.4291 141.995 14.6033 141.656C14.7776 141.317 15.0228 141.053 15.3391 140.864C15.6573 140.674 16.0304 140.58 16.4585 140.58C16.7463 140.58 17.0143 140.626 17.2624 140.719C17.5124 140.81 17.7302 140.947 17.9158 141.131C18.1033 141.314 18.2492 141.545 18.3533 141.824C18.4575 142.1 18.5096 142.424 18.5096 142.795V143.128H14.8249V142.378H17.3704C17.3704 142.204 17.3325 142.049 17.2567 141.915C17.181 141.78 17.0759 141.675 16.9414 141.599C16.8088 141.522 16.6545 141.483 16.4783 141.483C16.2946 141.483 16.1317 141.526 15.9897 141.611C15.8496 141.694 15.7397 141.807 15.6602 141.949C15.5806 142.089 15.5399 142.245 15.538 142.418V143.131C15.538 143.347 15.5778 143.533 15.6573 143.69C15.7388 143.848 15.8533 143.969 16.0011 144.054C16.1488 144.139 16.324 144.182 16.5266 144.182C16.6611 144.182 16.7842 144.163 16.896 144.125C17.0077 144.087 17.1033 144.03 17.1829 143.955C17.2624 143.879 17.323 143.786 17.3647 143.676L18.484 143.75C18.4272 144.019 18.3107 144.254 18.1346 144.455C17.9603 144.653 17.735 144.809 17.4585 144.92C17.1838 145.03 16.8666 145.085 16.5067 145.085ZM19.2994 145V140.636H20.4727V141.398H20.5181C20.5977 141.127 20.7312 140.922 20.9187 140.784C21.1062 140.644 21.3221 140.574 21.5664 140.574C21.627 140.574 21.6924 140.578 21.7624 140.585C21.8325 140.593 21.8941 140.603 21.9471 140.616V141.69C21.8903 141.673 21.8117 141.658 21.7113 141.645C21.6109 141.632 21.5191 141.625 21.4357 141.625C21.2577 141.625 21.0986 141.664 20.9585 141.741C20.8202 141.817 20.7103 141.923 20.6289 142.06C20.5494 142.196 20.5096 142.353 20.5096 142.531V145H19.2994ZM25.1381 140.636V141.545H22.445V140.636H25.1381ZM23.0614 145V140.321C23.0614 140.005 23.123 139.742 23.2461 139.534C23.3711 139.326 23.5415 139.17 23.7575 139.065C23.9734 138.961 24.2186 138.909 24.4933 138.909C24.6789 138.909 24.8484 138.923 25.0018 138.952C25.1571 138.98 25.2726 139.006 25.3484 139.028L25.1325 139.938C25.0851 139.922 25.0264 139.908 24.9563 139.895C24.8881 139.882 24.8181 139.875 24.7461 139.875C24.5681 139.875 24.444 139.917 24.3739 140C24.3039 140.081 24.2688 140.196 24.2688 140.344V145H23.0614ZM27.6928 145.085C27.2515 145.085 26.8699 144.991 26.5479 144.804C26.2279 144.615 25.9807 144.351 25.8065 144.014C25.6322 143.675 25.5451 143.282 25.5451 142.835C25.5451 142.384 25.6322 141.991 25.8065 141.653C25.9807 141.314 26.2279 141.051 26.5479 140.864C26.8699 140.674 27.2515 140.58 27.6928 140.58C28.1341 140.58 28.5148 140.674 28.8349 140.864C29.1568 141.051 29.4049 141.314 29.5792 141.653C29.7534 141.991 29.8406 142.384 29.8406 142.835C29.8406 143.282 29.7534 143.675 29.5792 144.014C29.4049 144.351 29.1568 144.615 28.8349 144.804C28.5148 144.991 28.1341 145.085 27.6928 145.085ZM27.6985 144.148C27.8993 144.148 28.0669 144.091 28.2013 143.977C28.3358 143.862 28.4371 143.705 28.5053 143.506C28.5754 143.307 28.6104 143.08 28.6104 142.827C28.6104 142.573 28.5754 142.347 28.5053 142.148C28.4371 141.949 28.3358 141.792 28.2013 141.676C28.0669 141.561 27.8993 141.503 27.6985 141.503C27.4959 141.503 27.3254 141.561 27.1871 141.676C27.0508 141.792 26.9476 141.949 26.8775 142.148C26.8093 142.347 26.7752 142.573 26.7752 142.827C26.7752 143.08 26.8093 143.307 26.8775 143.506C26.9476 143.705 27.0508 143.862 27.1871 143.977C27.3254 144.091 27.4959 144.148 27.6985 144.148ZM30.6275 145V140.636H31.8008V141.398H31.8462C31.9258 141.127 32.0593 140.922 32.2468 140.784C32.4343 140.644 32.6502 140.574 32.8945 140.574C32.9551 140.574 33.0205 140.578 33.0906 140.585C33.1606 140.593 33.2222 140.603 33.2752 140.616V141.69C33.2184 141.673 33.1398 141.658 33.0394 141.645C32.939 141.632 32.8472 141.625 32.7638 141.625C32.5858 141.625 32.4267 141.664 32.2866 141.741C32.1483 141.817 32.0385 141.923 31.957 142.06C31.8775 142.196 31.8377 142.353 31.8377 142.531V145H30.6275ZM33.9009 145V140.636H35.0543V141.406H35.1055C35.1964 141.151 35.3479 140.949 35.56 140.801C35.7721 140.653 36.0259 140.58 36.3214 140.58C36.6206 140.58 36.8754 140.654 37.0856 140.804C37.2958 140.952 37.436 141.152 37.506 141.406H37.5515C37.6405 141.156 37.8015 140.956 38.0344 140.807C38.2693 140.655 38.5468 140.58 38.8668 140.58C39.274 140.58 39.6045 140.709 39.8583 140.969C40.114 141.226 40.2418 141.592 40.2418 142.065V145H39.0344V142.304C39.0344 142.062 38.9701 141.88 38.8413 141.759C38.7125 141.637 38.5515 141.577 38.3583 141.577C38.1386 141.577 37.9672 141.647 37.8441 141.787C37.721 141.925 37.6594 142.108 37.6594 142.335V145H36.4862V142.278C36.4862 142.064 36.4246 141.894 36.3015 141.767C36.1803 141.64 36.0202 141.577 35.8214 141.577C35.6869 141.577 35.5657 141.611 35.4577 141.679C35.3517 141.745 35.2674 141.839 35.2049 141.96C35.1424 142.08 35.1112 142.22 35.1112 142.381V145H33.9009ZM44.2937 145.082C44.0153 145.082 43.7672 145.034 43.5494 144.938C43.3316 144.839 43.1592 144.694 43.0323 144.503C42.9073 144.31 42.8448 144.069 42.8448 143.781C42.8448 143.539 42.8893 143.335 42.9783 143.17C43.0674 143.006 43.1886 142.873 43.342 142.773C43.4954 142.672 43.6696 142.597 43.8647 142.545C44.0617 142.494 44.2681 142.458 44.484 142.438C44.7378 142.411 44.9424 142.386 45.0977 142.364C45.253 142.339 45.3656 142.303 45.4357 142.256C45.5058 142.208 45.5408 142.138 45.5408 142.045V142.028C45.5408 141.848 45.484 141.709 45.3704 141.611C45.2586 141.512 45.0996 141.463 44.8931 141.463C44.6753 141.463 44.502 141.511 44.3732 141.608C44.2444 141.703 44.1592 141.822 44.1175 141.966L42.9982 141.875C43.055 141.61 43.1668 141.381 43.3335 141.188C43.5001 140.992 43.7151 140.843 43.9783 140.739C44.2435 140.633 44.5503 140.58 44.8988 140.58C45.1412 140.58 45.3732 140.608 45.5948 140.665C45.8183 140.722 46.0162 140.81 46.1886 140.929C46.3628 141.048 46.5001 141.202 46.6005 141.389C46.7009 141.575 46.7511 141.797 46.7511 142.057V145H45.6033V144.395H45.5692C45.4992 144.531 45.4054 144.652 45.288 144.756C45.1706 144.858 45.0295 144.938 44.8647 144.997C44.6999 145.054 44.5096 145.082 44.2937 145.082ZM44.6403 144.247C44.8183 144.247 44.9755 144.212 45.1119 144.142C45.2482 144.07 45.3552 143.973 45.4329 143.852C45.5105 143.731 45.5494 143.594 45.5494 143.44V142.977C45.5115 143.002 45.4594 143.025 45.3931 143.045C45.3287 143.064 45.2558 143.082 45.1744 143.099C45.0929 143.115 45.0115 143.129 44.93 143.142C44.8486 143.153 44.7747 143.164 44.7085 143.173C44.5664 143.194 44.4424 143.227 44.3363 143.273C44.2302 143.318 44.1478 143.38 44.0891 143.457C44.0304 143.533 44.0011 143.628 44.0011 143.741C44.0011 143.906 44.0607 144.032 44.18 144.119C44.3013 144.205 44.4547 144.247 44.6403 144.247ZM49.6616 145.085C49.2146 145.085 48.8301 144.991 48.5082 144.801C48.1881 144.61 47.9419 144.345 47.7695 144.006C47.5991 143.667 47.5138 143.277 47.5138 142.835C47.5138 142.388 47.6 141.996 47.7724 141.659C47.9466 141.32 48.1938 141.056 48.5138 140.866C48.8339 140.675 49.2146 140.58 49.6559 140.58C50.0366 140.58 50.3699 140.649 50.6559 140.787C50.9419 140.925 51.1682 141.119 51.3349 141.369C51.5015 141.619 51.5934 141.913 51.6104 142.25H50.4684C50.4362 142.032 50.351 141.857 50.2127 141.724C50.0763 141.59 49.8974 141.523 49.6758 141.523C49.4883 141.523 49.3245 141.574 49.1843 141.676C49.046 141.777 48.9381 141.923 48.8604 142.116C48.7828 142.31 48.744 142.544 48.744 142.818C48.744 143.097 48.7818 143.333 48.8576 143.528C48.9353 143.723 49.0442 143.872 49.1843 143.974C49.3245 144.077 49.4883 144.128 49.6758 144.128C49.814 144.128 49.9381 144.099 50.0479 144.043C50.1597 143.986 50.2515 143.903 50.3235 143.795C50.3974 143.686 50.4457 143.554 50.4684 143.401H51.6104C51.5915 143.734 51.5006 144.027 51.3377 144.281C51.1767 144.533 50.9542 144.73 50.6701 144.872C50.386 145.014 50.0498 145.085 49.6616 145.085ZM54.7063 140.636V141.545H52.0785V140.636H54.7063ZM52.6751 139.591H53.8853V143.659C53.8853 143.771 53.9023 143.858 53.9364 143.92C53.9705 143.981 54.0179 144.024 54.0785 144.048C54.141 144.073 54.2129 144.085 54.2944 144.085C54.3512 144.085 54.408 144.08 54.4648 144.071C54.5217 144.06 54.5652 144.051 54.5955 144.045L54.7859 144.946C54.7253 144.965 54.64 144.987 54.5302 145.011C54.4203 145.038 54.2868 145.054 54.1296 145.06C53.8379 145.071 53.5823 145.032 53.3626 144.943C53.1448 144.854 52.9753 144.716 52.854 144.528C52.7328 144.341 52.6732 144.104 52.6751 143.818V139.591ZM55.4947 145V140.636H56.7049V145H55.4947ZM56.1026 140.074C55.9227 140.074 55.7683 140.014 55.6396 139.895C55.5127 139.774 55.4492 139.629 55.4492 139.46C55.4492 139.294 55.5127 139.151 55.6396 139.031C55.7683 138.91 55.9227 138.849 56.1026 138.849C56.2826 138.849 56.436 138.91 56.5629 139.031C56.6916 139.151 56.756 139.294 56.756 139.46C56.756 139.629 56.6916 139.774 56.5629 139.895C56.436 140.014 56.2826 140.074 56.1026 140.074ZM59.646 145.085C59.2047 145.085 58.823 144.991 58.5011 144.804C58.181 144.615 57.9338 144.351 57.7596 144.014C57.5853 143.675 57.4982 143.282 57.4982 142.835C57.4982 142.384 57.5853 141.991 57.7596 141.653C57.9338 141.314 58.181 141.051 58.5011 140.864C58.823 140.674 59.2047 140.58 59.646 140.58C60.0872 140.58 60.4679 140.674 60.788 140.864C61.11 141.051 61.3581 141.314 61.5323 141.653C61.7066 141.991 61.7937 142.384 61.7937 142.835C61.7937 143.282 61.7066 143.675 61.5323 144.014C61.3581 144.351 61.11 144.615 60.788 144.804C60.4679 144.991 60.0872 145.085 59.646 145.085ZM59.6516 144.148C59.8524 144.148 60.02 144.091 60.1545 143.977C60.2889 143.862 60.3903 143.705 60.4585 143.506C60.5285 143.307 60.5636 143.08 60.5636 142.827C60.5636 142.573 60.5285 142.347 60.4585 142.148C60.3903 141.949 60.2889 141.792 60.1545 141.676C60.02 141.561 59.8524 141.503 59.6516 141.503C59.449 141.503 59.2785 141.561 59.1403 141.676C59.0039 141.792 58.9007 141.949 58.8306 142.148C58.7624 142.347 58.7283 142.573 58.7283 142.827C58.7283 143.08 58.7624 143.307 58.8306 143.506C58.9007 143.705 59.0039 143.862 59.1403 143.977C59.2785 144.091 59.449 144.148 59.6516 144.148ZM63.7908 142.477V145H62.5806V140.636H63.734V141.406H63.7852C63.8817 141.152 64.0437 140.952 64.271 140.804C64.4982 140.654 64.7738 140.58 65.0977 140.58C65.4007 140.58 65.6649 140.646 65.8903 140.778C66.1156 140.911 66.2908 141.1 66.4158 141.347C66.5408 141.591 66.6033 141.883 66.6033 142.222V145H65.3931V142.438C65.395 142.17 65.3268 141.962 65.1886 141.812C65.0503 141.661 64.86 141.585 64.6175 141.585C64.4547 141.585 64.3107 141.62 64.1857 141.69C64.0626 141.76 63.966 141.863 63.896 141.997C63.8278 142.13 63.7927 142.29 63.7908 142.477Z" fill="white"/>
<path d="M15.815 110.636H16.8484L17.8434 112.516H17.886L18.881 110.636H19.9144L18.3228 113.457V115H17.4066V113.457L15.815 110.636ZM21.2072 115.064C20.8706 115.064 20.5808 114.996 20.3379 114.859C20.0964 114.722 19.9103 114.527 19.7797 114.276C19.649 114.023 19.5836 113.724 19.5836 113.379C19.5836 113.042 19.649 112.746 19.7797 112.492C19.9103 112.238 20.0943 112.04 20.3315 111.898C20.5701 111.756 20.85 111.685 21.171 111.685C21.3869 111.685 21.5879 111.719 21.774 111.789C21.9615 111.857 22.1248 111.96 22.264 112.098C22.4047 112.236 22.514 112.409 22.5922 112.618C22.6703 112.825 22.7093 113.068 22.7093 113.347V113.596H19.9458V113.033H21.8549C21.8549 112.903 21.8265 112.787 21.7697 112.686C21.7129 112.585 21.6341 112.506 21.5332 112.45C21.4338 112.391 21.318 112.362 21.1859 112.362C21.0481 112.362 20.926 112.394 20.8194 112.458C20.7143 112.521 20.6319 112.605 20.5723 112.712C20.5126 112.817 20.4821 112.934 20.4806 113.063V113.598C20.4806 113.76 20.5105 113.9 20.5701 114.018C20.6312 114.136 20.7172 114.227 20.8279 114.29C20.9387 114.354 21.0701 114.386 21.2221 114.386C21.323 114.386 21.4153 114.372 21.4991 114.344C21.5829 114.315 21.6547 114.273 21.7143 114.216C21.774 114.159 21.8194 114.089 21.8507 114.007L22.6902 114.062C22.6475 114.264 22.5602 114.44 22.4281 114.591C22.2974 114.74 22.1284 114.857 21.921 114.94C21.715 115.023 21.4771 115.064 21.2072 115.064ZM26.0247 112.661L25.1937 112.712C25.1795 112.641 25.149 112.577 25.1021 112.52C25.0552 112.462 24.9934 112.415 24.9167 112.381C24.8414 112.346 24.7512 112.328 24.6461 112.328C24.5055 112.328 24.3869 112.358 24.2903 112.418C24.1937 112.476 24.1454 112.554 24.1454 112.652C24.1454 112.73 24.1767 112.796 24.2392 112.85C24.3017 112.904 24.4089 112.947 24.5609 112.98L25.1532 113.099C25.4714 113.165 25.7086 113.27 25.8649 113.415C26.0211 113.56 26.0993 113.75 26.0993 113.986C26.0993 114.2 26.036 114.388 25.9096 114.55C25.7846 114.712 25.6127 114.839 25.394 114.93C25.1767 115.019 24.926 115.064 24.6419 115.064C24.2086 115.064 23.8635 114.974 23.6064 114.793C23.3507 114.612 23.2008 114.364 23.1568 114.052L24.0495 114.005C24.0765 114.137 24.1419 114.238 24.2456 114.308C24.3493 114.376 24.4821 114.41 24.644 114.41C24.8031 114.41 24.9309 114.379 25.0275 114.318C25.1255 114.256 25.1752 114.175 25.1767 114.077C25.1752 113.995 25.1404 113.928 25.0723 113.875C25.0041 113.821 24.899 113.78 24.7569 113.751L24.1902 113.638C23.8706 113.575 23.6326 113.464 23.4764 113.306C23.3216 113.148 23.2441 112.947 23.2441 112.703C23.2441 112.493 23.301 112.312 23.4146 112.16C23.5297 112.008 23.6909 111.891 23.8983 111.808C24.1071 111.726 24.3514 111.685 24.6312 111.685C25.0446 111.685 25.3699 111.772 25.6071 111.947C25.8457 112.121 25.9849 112.359 26.0247 112.661Z" fill="white"/>
<path d="M112.983 68.6364V73H112.186L110.288 70.2536H110.256V73H109.333V68.6364H110.143L112.027 71.3807H112.065V68.6364H112.983ZM115.207 73.0639C114.876 73.0639 114.59 72.9936 114.348 72.853C114.108 72.7109 113.923 72.5135 113.792 72.2607C113.662 72.0064 113.596 71.7116 113.596 71.3764C113.596 71.0384 113.662 70.7429 113.792 70.4901C113.923 70.2358 114.108 70.0384 114.348 69.8977C114.59 69.7557 114.876 69.6847 115.207 69.6847C115.538 69.6847 115.824 69.7557 116.064 69.8977C116.305 70.0384 116.491 70.2358 116.622 70.4901C116.753 70.7429 116.818 71.0384 116.818 71.3764C116.818 71.7116 116.753 72.0064 116.622 72.2607C116.491 72.5135 116.305 72.7109 116.064 72.853C115.824 72.9936 115.538 73.0639 115.207 73.0639ZM115.211 72.3608C115.362 72.3608 115.488 72.3182 115.589 72.233C115.689 72.1463 115.765 72.0284 115.816 71.8793C115.869 71.7301 115.895 71.5604 115.895 71.37C115.895 71.1797 115.869 71.0099 115.816 70.8608C115.765 70.7116 115.689 70.5937 115.589 70.5071C115.488 70.4205 115.362 70.3771 115.211 70.3771C115.059 70.3771 114.932 70.4205 114.828 70.5071C114.726 70.5937 114.648 70.7116 114.596 70.8608C114.544 71.0099 114.519 71.1797 114.519 71.37C114.519 71.5604 114.544 71.7301 114.596 71.8793C114.648 72.0284 114.726 72.1463 114.828 72.233C114.932 72.3182 115.059 72.3608 115.211 72.3608Z" fill="white"/>
<path d="M227.603 70.8182C227.603 71.294 227.513 71.6989 227.332 72.0327C227.153 72.3665 226.909 72.6214 226.6 72.7976C226.291 72.9723 225.945 73.0597 225.56 73.0597C225.172 73.0597 224.824 72.9716 224.516 72.7955C224.207 72.6193 223.964 72.3643 223.785 72.0305C223.606 71.6967 223.516 71.2926 223.516 70.8182C223.516 70.3423 223.606 69.9375 223.785 69.6037C223.964 69.2699 224.207 69.0156 224.516 68.8409C224.824 68.6648 225.172 68.5767 225.56 68.5767C225.945 68.5767 226.291 68.6648 226.6 68.8409C226.909 69.0156 227.153 69.2699 227.332 69.6037C227.513 69.9375 227.603 70.3423 227.603 70.8182ZM226.668 70.8182C226.668 70.5099 226.622 70.25 226.529 70.0384C226.438 69.8267 226.31 69.6662 226.144 69.5568C225.977 69.4474 225.783 69.3928 225.56 69.3928C225.337 69.3928 225.142 69.4474 224.976 69.5568C224.81 69.6662 224.68 69.8267 224.588 70.0384C224.497 70.25 224.452 70.5099 224.452 70.8182C224.452 71.1264 224.497 71.3864 224.588 71.598C224.68 71.8097 224.81 71.9702 224.976 72.0795C225.142 72.1889 225.337 72.2436 225.56 72.2436C225.783 72.2436 225.977 72.1889 226.144 72.0795C226.31 71.9702 226.438 71.8097 226.529 71.598C226.622 71.3864 226.668 71.1264 226.668 70.8182ZM228.286 73V68.6364H229.194V70.277H229.222C229.262 70.1889 229.319 70.0994 229.394 70.0085C229.471 69.9162 229.571 69.8395 229.693 69.7784C229.816 69.7159 229.97 69.6847 230.153 69.6847C230.392 69.6847 230.612 69.7472 230.813 69.8722C231.015 69.9957 231.176 70.1825 231.297 70.4325C231.418 70.6811 231.478 70.9929 231.478 71.3679C231.478 71.733 231.419 72.0412 231.301 72.2926C231.185 72.5426 231.026 72.7322 230.824 72.8615C230.624 72.9893 230.399 73.0533 230.151 73.0533C229.975 73.0533 229.825 73.0241 229.701 72.9659C229.579 72.9077 229.479 72.8345 229.401 72.7464C229.323 72.657 229.263 72.5668 229.222 72.4759H229.181V73H228.286ZM229.175 71.3636C229.175 71.5582 229.202 71.728 229.256 71.8729C229.31 72.0178 229.388 72.1307 229.49 72.2116C229.593 72.2912 229.717 72.331 229.863 72.331C230.011 72.331 230.136 72.2905 230.238 72.2095C230.34 72.1271 230.418 72.0135 230.47 71.8686C230.524 71.7223 230.551 71.554 230.551 71.3636C230.551 71.1747 230.525 71.0085 230.473 70.8651C230.42 70.7216 230.343 70.6094 230.24 70.5284C230.138 70.4474 230.012 70.407 229.863 70.407C229.715 70.407 229.59 70.446 229.488 70.5241C229.387 70.6023 229.31 70.7131 229.256 70.8565C229.202 71 229.175 71.169 229.175 71.3636ZM232.084 69.7273H232.992V73.1619C232.992 73.4148 232.942 73.6193 232.842 73.7756C232.743 73.9318 232.6 74.0462 232.414 74.1186C232.229 74.1911 232.009 74.2273 231.752 74.2273C231.72 74.2273 231.69 74.2266 231.662 74.2251C231.632 74.2251 231.601 74.2244 231.568 74.223V73.5135C231.592 73.5149 231.614 73.5156 231.632 73.5156C231.649 73.517 231.668 73.5178 231.688 73.5178C231.834 73.5178 231.936 73.4865 231.994 73.424C232.054 73.3629 232.084 73.2706 232.084 73.147V69.7273ZM232.536 69.3054C232.402 69.3054 232.287 69.2607 232.19 69.1712C232.094 69.0803 232.046 68.9716 232.046 68.8452C232.046 68.7202 232.094 68.6129 232.19 68.5234C232.287 68.4325 232.402 68.3871 232.536 68.3871C232.672 68.3871 232.788 68.4325 232.883 68.5234C232.979 68.6129 233.028 68.7202 233.028 68.8452C233.028 68.9716 232.979 69.0803 232.883 69.1712C232.788 69.2607 232.672 69.3054 232.536 69.3054ZM235.21 73.0639C234.873 73.0639 234.584 72.9957 234.341 72.8594C234.099 72.7216 233.913 72.527 233.783 72.2756C233.652 72.0227 233.587 71.7237 233.587 71.3786C233.587 71.0419 233.652 70.7464 233.783 70.4922C233.913 70.2379 234.097 70.0398 234.334 69.8977C234.573 69.7557 234.853 69.6847 235.174 69.6847C235.39 69.6847 235.591 69.7195 235.777 69.7891C235.964 69.8572 236.128 69.9602 236.267 70.098C236.408 70.2358 236.517 70.4091 236.595 70.6179C236.673 70.8253 236.712 71.0682 236.712 71.3466V71.5959H233.949V71.0334H235.858C235.858 70.9027 235.829 70.7869 235.773 70.6861C235.716 70.5852 235.637 70.5064 235.536 70.4496C235.437 70.3913 235.321 70.3622 235.189 70.3622C235.051 70.3622 234.929 70.3942 234.822 70.4581C234.717 70.5206 234.635 70.6051 234.575 70.7116C234.516 70.8168 234.485 70.9339 234.484 71.0632V71.598C234.484 71.7599 234.513 71.8999 234.573 72.0178C234.634 72.1357 234.72 72.2266 234.831 72.2905C234.942 72.3544 235.073 72.3864 235.225 72.3864C235.326 72.3864 235.418 72.3722 235.502 72.3438C235.586 72.3153 235.658 72.2727 235.717 72.2159C235.777 72.1591 235.822 72.0895 235.854 72.0071L236.693 72.0625C236.65 72.2642 236.563 72.4403 236.431 72.5909C236.3 72.7401 236.131 72.8565 235.924 72.9403C235.718 73.0227 235.48 73.0639 235.21 73.0639ZM238.783 73.0639C238.448 73.0639 238.16 72.9929 237.918 72.8509C237.678 72.7074 237.494 72.5085 237.364 72.2543C237.236 72 237.172 71.7074 237.172 71.3764C237.172 71.0412 237.237 70.7472 237.366 70.4943C237.497 70.2401 237.682 70.0419 237.922 69.8999C238.163 69.7564 238.448 69.6847 238.779 69.6847C239.065 69.6847 239.315 69.7365 239.529 69.8402C239.744 69.9439 239.913 70.0895 240.038 70.277C240.163 70.4645 240.232 70.6847 240.245 70.9375H239.388C239.364 70.7741 239.3 70.6428 239.197 70.5433C239.094 70.4425 238.96 70.392 238.794 70.392C238.653 70.392 238.53 70.4304 238.425 70.5071C238.322 70.5824 238.241 70.6925 238.182 70.8374C238.124 70.9822 238.095 71.1577 238.095 71.3636C238.095 71.5724 238.123 71.75 238.18 71.8963C238.239 72.0426 238.32 72.1541 238.425 72.2308C238.53 72.3075 238.653 72.3459 238.794 72.3459C238.898 72.3459 238.991 72.3246 239.073 72.282C239.157 72.2393 239.226 72.1776 239.28 72.0966C239.335 72.0142 239.371 71.9155 239.388 71.8004H240.245C240.231 72.0504 240.163 72.2706 240.04 72.4609C239.92 72.6499 239.753 72.7976 239.54 72.9041C239.327 73.0107 239.074 73.0639 238.783 73.0639ZM242.567 69.7273V70.4091H240.596V69.7273H242.567ZM241.043 68.9432H241.951V71.9943C241.951 72.0781 241.964 72.1435 241.989 72.1903C242.015 72.2358 242.051 72.2678 242.096 72.2862C242.143 72.3047 242.197 72.3139 242.258 72.3139C242.301 72.3139 242.343 72.3104 242.386 72.3033C242.428 72.2947 242.461 72.2884 242.484 72.2841L242.627 72.9595C242.581 72.9737 242.517 72.9901 242.435 73.0085C242.352 73.0284 242.252 73.0405 242.134 73.0447C241.916 73.0533 241.724 73.0241 241.559 72.9574C241.396 72.8906 241.269 72.7869 241.178 72.6463C241.087 72.5057 241.042 72.3281 241.043 72.1136V68.9432ZM246.025 73.0639C245.69 73.0639 245.402 72.9929 245.16 72.8509C244.92 72.7074 244.736 72.5085 244.606 72.2543C244.479 72 244.415 71.7074 244.415 71.3764C244.415 71.0412 244.479 70.7472 244.609 70.4943C244.739 70.2401 244.925 70.0419 245.165 69.8999C245.405 69.7564 245.69 69.6847 246.021 69.6847C246.307 69.6847 246.557 69.7365 246.771 69.8402C246.986 69.9439 247.155 70.0895 247.28 70.277C247.405 70.4645 247.474 70.6847 247.487 70.9375H246.631C246.606 70.7741 246.543 70.6428 246.439 70.5433C246.337 70.4425 246.202 70.392 246.036 70.392C245.896 70.392 245.773 70.4304 245.668 70.5071C245.564 70.5824 245.483 70.6925 245.425 70.8374C245.366 70.9822 245.337 71.1577 245.337 71.3636C245.337 71.5724 245.366 71.75 245.422 71.8963C245.481 72.0426 245.562 72.1541 245.668 72.2308C245.773 72.3075 245.896 72.3459 246.036 72.3459C246.14 72.3459 246.233 72.3246 246.315 72.282C246.399 72.2393 246.468 72.1776 246.522 72.0966C246.577 72.0142 246.614 71.9155 246.631 71.8004H247.487C247.473 72.0504 247.405 72.2706 247.283 72.4609C247.162 72.6499 246.995 72.7976 246.782 72.9041C246.569 73.0107 246.317 73.0639 246.025 73.0639ZM249.547 73.0639C249.216 73.0639 248.93 72.9936 248.688 72.853C248.448 72.7109 248.263 72.5135 248.132 72.2607C248.002 72.0064 247.936 71.7116 247.936 71.3764C247.936 71.0384 248.002 70.7429 248.132 70.4901C248.263 70.2358 248.448 70.0384 248.688 69.8977C248.93 69.7557 249.216 69.6847 249.547 69.6847C249.878 69.6847 250.163 69.7557 250.403 69.8977C250.645 70.0384 250.831 70.2358 250.962 70.4901C251.092 70.7429 251.158 71.0384 251.158 71.3764C251.158 71.7116 251.092 72.0064 250.962 72.2607C250.831 72.5135 250.645 72.7109 250.403 72.853C250.163 72.9936 249.878 73.0639 249.547 73.0639ZM249.551 72.3608C249.702 72.3608 249.828 72.3182 249.928 72.233C250.029 72.1463 250.105 72.0284 250.156 71.8793C250.209 71.7301 250.235 71.5604 250.235 71.37C250.235 71.1797 250.209 71.0099 250.156 70.8608C250.105 70.7116 250.029 70.5937 249.928 70.5071C249.828 70.4205 249.702 70.3771 249.551 70.3771C249.399 70.3771 249.271 70.4205 249.168 70.5071C249.065 70.5937 248.988 70.7116 248.935 70.8608C248.884 71.0099 248.859 71.1797 248.859 71.37C248.859 71.5604 248.884 71.7301 248.935 71.8793C248.988 72.0284 249.065 72.1463 249.168 72.233C249.271 72.3182 249.399 72.3608 249.551 72.3608ZM252.954 73.0533C252.705 73.0533 252.48 72.9893 252.278 72.8615C252.078 72.7322 251.919 72.5426 251.801 72.2926C251.685 72.0412 251.627 71.733 251.627 71.3679C251.627 70.9929 251.687 70.6811 251.808 70.4325C251.928 70.1825 252.089 69.9957 252.289 69.8722C252.491 69.7472 252.712 69.6847 252.952 69.6847C253.135 69.6847 253.288 69.7159 253.41 69.7784C253.533 69.8395 253.633 69.9162 253.708 70.0085C253.785 70.0994 253.843 70.1889 253.883 70.277H253.911V68.6364H254.816V73H253.921V72.4759H253.883C253.84 72.5668 253.78 72.657 253.702 72.7464C253.625 72.8345 253.525 72.9077 253.401 72.9659C253.279 73.0241 253.13 73.0533 252.954 73.0533ZM253.242 72.331C253.388 72.331 253.511 72.2912 253.612 72.2116C253.715 72.1307 253.793 72.0178 253.847 71.8729C253.902 71.728 253.93 71.5582 253.93 71.3636C253.93 71.169 253.903 71 253.849 70.8565C253.795 70.7131 253.717 70.6023 253.614 70.5241C253.512 70.446 253.388 70.407 253.242 70.407C253.092 70.407 252.967 70.4474 252.864 70.5284C252.762 70.6094 252.685 70.7216 252.632 70.8651C252.58 71.0085 252.553 71.1747 252.553 71.3636C252.553 71.554 252.58 71.7223 252.632 71.8686C252.686 72.0135 252.764 72.1271 252.864 72.2095C252.967 72.2905 253.092 72.331 253.242 72.331ZM257.054 73.0639C256.717 73.0639 256.427 72.9957 256.185 72.8594C255.943 72.7216 255.757 72.527 255.626 72.2756C255.496 72.0227 255.43 71.7237 255.43 71.3786C255.43 71.0419 255.496 70.7464 255.626 70.4922C255.757 70.2379 255.941 70.0398 256.178 69.8977C256.417 69.7557 256.697 69.6847 257.018 69.6847C257.234 69.6847 257.435 69.7195 257.621 69.7891C257.808 69.8572 257.972 69.9602 258.111 70.098C258.251 70.2358 258.361 70.4091 258.439 70.6179C258.517 70.8253 258.556 71.0682 258.556 71.3466V71.5959H255.793V71.0334H257.702C257.702 70.9027 257.673 70.7869 257.616 70.6861C257.56 70.5852 257.481 70.5064 257.38 70.4496C257.28 70.3913 257.165 70.3622 257.033 70.3622C256.895 70.3622 256.773 70.3942 256.666 70.4581C256.561 70.5206 256.479 70.6051 256.419 70.7116C256.359 70.8168 256.329 70.9339 256.327 71.0632V71.598C256.327 71.7599 256.357 71.8999 256.417 72.0178C256.478 72.1357 256.564 72.2266 256.675 72.2905C256.785 72.3544 256.917 72.3864 257.069 72.3864C257.17 72.3864 257.262 72.3722 257.346 72.3438C257.43 72.3153 257.501 72.2727 257.561 72.2159C257.621 72.1591 257.666 72.0895 257.697 72.0071L258.537 72.0625C258.494 72.2642 258.407 72.4403 258.275 72.5909C258.144 72.7401 257.975 72.8565 257.768 72.9403C257.562 73.0227 257.324 73.0639 257.054 73.0639Z" fill="white"/>
<g filter="url(#filter3_d_1_2)">
<rect x="138" y="65" width="76" height="25" rx="2" fill="#2B333B"/>
<rect x="138.5" y="65.5" width="75" height="24" rx="1.5" stroke="#151F28"/>
</g>
<path d="M163.792 76.2188H162.547C162.525 76.0578 162.478 75.9148 162.408 75.7898C162.338 75.6629 162.248 75.5549 162.138 75.4659C162.028 75.3769 161.901 75.3087 161.757 75.2614C161.615 75.214 161.461 75.1903 161.294 75.1903C160.993 75.1903 160.731 75.2652 160.507 75.4148C160.284 75.5625 160.111 75.7784 159.988 76.0625C159.864 76.3447 159.803 76.6875 159.803 77.0909C159.803 77.5057 159.864 77.8542 159.988 78.1364C160.113 78.4186 160.287 78.6316 160.51 78.7756C160.734 78.9195 160.992 78.9915 161.286 78.9915C161.451 78.9915 161.603 78.9697 161.743 78.9261C161.885 78.8826 162.011 78.8191 162.121 78.7358C162.231 78.6506 162.322 78.5473 162.394 78.4261C162.468 78.3049 162.519 78.1667 162.547 78.0114L163.792 78.017C163.759 78.2841 163.679 78.5417 163.55 78.7898C163.423 79.036 163.252 79.2566 163.036 79.4517C162.822 79.6449 162.566 79.7983 162.269 79.9119C161.973 80.0237 161.639 80.0795 161.266 80.0795C160.747 80.0795 160.283 79.9621 159.874 79.7273C159.467 79.4924 159.145 79.1525 158.908 78.7074C158.673 78.2623 158.556 77.7235 158.556 77.0909C158.556 76.4564 158.675 75.9167 158.914 75.4716C159.152 75.0265 159.476 74.6875 159.885 74.4545C160.294 74.2197 160.755 74.1023 161.266 74.1023C161.603 74.1023 161.916 74.1496 162.203 74.2443C162.493 74.339 162.75 74.4773 162.973 74.6591C163.197 74.839 163.379 75.0597 163.519 75.321C163.661 75.5824 163.752 75.8816 163.792 76.2188ZM166.623 80.0852C166.181 80.0852 165.8 79.9915 165.478 79.804C165.158 79.6146 164.91 79.3513 164.736 79.0142C164.562 78.6752 164.475 78.2822 164.475 77.8352C164.475 77.3845 164.562 76.9905 164.736 76.6534C164.91 76.3144 165.158 76.0511 165.478 75.8636C165.8 75.6742 166.181 75.5795 166.623 75.5795C167.064 75.5795 167.444 75.6742 167.765 75.8636C168.087 76.0511 168.335 76.3144 168.509 76.6534C168.683 76.9905 168.77 77.3845 168.77 77.8352C168.77 78.2822 168.683 78.6752 168.509 79.0142C168.335 79.3513 168.087 79.6146 167.765 79.804C167.444 79.9915 167.064 80.0852 166.623 80.0852ZM166.628 79.1477C166.829 79.1477 166.997 79.0909 167.131 78.9773C167.266 78.8617 167.367 78.7045 167.435 78.5057C167.505 78.3068 167.54 78.0805 167.54 77.8267C167.54 77.5729 167.505 77.3466 167.435 77.1477C167.367 76.9489 167.266 76.7917 167.131 76.6761C166.997 76.5606 166.829 76.5028 166.628 76.5028C166.426 76.5028 166.255 76.5606 166.117 76.6761C165.98 76.7917 165.877 76.9489 165.807 77.1477C165.739 77.3466 165.705 77.5729 165.705 77.8267C165.705 78.0805 165.739 78.3068 165.807 78.5057C165.877 78.7045 165.98 78.8617 166.117 78.9773C166.255 79.0909 166.426 79.1477 166.628 79.1477ZM169.557 80V75.6364H170.711V76.4062H170.762C170.853 76.1506 171.004 75.9489 171.216 75.8011C171.428 75.6534 171.682 75.5795 171.978 75.5795C172.277 75.5795 172.532 75.6544 172.742 75.804C172.952 75.9517 173.092 76.1525 173.162 76.4062H173.208C173.297 76.1562 173.458 75.9564 173.691 75.8068C173.926 75.6553 174.203 75.5795 174.523 75.5795C174.93 75.5795 175.261 75.7093 175.515 75.9688C175.77 76.2263 175.898 76.5919 175.898 77.0653V80H174.691V77.304C174.691 77.0616 174.626 76.8797 174.498 76.7585C174.369 76.6373 174.208 76.5767 174.015 76.5767C173.795 76.5767 173.623 76.6468 173.5 76.7869C173.377 76.9252 173.316 77.108 173.316 77.3352V80H172.142V77.2784C172.142 77.0644 172.081 76.8939 171.958 76.767C171.837 76.6402 171.676 76.5767 171.478 76.5767C171.343 76.5767 171.222 76.6108 171.114 76.679C171.008 76.7453 170.924 76.839 170.861 76.9602C170.799 77.0795 170.767 77.2197 170.767 77.3807V80H169.557ZM176.854 81.6364V75.6364H178.047V76.3693H178.101C178.154 76.2519 178.231 76.1326 178.331 76.0114C178.434 75.8883 178.566 75.786 178.729 75.7045C178.894 75.6212 179.098 75.5795 179.343 75.5795C179.661 75.5795 179.954 75.6629 180.223 75.8295C180.492 75.9943 180.707 76.2434 180.868 76.5767C181.029 76.9081 181.11 77.3239 181.11 77.8239C181.11 78.3106 181.031 78.7216 180.874 79.0568C180.719 79.3902 180.507 79.643 180.238 79.8153C179.971 79.9858 179.671 80.071 179.34 80.071C179.105 80.071 178.905 80.0322 178.74 79.9545C178.578 79.8769 178.444 79.7794 178.34 79.6619C178.236 79.5426 178.156 79.4223 178.101 79.3011H178.064V81.6364H176.854ZM178.039 77.8182C178.039 78.0777 178.075 78.304 178.147 78.4972C178.219 78.6903 178.323 78.8409 178.459 78.9489C178.596 79.0549 178.761 79.108 178.956 79.108C179.153 79.108 179.32 79.054 179.456 78.946C179.593 78.8362 179.696 78.6847 179.766 78.4915C179.838 78.2964 179.874 78.072 179.874 77.8182C179.874 77.5663 179.839 77.3447 179.769 77.1534C179.699 76.9621 179.596 76.8125 179.459 76.7045C179.323 76.5966 179.155 76.5426 178.956 76.5426C178.759 76.5426 178.593 76.5947 178.456 76.6989C178.322 76.803 178.219 76.9508 178.147 77.142C178.075 77.3333 178.039 77.5587 178.039 77.8182ZM181.917 80V75.6364H183.127V80H181.917ZM182.525 75.0739C182.345 75.0739 182.19 75.0142 182.061 74.8949C181.935 74.7737 181.871 74.6288 181.871 74.4602C181.871 74.2936 181.935 74.1506 182.061 74.0312C182.19 73.91 182.345 73.8494 182.525 73.8494C182.704 73.8494 182.858 73.91 182.985 74.0312C183.114 74.1506 183.178 74.2936 183.178 74.4602C183.178 74.6288 183.114 74.7737 182.985 74.8949C182.858 75.0142 182.704 75.0739 182.525 75.0739ZM185.306 74.1818V80H184.096V74.1818H185.306ZM188.265 80.0852C187.816 80.0852 187.429 79.9943 187.105 79.8125C186.783 79.6288 186.535 79.3693 186.361 79.0341C186.187 78.697 186.1 78.2983 186.1 77.8381C186.1 77.3892 186.187 76.9953 186.361 76.6562C186.535 76.3172 186.781 76.053 187.097 75.8636C187.415 75.6742 187.788 75.5795 188.216 75.5795C188.504 75.5795 188.772 75.6259 189.02 75.7188C189.27 75.8097 189.488 75.947 189.674 76.1307C189.861 76.3144 190.007 76.5455 190.111 76.8239C190.215 77.1004 190.267 77.4242 190.267 77.7955V78.1278H186.583V77.3778H189.128C189.128 77.2036 189.09 77.0492 189.015 76.9148C188.939 76.7803 188.834 76.6752 188.699 76.5994C188.567 76.5218 188.412 76.483 188.236 76.483C188.052 76.483 187.89 76.5256 187.748 76.6108C187.607 76.6941 187.498 76.8068 187.418 76.9489C187.338 77.089 187.298 77.2453 187.296 77.4176V78.1307C187.296 78.3466 187.336 78.5331 187.415 78.6903C187.497 78.8475 187.611 78.9688 187.759 79.054C187.907 79.1392 188.082 79.1818 188.284 79.1818C188.419 79.1818 188.542 79.1629 188.654 79.125C188.766 79.0871 188.861 79.0303 188.941 78.9545C189.02 78.8788 189.081 78.786 189.123 78.6761L190.242 78.75C190.185 79.0189 190.069 79.2538 189.892 79.4545C189.718 79.6534 189.493 79.8087 189.216 79.9205C188.942 80.0303 188.624 80.0852 188.265 80.0852ZM191.057 80V75.6364H192.23V76.3977H192.276C192.355 76.1269 192.489 75.9223 192.676 75.7841C192.864 75.6439 193.08 75.5739 193.324 75.5739C193.385 75.5739 193.45 75.5777 193.52 75.5852C193.59 75.5928 193.652 75.6032 193.705 75.6165V76.6903C193.648 76.6733 193.569 76.6581 193.469 76.6449C193.369 76.6316 193.277 76.625 193.194 76.625C193.016 76.625 192.856 76.6638 192.716 76.7415C192.578 76.8172 192.468 76.9233 192.387 77.0597C192.307 77.196 192.267 77.3532 192.267 77.5312V80H191.057Z" fill="white"/>
<g filter="url(#filter4_d_1_2)">
<rect x="270" y="65" width="72" height="25" rx="2" fill="#2B333B"/>
<rect x="270.5" y="65.5" width="71" height="24" rx="1.5" stroke="#151F28"/>
</g>
<path d="M294.392 80V74.1818H295.623V78.9858H298.117V80H294.392ZM298.909 80V75.6364H300.119V80H298.909ZM299.517 75.0739C299.337 75.0739 299.182 75.0142 299.054 74.8949C298.927 74.7737 298.863 74.6288 298.863 74.4602C298.863 74.2936 298.927 74.1506 299.054 74.0312C299.182 73.91 299.337 73.8494 299.517 73.8494C299.697 73.8494 299.85 73.91 299.977 74.0312C300.106 74.1506 300.17 74.2936 300.17 74.4602C300.17 74.6288 300.106 74.7737 299.977 74.8949C299.85 75.0142 299.697 75.0739 299.517 75.0739ZM302.299 77.4773V80H301.088V75.6364H302.242V76.4062H302.293C302.39 76.1525 302.551 75.9517 302.779 75.804C303.006 75.6544 303.282 75.5795 303.605 75.5795C303.908 75.5795 304.173 75.6458 304.398 75.7784C304.623 75.911 304.799 76.1004 304.924 76.3466C305.049 76.5909 305.111 76.8826 305.111 77.2216V80H303.901V77.4375C303.903 77.1705 303.835 76.9621 303.696 76.8125C303.558 76.661 303.368 76.5852 303.125 76.5852C302.962 76.5852 302.819 76.6203 302.694 76.6903C302.57 76.7604 302.474 76.8627 302.404 76.9972C302.336 77.1297 302.301 77.2898 302.299 77.4773ZM307.162 78.7443L307.164 77.2926H307.341L308.738 75.6364H310.127L308.25 77.8295H307.963L307.162 78.7443ZM306.065 80V74.1818H307.275V80H306.065ZM308.792 80L307.508 78.0994L308.315 77.2443L310.21 80H308.792ZM312.53 80.0852C312.081 80.0852 311.695 79.9943 311.371 79.8125C311.049 79.6288 310.801 79.3693 310.627 79.0341C310.453 78.697 310.365 78.2983 310.365 77.8381C310.365 77.3892 310.453 76.9953 310.627 76.6562C310.801 76.3172 311.046 76.053 311.363 75.8636C311.681 75.6742 312.054 75.5795 312.482 75.5795C312.77 75.5795 313.038 75.6259 313.286 75.7188C313.536 75.8097 313.754 75.947 313.939 76.1307C314.127 76.3144 314.273 76.5455 314.377 76.8239C314.481 77.1004 314.533 77.4242 314.533 77.7955V78.1278H310.848V77.3778H313.394C313.394 77.2036 313.356 77.0492 313.28 76.9148C313.204 76.7803 313.099 76.6752 312.965 76.5994C312.832 76.5218 312.678 76.483 312.502 76.483C312.318 76.483 312.155 76.5256 312.013 76.6108C311.873 76.6941 311.763 76.8068 311.684 76.9489C311.604 77.089 311.563 77.2453 311.561 77.4176V78.1307C311.561 78.3466 311.601 78.5331 311.681 78.6903C311.762 78.8475 311.877 78.9688 312.025 79.054C312.172 79.1392 312.347 79.1818 312.55 79.1818C312.685 79.1818 312.808 79.1629 312.919 79.125C313.031 79.0871 313.127 79.0303 313.206 78.9545C313.286 78.8788 313.346 78.786 313.388 78.6761L314.507 78.75C314.451 79.0189 314.334 79.2538 314.158 79.4545C313.984 79.6534 313.758 79.8087 313.482 79.9205C313.207 80.0303 312.89 80.0852 312.53 80.0852ZM315.323 80V75.6364H316.496V76.3977H316.542C316.621 76.1269 316.755 75.9223 316.942 75.7841C317.13 75.6439 317.346 75.5739 317.59 75.5739C317.65 75.5739 317.716 75.5777 317.786 75.5852C317.856 75.5928 317.917 75.6032 317.971 75.6165V76.6903C317.914 76.6733 317.835 76.6581 317.735 76.6449C317.634 76.6316 317.542 76.625 317.459 76.625C317.281 76.625 317.122 76.6638 316.982 76.7415C316.844 76.8172 316.734 76.9233 316.652 77.0597C316.573 77.196 316.533 77.3532 316.533 77.5312V80H315.323Z" fill="white"/>
<path d="M37.6464 54.3536C37.8417 54.5488 38.1583 54.5488 38.3536 54.3536L41.5355 51.1716C41.7308 50.9763 41.7308 50.6597 41.5355 50.4645C41.3403 50.2692 41.0237 50.2692 40.8284 50.4645L38 53.2929L35.1716 50.4645C34.9763 50.2692 34.6597 50.2692 34.4645 50.4645C34.2692 50.6597 34.2692 50.9763 34.4645 51.1716L37.6464 54.3536ZM37.5 28V54H38.5V28H37.5Z" fill="white"/>
<path d="M37.6464 126.354C37.8417 126.549 38.1583 126.549 38.3536 126.354L41.5355 123.172C41.7308 122.976 41.7308 122.66 41.5355 122.464C41.3403 122.269 41.0237 122.269 40.8284 122.464L38 125.293L35.1716 122.464C34.9763 122.269 34.6597 122.269 34.4645 122.464C34.2692 122.66 34.2692 122.976 34.4645 123.172L37.6464 126.354ZM37.5 100V126H38.5V100H37.5Z" fill="white"/>
<path d="M176.354 93.6464C176.158 93.4512 175.842 93.4512 175.646 93.6464L172.464 96.8284C172.269 97.0237 172.269 97.3403 172.464 97.5355C172.66 97.7308 172.976 97.7308 173.172 97.5355L176 94.7071L178.828 97.5355C179.024 97.7308 179.34 97.7308 179.536 97.5355C179.731 97.3403 179.731 97.0237 179.536 96.8284L176.354 93.6464ZM176.5 145V94H175.5V145H176.5Z" fill="white"/>
<path d="M136.354 80.3536C136.549 80.1583 136.549 79.8417 136.354 79.6464L133.172 76.4645C132.976 76.2692 132.66 76.2692 132.464 76.4645C132.269 76.6597 132.269 76.9763 132.464 77.1716L135.293 80L132.464 82.8284C132.269 83.0237 132.269 83.3403 132.464 83.5355C132.66 83.7308 132.976 83.7308 133.172 83.5355L136.354 80.3536ZM93 80.5H136V79.5H93V80.5Z" fill="white"/>
<path d="M266.354 80.3536C266.549 80.1583 266.549 79.8417 266.354 79.6464L263.172 76.4645C262.976 76.2692 262.66 76.2692 262.464 76.4645C262.269 76.6597 262.269 76.9763 262.464 77.1716L265.293 80L262.464 82.8284C262.269 83.0237 262.269 83.3403 262.464 83.5355C262.66 83.7308 262.976 83.7308 263.172 83.5355L266.354 80.3536ZM216 80.5H266V79.5H216V80.5Z" fill="white"/>
<line x1="176" y1="144.5" x2="79" y2="144.5" stroke="white"/>
</g>
<defs>
<filter id="filter0_d_1_2" x="-2" y="-2" width="82" height="31" filterUnits="userSpaceOnUse" color-interpolation-filters="sRGB">
<feFlood flood-opacity="0" result="BackgroundImageFix"/>
<feColorMatrix in="SourceAlpha" type="matrix" values="0 0 0 0 0 0 0 0 0 0 0 0 0 0 0 0 0 0 127 0" result="hardAlpha"/>
<feOffset dx="1" dy="1"/>
<feGaussianBlur stdDeviation="1.5"/>
<feComposite in2="hardAlpha" operator="out"/>
<feColorMatrix type="matrix" values="0 0 0 0 0 0 0 0 0 0 0 0 0 0 0 0 0 0 0.55 0"/>
<feBlend mode="normal" in2="BackgroundImageFix" result="effect1_dropShadow_1_2"/>
<feBlend mode="normal" in="SourceGraphic" in2="effect1_dropShadow_1_2" result="shape"/>
</filter>
<filter id="filter1_d_1_2" x="-2" y="56" width="96" height="45" filterUnits="userSpaceOnUse" color-interpolation-filters="sRGB">
<feFlood flood-opacity="0" result="BackgroundImageFix"/>
<feColorMatrix in="SourceAlpha" type="matrix" values="0 0 0 0 0 0 0 0 0 0 0 0 0 0 0 0 0 0 127 0" result="hardAlpha"/>
<feOffset dx="1" dy="1"/>
<feGaussianBlur stdDeviation="1.5"/>
<feComposite in2="hardAlpha" operator="out"/>
<feColorMatrix type="matrix" values="0 0 0 0 0 0 0 0 0 0 0 0 0 0 0 0 0 0 0.55 0"/>
<feBlend mode="normal" in2="BackgroundImageFix" result="effect1_dropShadow_1_2"/>
<feBlend mode="normal" in="SourceGraphic" in2="effect1_dropShadow_1_2" result="shape"/>
</filter>
<filter id="filter2_d_1_2" x="-2" y="128" width="82" height="31" filterUnits="userSpaceOnUse" color-interpolation-filters="sRGB">
<feFlood flood-opacity="0" result="BackgroundImageFix"/>
<feColorMatrix in="SourceAlpha" type="matrix" values="0 0 0 0 0 0 0 0 0 0 0 0 0 0 0 0 0 0 127 0" result="hardAlpha"/>
<feOffset dx="1" dy="1"/>
<feGaussianBlur stdDeviation="1.5"/>
<feComposite in2="hardAlpha" operator="out"/>
<feColorMatrix type="matrix" values="0 0 0 0 0 0 0 0 0 0 0 0 0 0 0 0 0 0 0.55 0"/>
<feBlend mode="normal" in2="BackgroundImageFix" result="effect1_dropShadow_1_2"/>
<feBlend mode="normal" in="SourceGraphic" in2="effect1_dropShadow_1_2" result="shape"/>
</filter>
<filter id="filter3_d_1_2" x="136" y="63" width="82" height="31" filterUnits="userSpaceOnUse" color-interpolation-filters="sRGB">
<feFlood flood-opacity="0" result="BackgroundImageFix"/>
<feColorMatrix in="SourceAlpha" type="matrix" values="0 0 0 0 0 0 0 0 0 0 0 0 0 0 0 0 0 0 127 0" result="hardAlpha"/>
<feOffset dx="1" dy="1"/>
<feGaussianBlur stdDeviation="1.5"/>
<feComposite in2="hardAlpha" operator="out"/>
<feColorMatrix type="matrix" values="0 0 0 0 0 0 0 0 0 0 0 0 0 0 0 0 0 0 0.55 0"/>
<feBlend mode="normal" in2="BackgroundImageFix" result="effect1_dropShadow_1_2"/>
<feBlend mode="normal" in="SourceGraphic" in2="effect1_dropShadow_1_2" result="shape"/>
</filter>
<filter id="filter4_d_1_2" x="268" y="63" width="78" height="31" filterUnits="userSpaceOnUse" color-interpolation-filters="sRGB">
<feFlood flood-opacity="0" result="BackgroundImageFix"/>
<feColorMatrix in="SourceAlpha" type="matrix" values="0 0 0 0 0 0 0 0 0 0 0 0 0 0 0 0 0 0 127 0" result="hardAlpha"/>
<feOffset dx="1" dy="1"/>
<feGaussianBlur stdDeviation="1.5"/>
<feComposite in2="hardAlpha" operator="out"/>
<feColorMatrix type="matrix" values="0 0 0 0 0 0 0 0 0 0 0 0 0 0 0 0 0 0 0.55 0"/>
<feBlend mode="normal" in2="BackgroundImageFix" result="effect1_dropShadow_1_2"/>
<feBlend mode="normal" in="SourceGraphic" in2="effect1_dropShadow_1_2" result="shape"/>
</filter>
<clipPath id="clip0_1_2">
<rect width="354" height="155" fill="white"/>
</clipPath>
</defs>
</svg>
