<svg width="354" height="155" viewBox="0 0 354 155" fill="none" xmlns="http://www.w3.org/2000/svg">
<g clip-path="url(#clip0_1_2)">
<g filter="url(#filter0_d_1_2)">
<rect width="76" height="25" rx="2" fill="#2B333B"/>
<rect x="0.5" y="0.5" width="75" height="24" rx="1.5" stroke="#151F28"/>
</g>
<path d="M17.1658 10.8551C17.1431 10.6259 17.0456 10.4479 16.8732 10.321C16.7009 10.1941 16.467 10.1307 16.1715 10.1307C15.9708 10.1307 15.8013 10.1591 15.663 10.2159C15.5247 10.2708 15.4187 10.3475 15.3448 10.446C15.2728 10.5445 15.2369 10.6562 15.2369 10.7812C15.2331 10.8854 15.2549 10.9763 15.3022 11.054C15.3514 11.1316 15.4187 11.1989 15.5039 11.2557C15.5891 11.3106 15.6876 11.3589 15.7994 11.4006C15.9111 11.4403 16.0304 11.4744 16.1573 11.5028L16.68 11.6278C16.9338 11.6847 17.1668 11.7604 17.3789 11.8551C17.591 11.9498 17.7747 12.0663 17.93 12.2045C18.0853 12.3428 18.2056 12.5057 18.2908 12.6932C18.378 12.8807 18.4225 13.0956 18.4244 13.3381C18.4225 13.6941 18.3316 14.0028 18.1516 14.2642C17.9736 14.5237 17.716 14.7254 17.3789 14.8693C17.0437 15.0114 16.6393 15.0824 16.1658 15.0824C15.6961 15.0824 15.2871 15.0104 14.9386 14.8665C14.592 14.7225 14.3211 14.5095 14.1261 14.2273C13.9329 13.9432 13.8316 13.5919 13.8221 13.1733H15.0124C15.0257 13.3684 15.0816 13.5312 15.18 13.6619C15.2804 13.7907 15.4139 13.8883 15.5806 13.9545C15.7492 14.0189 15.9395 14.0511 16.1516 14.0511C16.36 14.0511 16.5408 14.0208 16.6942 13.9602C16.8496 13.8996 16.9698 13.8153 17.055 13.7074C17.1403 13.5994 17.1829 13.4754 17.1829 13.3352C17.1829 13.2045 17.1441 13.0947 17.0664 13.0057C16.9906 12.9167 16.8789 12.8409 16.7312 12.7784C16.5853 12.7159 16.4064 12.6591 16.1942 12.608L15.5607 12.4489C15.0702 12.3295 14.6829 12.143 14.3988 11.8892C14.1147 11.6354 13.9736 11.2936 13.9755 10.8636C13.9736 10.5114 14.0674 10.2036 14.2567 9.94034C14.448 9.67708 14.7103 9.47159 15.0437 9.32386C15.377 9.17614 15.7558 9.10227 16.18 9.10227C16.6119 9.10227 16.9888 9.17614 17.3107 9.32386C17.6346 9.47159 17.8865 9.67708 18.0664 9.94034C18.2463 10.2036 18.3391 10.5085 18.3448 10.8551H17.1658ZM21.2006 15.0852C20.7594 15.0852 20.3777 14.9915 20.0558 14.804C19.7357 14.6146 19.4885 14.3513 19.3143 14.0142C19.14 13.6752 19.0529 13.2822 19.0529 12.8352C19.0529 12.3845 19.14 11.9905 19.3143 11.6534C19.4885 11.3144 19.7357 11.0511 20.0558 10.8636C20.3777 10.6742 20.7594 10.5795 21.2006 10.5795C21.6419 10.5795 22.0226 10.6742 22.3427 10.8636C22.6647 11.0511 22.9128 11.3144 23.087 11.6534C23.2612 11.9905 23.3484 12.3845 23.3484 12.8352C23.3484 13.2822 23.2612 13.6752 23.087 14.0142C22.9128 14.3513 22.6647 14.6146 22.3427 14.804C22.0226 14.9915 21.6419 15.0852 21.2006 15.0852ZM21.2063 14.1477C21.4071 14.1477 21.5747 14.0909 21.7092 13.9773C21.8436 13.8617 21.945 13.7045 22.0131 13.5057C22.0832 13.3068 22.1183 13.0805 22.1183 12.8267C22.1183 12.5729 22.0832 12.3466 22.0131 12.1477C21.945 11.9489 21.8436 11.7917 21.7092 11.6761C21.5747 11.5606 21.4071 11.5028 21.2063 11.5028C21.0037 11.5028 20.8332 11.5606 20.695 11.6761C20.5586 11.7917 20.4554 11.9489 20.3853 12.1477C20.3171 12.3466 20.283 12.5729 20.283 12.8267C20.283 13.0805 20.3171 13.3068 20.3853 13.5057C20.4554 13.7045 20.5586 13.8617 20.695 13.9773C20.8332 14.0909 21.0037 14.1477 21.2063 14.1477ZM26.9336 13.142V10.6364H28.1438V15H26.9819V14.2074H26.9364C26.8379 14.4631 26.6741 14.6686 26.445 14.8239C26.2177 14.9792 25.9402 15.0568 25.6126 15.0568C25.3209 15.0568 25.0643 14.9905 24.8427 14.858C24.6211 14.7254 24.4478 14.5369 24.3228 14.2926C24.1997 14.0483 24.1372 13.7557 24.1353 13.4148V10.6364H25.3455V13.1989C25.3474 13.4564 25.4165 13.66 25.5529 13.8097C25.6893 13.9593 25.872 14.0341 26.1012 14.0341C26.247 14.0341 26.3834 14.0009 26.5103 13.9347C26.6372 13.8665 26.7395 13.7661 26.8171 13.6335C26.8967 13.5009 26.9355 13.3371 26.9336 13.142ZM29.1119 15V10.6364H30.2852V11.3977H30.3306C30.4102 11.1269 30.5437 10.9223 30.7312 10.7841C30.9187 10.6439 31.1346 10.5739 31.3789 10.5739C31.4395 10.5739 31.5049 10.5777 31.5749 10.5852C31.645 10.5928 31.7066 10.6032 31.7596 10.6165V11.6903C31.7028 11.6733 31.6242 11.6581 31.5238 11.6449C31.4234 11.6316 31.3316 11.625 31.2482 11.625C31.0702 11.625 30.9111 11.6638 30.771 11.7415C30.6327 11.8172 30.5228 11.9233 30.4414 12.0597C30.3619 12.196 30.3221 12.3532 30.3221 12.5312V15H29.1119ZM34.1538 15.0852C33.7068 15.0852 33.3223 14.9905 33.0004 14.8011C32.6803 14.6098 32.4341 14.3447 32.2617 14.0057C32.0913 13.6667 32.006 13.2765 32.006 12.8352C32.006 12.3883 32.0922 11.9962 32.2646 11.6591C32.4388 11.3201 32.686 11.0559 33.006 10.8665C33.3261 10.6752 33.7068 10.5795 34.1481 10.5795C34.5288 10.5795 34.8621 10.6487 35.1481 10.7869C35.4341 10.9252 35.6604 11.1193 35.8271 11.3693C35.9937 11.6193 36.0856 11.9129 36.1026 12.25H34.9606C34.9284 12.0322 34.8432 11.857 34.7049 11.7244C34.5685 11.59 34.3896 11.5227 34.168 11.5227C33.9805 11.5227 33.8166 11.5739 33.6765 11.6761C33.5382 11.7765 33.4303 11.9233 33.3526 12.1165C33.275 12.3097 33.2362 12.5436 33.2362 12.8182C33.2362 13.0966 33.274 13.3333 33.3498 13.5284C33.4274 13.7235 33.5363 13.8722 33.6765 13.9744C33.8166 14.0767 33.9805 14.1278 34.168 14.1278C34.3062 14.1278 34.4303 14.0994 34.5401 14.0426C34.6519 13.9858 34.7437 13.9034 34.8157 13.7955C34.8896 13.6856 34.9379 13.554 34.9606 13.4006H36.1026C36.0837 13.7339 35.9928 14.0275 35.8299 14.2812C35.6689 14.5331 35.4464 14.7301 35.1623 14.8722C34.8782 15.0142 34.542 15.0852 34.1538 15.0852ZM38.8661 15.0852C38.4173 15.0852 38.0309 14.9943 37.707 14.8125C37.3851 14.6288 37.137 14.3693 36.9627 14.0341C36.7885 13.697 36.7013 13.2983 36.7013 12.8381C36.7013 12.3892 36.7885 11.9953 36.9627 11.6562C37.137 11.3172 37.3822 11.053 37.6985 10.8636C38.0167 10.6742 38.3898 10.5795 38.8178 10.5795C39.1057 10.5795 39.3737 10.6259 39.6218 10.7188C39.8718 10.8097 40.0896 10.947 40.2752 11.1307C40.4627 11.3144 40.6085 11.5455 40.7127 11.8239C40.8169 12.1004 40.869 12.4242 40.869 12.7955V13.1278H37.1843V12.3778H39.7298C39.7298 12.2036 39.6919 12.0492 39.6161 11.9148C39.5404 11.7803 39.4353 11.6752 39.3008 11.5994C39.1682 11.5218 39.0138 11.483 38.8377 11.483C38.654 11.483 38.4911 11.5256 38.3491 11.6108C38.2089 11.6941 38.0991 11.8068 38.0195 11.9489C37.94 12.089 37.8993 12.2453 37.8974 12.4176V13.1307C37.8974 13.3466 37.9371 13.5331 38.0167 13.6903C38.0981 13.8475 38.2127 13.9688 38.3604 14.054C38.5082 14.1392 38.6834 14.1818 38.886 14.1818C39.0205 14.1818 39.1436 14.1629 39.2553 14.125C39.3671 14.0871 39.4627 14.0303 39.5423 13.9545C39.6218 13.8788 39.6824 13.786 39.7241 13.6761L40.8434 13.75C40.7866 14.0189 40.6701 14.2538 40.494 14.4545C40.3197 14.6534 40.0943 14.8087 39.8178 14.9205C39.5432 15.0303 39.226 15.0852 38.8661 15.0852ZM45.4819 15.0852C45.0349 15.0852 44.6504 14.9905 44.3285 14.8011C44.0084 14.6098 43.7622 14.3447 43.5898 14.0057C43.4194 13.6667 43.3342 13.2765 43.3342 12.8352C43.3342 12.3883 43.4203 11.9962 43.5927 11.6591C43.7669 11.3201 44.0141 11.0559 44.3342 10.8665C44.6542 10.6752 45.0349 10.5795 45.4762 10.5795C45.8569 10.5795 46.1902 10.6487 46.4762 10.7869C46.7622 10.9252 46.9885 11.1193 47.1552 11.3693C47.3219 11.6193 47.4137 11.9129 47.4308 12.25H46.2887C46.2565 12.0322 46.1713 11.857 46.033 11.7244C45.8967 11.59 45.7177 11.5227 45.4961 11.5227C45.3086 11.5227 45.1448 11.5739 45.0046 11.6761C44.8664 11.7765 44.7584 11.9233 44.6808 12.1165C44.6031 12.3097 44.5643 12.5436 44.5643 12.8182C44.5643 13.0966 44.6022 13.3333 44.6779 13.5284C44.7556 13.7235 44.8645 13.8722 45.0046 13.9744C45.1448 14.0767 45.3086 14.1278 45.4961 14.1278C45.6344 14.1278 45.7584 14.0994 45.8683 14.0426C45.98 13.9858 46.0719 13.9034 46.1438 13.7955C46.2177 13.6856 46.266 13.554 46.2887 13.4006H47.4308C47.4118 13.7339 47.3209 14.0275 47.158 14.2812C46.997 14.5331 46.7745 14.7301 46.4904 14.8722C46.2063 15.0142 45.8701 15.0852 45.4819 15.0852ZM50.1772 15.0852C49.7359 15.0852 49.3543 14.9915 49.0323 14.804C48.7122 14.6146 48.4651 14.3513 48.2908 14.0142C48.1166 13.6752 48.0295 13.2822 48.0295 12.8352C48.0295 12.3845 48.1166 11.9905 48.2908 11.6534C48.4651 11.3144 48.7122 11.0511 49.0323 10.8636C49.3543 10.6742 49.7359 10.5795 50.1772 10.5795C50.6185 10.5795 50.9992 10.6742 51.3192 10.8636C51.6412 11.0511 51.8893 11.3144 52.0636 11.6534C52.2378 11.9905 52.3249 12.3845 52.3249 12.8352C52.3249 13.2822 52.2378 13.6752 52.0636 14.0142C51.8893 14.3513 51.6412 14.6146 51.3192 14.804C50.9992 14.9915 50.6185 15.0852 50.1772 15.0852ZM50.1829 14.1477C50.3836 14.1477 50.5513 14.0909 50.6857 13.9773C50.8202 13.8617 50.9215 13.7045 50.9897 13.5057C51.0598 13.3068 51.0948 13.0805 51.0948 12.8267C51.0948 12.5729 51.0598 12.3466 50.9897 12.1477C50.9215 11.9489 50.8202 11.7917 50.6857 11.6761C50.5513 11.5606 50.3836 11.5028 50.1829 11.5028C49.9802 11.5028 49.8098 11.5606 49.6715 11.6761C49.5352 11.7917 49.4319 11.9489 49.3619 12.1477C49.2937 12.3466 49.2596 12.5729 49.2596 12.8267C49.2596 13.0805 49.2937 13.3068 49.3619 13.5057C49.4319 13.7045 49.5352 13.8617 49.6715 13.9773C49.8098 14.0909 49.9802 14.1477 50.1829 14.1477ZM54.7198 15.071C54.3884 15.071 54.0882 14.9858 53.8192 14.8153C53.5522 14.643 53.3401 14.3902 53.1829 14.0568C53.0276 13.7216 52.9499 13.3106 52.9499 12.8239C52.9499 12.3239 53.0304 11.9081 53.1914 11.5767C53.3524 11.2434 53.5664 10.9943 53.8335 10.8295C54.1024 10.6629 54.3969 10.5795 54.717 10.5795C54.9613 10.5795 55.1649 10.6212 55.3278 10.7045C55.4925 10.786 55.6251 10.8883 55.7255 11.0114C55.8278 11.1326 55.9054 11.2519 55.9585 11.3693H55.9954V9.18182H57.2028V15H56.0096V14.3011H55.9585C55.9016 14.4223 55.8211 14.5426 55.717 14.6619C55.6147 14.7794 55.4812 14.8769 55.3164 14.9545C55.1535 15.0322 54.9547 15.071 54.7198 15.071ZM55.1033 14.108C55.2984 14.108 55.4632 14.0549 55.5977 13.9489C55.734 13.8409 55.8382 13.6903 55.9102 13.4972C55.984 13.304 56.021 13.0777 56.021 12.8182C56.021 12.5587 55.985 12.3333 55.913 12.142C55.841 11.9508 55.7369 11.803 55.6005 11.6989C55.4641 11.5947 55.2984 11.5426 55.1033 11.5426C54.9045 11.5426 54.7369 11.5966 54.6005 11.7045C54.4641 11.8125 54.3609 11.9621 54.2908 12.1534C54.2208 12.3447 54.1857 12.5663 54.1857 12.8182C54.1857 13.072 54.2208 13.2964 54.2908 13.4915C54.3628 13.6847 54.466 13.8362 54.6005 13.946C54.7369 14.054 54.9045 14.108 55.1033 14.108ZM60.1864 15.0852C59.7376 15.0852 59.3512 14.9943 59.0273 14.8125C58.7054 14.6288 58.4573 14.3693 58.283 14.0341C58.1088 13.697 58.0217 13.2983 58.0217 12.8381C58.0217 12.3892 58.1088 11.9953 58.283 11.6562C58.4573 11.3172 58.7025 11.053 59.0188 10.8636C59.337 10.6742 59.7101 10.5795 60.1381 10.5795C60.426 10.5795 60.694 10.6259 60.9421 10.7188C61.1921 10.8097 61.4099 10.947 61.5955 11.1307C61.783 11.3144 61.9289 11.5455 62.033 11.8239C62.1372 12.1004 62.1893 12.4242 62.1893 12.7955V13.1278H58.5046V12.3778H61.0501C61.0501 12.2036 61.0122 12.0492 60.9364 11.9148C60.8607 11.7803 60.7556 11.6752 60.6211 11.5994C60.4885 11.5218 60.3342 11.483 60.158 11.483C59.9743 11.483 59.8114 11.5256 59.6694 11.6108C59.5292 11.6941 59.4194 11.8068 59.3398 11.9489C59.2603 12.089 59.2196 12.2453 59.2177 12.4176V13.1307C59.2177 13.3466 59.2575 13.5331 59.337 13.6903C59.4184 13.8475 59.533 13.9688 59.6808 14.054C59.8285 14.1392 60.0037 14.1818 60.2063 14.1818C60.3408 14.1818 60.4639 14.1629 60.5756 14.125C60.6874 14.0871 60.783 14.0303 60.8626 13.9545C60.9421 13.8788 61.0027 13.786 61.0444 13.6761L62.1637 13.75C62.1069 14.0189 61.9904 14.2538 61.8143 14.4545C61.64 14.6534 61.4147 14.8087 61.1381 14.9205C60.8635 15.0303 60.5463 15.0852 60.1864 15.0852Z" fill="white"/>
<g filter="url(#filter1_d_1_2)">
<rect y="58" width="90" height="39" rx="2" fill="#2B333B"/>
<rect x="0.5" y="58.5" width="89" height="38" rx="1.5" stroke="#151F28"/>
</g>
<path d="M28.2507 70H26.9325L28.9411 64.1818H30.5263L32.532 70H31.2138L29.7564 65.5114H29.7109L28.2507 70ZM28.1683 67.7131H31.282V68.6733H28.1683V67.7131ZM33.2095 70V65.6364H34.3828V66.3977H34.4283C34.5078 66.1269 34.6413 65.9223 34.8288 65.7841C35.0163 65.6439 35.2322 65.5739 35.4766 65.5739C35.5372 65.5739 35.6025 65.5777 35.6726 65.5852C35.7427 65.5928 35.8042 65.6032 35.8572 65.6165V66.6903C35.8004 66.6733 35.7218 66.6581 35.6214 66.6449C35.5211 66.6316 35.4292 66.625 35.3459 66.625C35.1679 66.625 35.0088 66.6638 34.8686 66.7415C34.7304 66.8172 34.6205 66.9233 34.5391 67.0597C34.4595 67.196 34.4197 67.3532 34.4197 67.5312V70H33.2095ZM38.2685 70.0852C37.8196 70.0852 37.4332 69.9943 37.1094 69.8125C36.7874 69.6288 36.5393 69.3693 36.3651 69.0341C36.1908 68.697 36.1037 68.2983 36.1037 67.8381C36.1037 67.3892 36.1908 66.9953 36.3651 66.6562C36.5393 66.3172 36.7846 66.053 37.1009 65.8636C37.419 65.6742 37.7921 65.5795 38.2202 65.5795C38.508 65.5795 38.776 65.6259 39.0241 65.7188C39.2741 65.8097 39.492 65.947 39.6776 66.1307C39.8651 66.3144 40.0109 66.5455 40.1151 66.8239C40.2192 67.1004 40.2713 67.4242 40.2713 67.7955V68.1278H36.5866V67.3778H39.1321C39.1321 67.2036 39.0942 67.0492 39.0185 66.9148C38.9427 66.7803 38.8376 66.6752 38.7031 66.5994C38.5705 66.5218 38.4162 66.483 38.2401 66.483C38.0563 66.483 37.8935 66.5256 37.7514 66.6108C37.6113 66.6941 37.5014 66.8068 37.4219 66.9489C37.3423 67.089 37.3016 67.2453 37.2997 67.4176V68.1307C37.2997 68.3466 37.3395 68.5331 37.419 68.6903C37.5005 68.8475 37.6151 68.9688 37.7628 69.054C37.9105 69.1392 38.0857 69.1818 38.2884 69.1818C38.4228 69.1818 38.5459 69.1629 38.6577 69.125C38.7694 69.0871 38.8651 69.0303 38.9446 68.9545C39.0241 68.8788 39.0848 68.786 39.1264 68.6761L40.2457 68.75C40.1889 69.0189 40.0724 69.2538 39.8963 69.4545C39.7221 69.6534 39.4967 69.8087 39.2202 69.9205C38.9455 70.0303 38.6283 70.0852 38.2685 70.0852ZM45.2337 65.6364V66.5455H42.6058V65.6364H45.2337ZM43.2024 64.5909H44.4126V68.6591C44.4126 68.7708 44.4297 68.858 44.4638 68.9205C44.4979 68.9811 44.5452 69.0237 44.6058 69.0483C44.6683 69.0729 44.7403 69.0852 44.8217 69.0852C44.8786 69.0852 44.9354 69.0805 44.9922 69.071C45.049 69.0597 45.0926 69.0511 45.1229 69.0455L45.3132 69.946C45.2526 69.965 45.1674 69.9867 45.0575 70.0114C44.9477 70.0379 44.8142 70.054 44.657 70.0597C44.3653 70.071 44.1096 70.0322 43.8899 69.9432C43.6721 69.8542 43.5026 69.7159 43.3814 69.5284C43.2602 69.3409 43.2005 69.1042 43.2024 68.8182V64.5909ZM47.326 67.4773V70H46.1158V64.1818H47.2919V66.4062H47.343C47.4415 66.1487 47.6006 65.947 47.8203 65.8011C48.04 65.6534 48.3156 65.5795 48.647 65.5795C48.95 65.5795 49.2143 65.6458 49.4396 65.7784C49.6669 65.9091 49.843 66.0975 49.968 66.3438C50.0949 66.5881 50.1574 66.8807 50.1555 67.2216V70H48.9453V67.4375C48.9472 67.1686 48.879 66.9593 48.7408 66.8097C48.6044 66.66 48.4131 66.5852 48.1669 66.5852C48.0021 66.5852 47.8563 66.6203 47.7294 66.6903C47.6044 66.7604 47.5059 66.8627 47.4339 66.9972C47.3639 67.1297 47.3279 67.2898 47.326 67.4773ZM53.0966 70.0852C52.6477 70.0852 52.2614 69.9943 51.9375 69.8125C51.6155 69.6288 51.3674 69.3693 51.1932 69.0341C51.0189 68.697 50.9318 68.2983 50.9318 67.8381C50.9318 67.3892 51.0189 66.9953 51.1932 66.6562C51.3674 66.3172 51.6127 66.053 51.929 65.8636C52.2472 65.6742 52.6203 65.5795 53.0483 65.5795C53.3362 65.5795 53.6042 65.6259 53.8523 65.7188C54.1023 65.8097 54.3201 65.947 54.5057 66.1307C54.6932 66.3144 54.839 66.5455 54.9432 66.8239C55.0473 67.1004 55.0994 67.4242 55.0994 67.7955V68.1278H51.4148V67.3778H53.9602C53.9602 67.2036 53.9223 67.0492 53.8466 66.9148C53.7708 66.7803 53.6657 66.6752 53.5312 66.5994C53.3987 66.5218 53.2443 66.483 53.0682 66.483C52.8845 66.483 52.7216 66.5256 52.5795 66.6108C52.4394 66.6941 52.3295 66.8068 52.25 66.9489C52.1705 67.089 52.1297 67.2453 52.1278 67.4176V68.1307C52.1278 68.3466 52.1676 68.5331 52.2472 68.6903C52.3286 68.8475 52.4432 68.9688 52.5909 69.054C52.7386 69.1392 52.9138 69.1818 53.1165 69.1818C53.2509 69.1818 53.3741 69.1629 53.4858 69.125C53.5975 69.0871 53.6932 69.0303 53.7727 68.9545C53.8523 68.8788 53.9129 68.786 53.9545 68.6761L55.0739 68.75C55.017 69.0189 54.9006 69.2538 54.7244 69.4545C54.5502 69.6534 54.3248 69.8087 54.0483 69.9205C53.7737 70.0303 53.4564 70.0852 53.0966 70.0852ZM55.8892 70V65.6364H57.0625V66.3977H57.108C57.1875 66.1269 57.321 65.9223 57.5085 65.7841C57.696 65.6439 57.9119 65.5739 58.1562 65.5739C58.2169 65.5739 58.2822 65.5777 58.3523 65.5852C58.4223 65.5928 58.4839 65.6032 58.5369 65.6165V66.6903C58.4801 66.6733 58.4015 66.6581 58.3011 66.6449C58.2008 66.6316 58.1089 66.625 58.0256 66.625C57.8475 66.625 57.6884 66.6638 57.5483 66.7415C57.41 66.8172 57.3002 66.9233 57.2188 67.0597C57.1392 67.196 57.0994 67.3532 57.0994 67.5312V70H55.8892ZM60.9482 70.0852C60.4993 70.0852 60.1129 69.9943 59.7891 69.8125C59.4671 69.6288 59.219 69.3693 59.0447 69.0341C58.8705 68.697 58.7834 68.2983 58.7834 67.8381C58.7834 67.3892 58.8705 66.9953 59.0447 66.6562C59.219 66.3172 59.4643 66.053 59.7805 65.8636C60.0987 65.6742 60.4718 65.5795 60.8999 65.5795C61.1877 65.5795 61.4557 65.6259 61.7038 65.7188C61.9538 65.8097 62.1716 65.947 62.3572 66.1307C62.5447 66.3144 62.6906 66.5455 62.7947 66.8239C62.8989 67.1004 62.951 67.4242 62.951 67.7955V68.1278H59.2663V67.3778H61.8118C61.8118 67.2036 61.7739 67.0492 61.6982 66.9148C61.6224 66.7803 61.5173 66.6752 61.3828 66.5994C61.2502 66.5218 61.0959 66.483 60.9197 66.483C60.736 66.483 60.5732 66.5256 60.4311 66.6108C60.291 66.6941 60.1811 66.8068 60.1016 66.9489C60.022 67.089 59.9813 67.2453 59.9794 67.4176V68.1307C59.9794 68.3466 60.0192 68.5331 60.0987 68.6903C60.1802 68.8475 60.2947 68.9688 60.4425 69.054C60.5902 69.1392 60.7654 69.1818 60.968 69.1818C61.1025 69.1818 61.2256 69.1629 61.3374 69.125C61.4491 69.0871 61.5447 69.0303 61.6243 68.9545C61.7038 68.8788 61.7644 68.786 61.8061 68.6761L62.9254 68.75C62.8686 69.0189 62.7521 69.2538 62.576 69.4545C62.4018 69.6534 62.1764 69.8087 61.8999 69.9205C61.6252 70.0303 61.308 70.0852 60.9482 70.0852ZM19.1861 81.6364V75.6364H20.3793V76.3693H20.4332C20.4863 76.2519 20.563 76.1326 20.6634 76.0114C20.7656 75.8883 20.8982 75.786 21.0611 75.7045C21.2259 75.6212 21.4304 75.5795 21.6747 75.5795C21.9929 75.5795 22.2865 75.6629 22.5554 75.8295C22.8243 75.9943 23.0393 76.2434 23.2003 76.5767C23.3613 76.9081 23.4418 77.3239 23.4418 77.8239C23.4418 78.3106 23.3632 78.7216 23.206 79.0568C23.0507 79.3902 22.8385 79.643 22.5696 79.8153C22.3026 79.9858 22.0033 80.071 21.6719 80.071C21.437 80.071 21.2372 80.0322 21.0724 79.9545C20.9096 79.8769 20.776 79.7794 20.6719 79.6619C20.5677 79.5426 20.4882 79.4223 20.4332 79.3011H20.3963V81.6364H19.1861ZM20.3707 77.8182C20.3707 78.0777 20.4067 78.304 20.4787 78.4972C20.5507 78.6903 20.6548 78.8409 20.7912 78.9489C20.9276 79.0549 21.0933 79.108 21.2884 79.108C21.4853 79.108 21.652 79.054 21.7884 78.946C21.9247 78.8362 22.0279 78.6847 22.098 78.4915C22.17 78.2964 22.206 78.072 22.206 77.8182C22.206 77.5663 22.1709 77.3447 22.1009 77.1534C22.0308 76.9621 21.9276 76.8125 21.7912 76.7045C21.6548 76.5966 21.4872 76.5426 21.2884 76.5426C21.0914 76.5426 20.9247 76.5947 20.7884 76.6989C20.6539 76.803 20.5507 76.9508 20.4787 77.142C20.4067 77.3333 20.3707 77.5587 20.3707 77.8182ZM24.2486 80V75.6364H25.4219V76.3977H25.4673C25.5469 76.1269 25.6804 75.9223 25.8679 75.7841C26.0554 75.6439 26.2713 75.5739 26.5156 75.5739C26.5762 75.5739 26.6416 75.5777 26.7116 75.5852C26.7817 75.5928 26.8433 75.6032 26.8963 75.6165V76.6903C26.8395 76.6733 26.7609 76.6581 26.6605 76.6449C26.5601 76.6316 26.4683 76.625 26.3849 76.625C26.2069 76.625 26.0478 76.6638 25.9077 76.7415C25.7694 76.8172 25.6596 76.9233 25.5781 77.0597C25.4986 77.196 25.4588 77.3532 25.4588 77.5312V80H24.2486ZM29.3075 80.0852C28.8587 80.0852 28.4723 79.9943 28.1484 79.8125C27.8265 79.6288 27.5784 79.3693 27.4041 79.0341C27.2299 78.697 27.1428 78.2983 27.1428 77.8381C27.1428 77.3892 27.2299 76.9953 27.4041 76.6562C27.5784 76.3172 27.8236 76.053 28.1399 75.8636C28.4581 75.6742 28.8312 75.5795 29.2592 75.5795C29.5471 75.5795 29.8151 75.6259 30.0632 75.7188C30.3132 75.8097 30.531 75.947 30.7166 76.1307C30.9041 76.3144 31.05 76.5455 31.1541 76.8239C31.2583 77.1004 31.3104 77.4242 31.3104 77.7955V78.1278H27.6257V77.3778H30.1712C30.1712 77.2036 30.1333 77.0492 30.0575 76.9148C29.9818 76.7803 29.8767 76.6752 29.7422 76.5994C29.6096 76.5218 29.4553 76.483 29.2791 76.483C29.0954 76.483 28.9325 76.5256 28.7905 76.6108C28.6503 76.6941 28.5405 76.8068 28.4609 76.9489C28.3814 77.089 28.3407 77.2453 28.3388 77.4176V78.1307C28.3388 78.3466 28.3786 78.5331 28.4581 78.6903C28.5395 78.8475 28.6541 78.9688 28.8018 79.054C28.9496 79.1392 29.1248 79.1818 29.3274 79.1818C29.4619 79.1818 29.585 79.1629 29.6967 79.125C29.8085 79.0871 29.9041 79.0303 29.9837 78.9545C30.0632 78.8788 30.1238 78.786 30.1655 78.6761L31.2848 78.75C31.228 79.0189 31.1115 79.2538 30.9354 79.4545C30.7611 79.6534 30.5357 79.8087 30.2592 79.9205C29.9846 80.0303 29.6674 80.0852 29.3075 80.0852ZM32.1001 81.6364V75.6364H33.2933V76.3693H33.3473C33.4003 76.2519 33.477 76.1326 33.5774 76.0114C33.6797 75.8883 33.8123 75.786 33.9751 75.7045C34.1399 75.6212 34.3445 75.5795 34.5888 75.5795C34.907 75.5795 35.2005 75.6629 35.4695 75.8295C35.7384 75.9943 35.9534 76.2434 36.1143 76.5767C36.2753 76.9081 36.3558 77.3239 36.3558 77.8239C36.3558 78.3106 36.2772 78.7216 36.12 79.0568C35.9647 79.3902 35.7526 79.643 35.4837 79.8153C35.2166 79.9858 34.9174 80.071 34.5859 80.071C34.3511 80.071 34.1513 80.0322 33.9865 79.9545C33.8236 79.8769 33.6901 79.7794 33.5859 79.6619C33.4818 79.5426 33.4022 79.4223 33.3473 79.3011H33.3104V81.6364H32.1001ZM33.2848 77.8182C33.2848 78.0777 33.3208 78.304 33.3928 78.4972C33.4647 78.6903 33.5689 78.8409 33.7053 78.9489C33.8416 79.0549 34.0073 79.108 34.2024 79.108C34.3994 79.108 34.5661 79.054 34.7024 78.946C34.8388 78.8362 34.942 78.6847 35.0121 78.4915C35.084 78.2964 35.12 78.072 35.12 77.8182C35.12 77.5663 35.085 77.3447 35.0149 77.1534C34.9448 76.9621 34.8416 76.8125 34.7053 76.7045C34.5689 76.5966 34.4013 76.5426 34.2024 76.5426C34.0054 76.5426 33.8388 76.5947 33.7024 76.6989C33.5679 76.803 33.4647 76.9508 33.3928 77.142C33.3208 77.3333 33.2848 77.5587 33.2848 77.8182ZM37.1626 80V75.6364H38.3359V76.3977H38.3814C38.4609 76.1269 38.5945 75.9223 38.782 75.7841C38.9695 75.6439 39.1854 75.5739 39.4297 75.5739C39.4903 75.5739 39.5556 75.5777 39.6257 75.5852C39.6958 75.5928 39.7573 75.6032 39.8104 75.6165V76.6903C39.7536 76.6733 39.675 76.6581 39.5746 76.6449C39.4742 76.6316 39.3823 76.625 39.299 76.625C39.121 76.625 38.9619 76.6638 38.8217 76.7415C38.6835 76.8172 38.5736 76.9233 38.4922 77.0597C38.4126 77.196 38.3729 77.3532 38.3729 77.5312V80H37.1626ZM42.2045 80.0852C41.7633 80.0852 41.3816 79.9915 41.0597 79.804C40.7396 79.6146 40.4924 79.3513 40.3182 79.0142C40.1439 78.6752 40.0568 78.2822 40.0568 77.8352C40.0568 77.3845 40.1439 76.9905 40.3182 76.6534C40.4924 76.3144 40.7396 76.0511 41.0597 75.8636C41.3816 75.6742 41.7633 75.5795 42.2045 75.5795C42.6458 75.5795 43.0265 75.6742 43.3466 75.8636C43.6686 76.0511 43.9167 76.3144 44.0909 76.6534C44.2652 76.9905 44.3523 77.3845 44.3523 77.8352C44.3523 78.2822 44.2652 78.6752 44.0909 79.0142C43.9167 79.3513 43.6686 79.6146 43.3466 79.804C43.0265 79.9915 42.6458 80.0852 42.2045 80.0852ZM42.2102 79.1477C42.411 79.1477 42.5786 79.0909 42.7131 78.9773C42.8475 78.8617 42.9489 78.7045 43.017 78.5057C43.0871 78.3068 43.1222 78.0805 43.1222 77.8267C43.1222 77.5729 43.0871 77.3466 43.017 77.1477C42.9489 76.9489 42.8475 76.7917 42.7131 76.6761C42.5786 76.5606 42.411 76.5028 42.2102 76.5028C42.0076 76.5028 41.8371 76.5606 41.6989 76.6761C41.5625 76.7917 41.4593 76.9489 41.3892 77.1477C41.321 77.3466 41.2869 77.5729 41.2869 77.8267C41.2869 78.0805 41.321 78.3068 41.3892 78.5057C41.4593 78.7045 41.5625 78.8617 41.6989 78.9773C41.8371 79.0909 42.0076 79.1477 42.2102 79.1477ZM47.1108 80.0852C46.6638 80.0852 46.2794 79.9905 45.9574 79.8011C45.6373 79.6098 45.3911 79.3447 45.2188 79.0057C45.0483 78.6667 44.9631 78.2765 44.9631 77.8352C44.9631 77.3883 45.0492 76.9962 45.2216 76.6591C45.3958 76.3201 45.643 76.0559 45.9631 75.8665C46.2831 75.6752 46.6638 75.5795 47.1051 75.5795C47.4858 75.5795 47.8191 75.6487 48.1051 75.7869C48.3911 75.9252 48.6174 76.1193 48.7841 76.3693C48.9508 76.6193 49.0426 76.9129 49.0597 77.25H47.9176C47.8854 77.0322 47.8002 76.857 47.6619 76.7244C47.5256 76.59 47.3466 76.5227 47.125 76.5227C46.9375 76.5227 46.7737 76.5739 46.6335 76.6761C46.4953 76.7765 46.3873 76.9233 46.3097 77.1165C46.232 77.3097 46.1932 77.5436 46.1932 77.8182C46.1932 78.0966 46.2311 78.3333 46.3068 78.5284C46.3845 78.7235 46.4934 78.8722 46.6335 78.9744C46.7737 79.0767 46.9375 79.1278 47.125 79.1278C47.2633 79.1278 47.3873 79.0994 47.4972 79.0426C47.6089 78.9858 47.7008 78.9034 47.7727 78.7955C47.8466 78.6856 47.8949 78.554 47.9176 78.4006H49.0597C49.0407 78.7339 48.9498 79.0275 48.7869 79.2812C48.6259 79.5331 48.4034 79.7301 48.1193 79.8722C47.8352 80.0142 47.4991 80.0852 47.1108 80.0852ZM51.8232 80.0852C51.3743 80.0852 50.9879 79.9943 50.6641 79.8125C50.3421 79.6288 50.094 79.3693 49.9197 79.0341C49.7455 78.697 49.6584 78.2983 49.6584 77.8381C49.6584 77.3892 49.7455 76.9953 49.9197 76.6562C50.094 76.3172 50.3393 76.053 50.6555 75.8636C50.9737 75.6742 51.3468 75.5795 51.7749 75.5795C52.0627 75.5795 52.3307 75.6259 52.5788 75.7188C52.8288 75.8097 53.0466 75.947 53.2322 76.1307C53.4197 76.3144 53.5656 76.5455 53.6697 76.8239C53.7739 77.1004 53.826 77.4242 53.826 77.7955V78.1278H50.1413V77.3778H52.6868C52.6868 77.2036 52.6489 77.0492 52.5732 76.9148C52.4974 76.7803 52.3923 76.6752 52.2578 76.5994C52.1252 76.5218 51.9709 76.483 51.7947 76.483C51.611 76.483 51.4482 76.5256 51.3061 76.6108C51.166 76.6941 51.0561 76.8068 50.9766 76.9489C50.897 77.089 50.8563 77.2453 50.8544 77.4176V78.1307C50.8544 78.3466 50.8942 78.5331 50.9737 78.6903C51.0552 78.8475 51.1697 78.9688 51.3175 79.054C51.4652 79.1392 51.6404 79.1818 51.843 79.1818C51.9775 79.1818 52.1006 79.1629 52.2124 79.125C52.3241 79.0871 52.4197 79.0303 52.4993 78.9545C52.5788 78.8788 52.6394 78.786 52.6811 78.6761L53.8004 78.75C53.7436 79.0189 53.6271 79.2538 53.451 79.4545C53.2768 79.6534 53.0514 79.8087 52.7749 79.9205C52.5002 80.0303 52.183 80.0852 51.8232 80.0852ZM58.2464 76.8807L57.1385 76.9489C57.1196 76.8542 57.0788 76.7689 57.0163 76.6932C56.9538 76.6155 56.8714 76.554 56.7692 76.5085C56.6688 76.4612 56.5485 76.4375 56.4084 76.4375C56.2209 76.4375 56.0627 76.4773 55.9339 76.5568C55.8052 76.6345 55.7408 76.7386 55.7408 76.8693C55.7408 76.9735 55.7824 77.0616 55.8658 77.1335C55.9491 77.2055 56.0921 77.2633 56.2947 77.3068L57.0845 77.4659C57.5088 77.553 57.825 77.6932 58.0334 77.8864C58.2417 78.0795 58.3459 78.3333 58.3459 78.6477C58.3459 78.9337 58.2616 79.1847 58.093 79.4006C57.9264 79.6165 57.6972 79.785 57.4055 79.9062C57.1158 80.0256 56.7815 80.0852 56.4027 80.0852C55.825 80.0852 55.3648 79.965 55.022 79.7244C54.6811 79.482 54.4813 79.1525 54.4226 78.7358L55.6129 78.6733C55.6489 78.8494 55.736 78.9839 55.8743 79.0767C56.0125 79.1676 56.1896 79.2131 56.4055 79.2131C56.6177 79.2131 56.7881 79.1723 56.9169 79.0909C57.0476 79.0076 57.1139 78.9006 57.1158 78.7699C57.1139 78.66 57.0675 78.5701 56.9766 78.5C56.8857 78.428 56.7455 78.3731 56.5561 78.3352L55.8004 78.1847C55.3743 78.0994 55.0571 77.9517 54.8487 77.7415C54.6423 77.5312 54.5391 77.2633 54.5391 76.9375C54.5391 76.6572 54.6148 76.4157 54.7663 76.2131C54.9197 76.0104 55.1347 75.8542 55.4112 75.7443C55.6896 75.6345 56.0154 75.5795 56.3885 75.5795C56.9396 75.5795 57.3733 75.696 57.6896 75.929C58.0078 76.1619 58.1934 76.4792 58.2464 76.8807ZM62.7386 76.8807L61.6307 76.9489C61.6117 76.8542 61.571 76.7689 61.5085 76.6932C61.446 76.6155 61.3636 76.554 61.2614 76.5085C61.161 76.4612 61.0407 76.4375 60.9006 76.4375C60.7131 76.4375 60.5549 76.4773 60.4261 76.5568C60.2973 76.6345 60.233 76.7386 60.233 76.8693C60.233 76.9735 60.2746 77.0616 60.358 77.1335C60.4413 77.2055 60.5843 77.2633 60.7869 77.3068L61.5767 77.4659C62.0009 77.553 62.3172 77.6932 62.5256 77.8864C62.7339 78.0795 62.8381 78.3333 62.8381 78.6477C62.8381 78.9337 62.7538 79.1847 62.5852 79.4006C62.4186 79.6165 62.1894 79.785 61.8977 79.9062C61.608 80.0256 61.2737 80.0852 60.8949 80.0852C60.3172 80.0852 59.857 79.965 59.5142 79.7244C59.1733 79.482 58.9735 79.1525 58.9148 78.7358L60.1051 78.6733C60.1411 78.8494 60.2282 78.9839 60.3665 79.0767C60.5047 79.1676 60.6818 79.2131 60.8977 79.2131C61.1098 79.2131 61.2803 79.1723 61.4091 79.0909C61.5398 79.0076 61.6061 78.9006 61.608 78.7699C61.6061 78.66 61.5597 78.5701 61.4688 78.5C61.3778 78.428 61.2377 78.3731 61.0483 78.3352L60.2926 78.1847C59.8665 78.0994 59.5492 77.9517 59.3409 77.7415C59.1345 77.5312 59.0312 77.2633 59.0312 76.9375C59.0312 76.6572 59.107 76.4157 59.2585 76.2131C59.4119 76.0104 59.6269 75.8542 59.9034 75.7443C60.1818 75.6345 60.5076 75.5795 60.8807 75.5795C61.4318 75.5795 61.8655 75.696 62.1818 75.929C62.5 76.1619 62.6856 76.4792 62.7386 76.8807ZM65.5717 80.0852C65.1304 80.0852 64.7488 79.9915 64.4268 79.804C64.1068 79.6146 63.8596 79.3513 63.6854 79.0142C63.5111 78.6752 63.424 78.2822 63.424 77.8352C63.424 77.3845 63.5111 76.9905 63.6854 76.6534C63.8596 76.3144 64.1068 76.0511 64.4268 75.8636C64.7488 75.6742 65.1304 75.5795 65.5717 75.5795C66.013 75.5795 66.3937 75.6742 66.7138 75.8636C67.0357 76.0511 67.2839 76.3144 67.4581 76.6534C67.6323 76.9905 67.7195 77.3845 67.7195 77.8352C67.7195 78.2822 67.6323 78.6752 67.4581 79.0142C67.2839 79.3513 67.0357 79.6146 66.7138 79.804C66.3937 79.9915 66.013 80.0852 65.5717 80.0852ZM65.5774 79.1477C65.7782 79.1477 65.9458 79.0909 66.0803 78.9773C66.2147 78.8617 66.3161 78.7045 66.3842 78.5057C66.4543 78.3068 66.4893 78.0805 66.4893 77.8267C66.4893 77.5729 66.4543 77.3466 66.3842 77.1477C66.3161 76.9489 66.2147 76.7917 66.0803 76.6761C65.9458 76.5606 65.7782 76.5028 65.5774 76.5028C65.3748 76.5028 65.2043 76.5606 65.0661 76.6761C64.9297 76.7917 64.8265 76.9489 64.7564 77.1477C64.6882 77.3466 64.6541 77.5729 64.6541 77.8267C64.6541 78.0805 64.6882 78.3068 64.7564 78.5057C64.8265 78.7045 64.9297 78.8617 65.0661 78.9773C65.2043 79.0909 65.3748 79.1477 65.5774 79.1477ZM68.5064 80V75.6364H69.6797V76.3977H69.7251C69.8047 76.1269 69.9382 75.9223 70.1257 75.7841C70.3132 75.6439 70.5291 75.5739 70.7734 75.5739C70.834 75.5739 70.8994 75.5777 70.9695 75.5852C71.0395 75.5928 71.1011 75.6032 71.1541 75.6165V76.6903C71.0973 76.6733 71.0187 76.6581 70.9183 76.6449C70.8179 76.6316 70.7261 76.625 70.6428 76.625C70.4647 76.625 70.3056 76.6638 70.1655 76.7415C70.0272 76.8172 69.9174 76.9233 69.8359 77.0597C69.7564 77.196 69.7166 77.3532 69.7166 77.5312V80H68.5064ZM25.38 90.071C25.0485 90.071 24.7483 89.9858 24.4794 89.8153C24.2124 89.643 24.0002 89.3902 23.843 89.0568C23.6877 88.7216 23.6101 88.3106 23.6101 87.8239C23.6101 87.3239 23.6906 86.9081 23.8516 86.5767C24.0125 86.2434 24.2266 85.9943 24.4936 85.8295C24.7625 85.6629 25.0571 85.5795 25.3771 85.5795C25.6214 85.5795 25.825 85.6212 25.9879 85.7045C26.1527 85.786 26.2853 85.8883 26.3857 86.0114C26.4879 86.1326 26.5656 86.2519 26.6186 86.3693H26.6555V84.1818H27.8629V90H26.6697V89.3011H26.6186C26.5618 89.4223 26.4813 89.5426 26.3771 89.6619C26.2749 89.7794 26.1413 89.8769 25.9766 89.9545C25.8137 90.0322 25.6148 90.071 25.38 90.071ZM25.7635 89.108C25.9586 89.108 26.1233 89.0549 26.2578 88.9489C26.3942 88.8409 26.4983 88.6903 26.5703 88.4972C26.6442 88.304 26.6811 88.0777 26.6811 87.8182C26.6811 87.5587 26.6451 87.3333 26.5732 87.142C26.5012 86.9508 26.397 86.803 26.2607 86.6989C26.1243 86.5947 25.9586 86.5426 25.7635 86.5426C25.5646 86.5426 25.397 86.5966 25.2607 86.7045C25.1243 86.8125 25.0211 86.9621 24.951 87.1534C24.8809 87.3447 24.8459 87.5663 24.8459 87.8182C24.8459 88.072 24.8809 88.2964 24.951 88.4915C25.023 88.6847 25.1262 88.8362 25.2607 88.946C25.397 89.054 25.5646 89.108 25.7635 89.108ZM28.858 90V85.6364H30.0682V90H28.858ZM29.4659 85.0739C29.286 85.0739 29.1316 85.0142 29.0028 84.8949C28.8759 84.7737 28.8125 84.6288 28.8125 84.4602C28.8125 84.2936 28.8759 84.1506 29.0028 84.0312C29.1316 83.91 29.286 83.8494 29.4659 83.8494C29.6458 83.8494 29.7992 83.91 29.9261 84.0312C30.0549 84.1506 30.1193 84.2936 30.1193 84.4602C30.1193 84.6288 30.0549 84.7737 29.9261 84.8949C29.7992 85.0142 29.6458 85.0739 29.4659 85.0739ZM31.0376 90V85.6364H32.2109V86.3977H32.2564C32.3359 86.1269 32.4695 85.9223 32.657 85.7841C32.8445 85.6439 33.0604 85.5739 33.3047 85.5739C33.3653 85.5739 33.4306 85.5777 33.5007 85.5852C33.5708 85.5928 33.6323 85.6032 33.6854 85.6165V86.6903C33.6286 86.6733 33.55 86.6581 33.4496 86.6449C33.3492 86.6316 33.2573 86.625 33.174 86.625C32.996 86.625 32.8369 86.6638 32.6967 86.7415C32.5585 86.8172 32.4486 86.9233 32.3672 87.0597C32.2876 87.196 32.2479 87.3532 32.2479 87.5312V90H31.0376ZM36.0966 90.0852C35.6477 90.0852 35.2614 89.9943 34.9375 89.8125C34.6155 89.6288 34.3674 89.3693 34.1932 89.0341C34.0189 88.697 33.9318 88.2983 33.9318 87.8381C33.9318 87.3892 34.0189 86.9953 34.1932 86.6562C34.3674 86.3172 34.6127 86.053 34.929 85.8636C35.2472 85.6742 35.6203 85.5795 36.0483 85.5795C36.3362 85.5795 36.6042 85.6259 36.8523 85.7188C37.1023 85.8097 37.3201 85.947 37.5057 86.1307C37.6932 86.3144 37.839 86.5455 37.9432 86.8239C38.0473 87.1004 38.0994 87.4242 38.0994 87.7955V88.1278H34.4148V87.3778H36.9602C36.9602 87.2036 36.9223 87.0492 36.8466 86.9148C36.7708 86.7803 36.6657 86.6752 36.5312 86.5994C36.3987 86.5218 36.2443 86.483 36.0682 86.483C35.8845 86.483 35.7216 86.5256 35.5795 86.6108C35.4394 86.6941 35.3295 86.8068 35.25 86.9489C35.1705 87.089 35.1297 87.2453 35.1278 87.4176V88.1307C35.1278 88.3466 35.1676 88.5331 35.2472 88.6903C35.3286 88.8475 35.4432 88.9688 35.5909 89.054C35.7386 89.1392 35.9138 89.1818 36.1165 89.1818C36.2509 89.1818 36.3741 89.1629 36.4858 89.125C36.5975 89.0871 36.6932 89.0303 36.7727 88.9545C36.8523 88.8788 36.9129 88.786 36.9545 88.6761L38.0739 88.75C38.017 89.0189 37.9006 89.2538 37.7244 89.4545C37.5502 89.6534 37.3248 89.8087 37.0483 89.9205C36.7737 90.0303 36.4564 90.0852 36.0966 90.0852ZM40.8608 90.0852C40.4138 90.0852 40.0294 89.9905 39.7074 89.8011C39.3873 89.6098 39.1411 89.3447 38.9688 89.0057C38.7983 88.6667 38.7131 88.2765 38.7131 87.8352C38.7131 87.3883 38.7992 86.9962 38.9716 86.6591C39.1458 86.3201 39.393 86.0559 39.7131 85.8665C40.0331 85.6752 40.4138 85.5795 40.8551 85.5795C41.2358 85.5795 41.5691 85.6487 41.8551 85.7869C42.1411 85.9252 42.3674 86.1193 42.5341 86.3693C42.7008 86.6193 42.7926 86.9129 42.8097 87.25H41.6676C41.6354 87.0322 41.5502 86.857 41.4119 86.7244C41.2756 86.59 41.0966 86.5227 40.875 86.5227C40.6875 86.5227 40.5237 86.5739 40.3835 86.6761C40.2453 86.7765 40.1373 86.9233 40.0597 87.1165C39.982 87.3097 39.9432 87.5436 39.9432 87.8182C39.9432 88.0966 39.9811 88.3333 40.0568 88.5284C40.1345 88.7235 40.2434 88.8722 40.3835 88.9744C40.5237 89.0767 40.6875 89.1278 40.875 89.1278C41.0133 89.1278 41.1373 89.0994 41.2472 89.0426C41.3589 88.9858 41.4508 88.9034 41.5227 88.7955C41.5966 88.6856 41.6449 88.554 41.6676 88.4006H42.8097C42.7907 88.7339 42.6998 89.0275 42.5369 89.2812C42.3759 89.5331 42.1534 89.7301 41.8693 89.8722C41.5852 90.0142 41.2491 90.0852 40.8608 90.0852ZM45.9055 85.6364V86.5455H43.2777V85.6364H45.9055ZM43.8743 84.5909H45.0845V88.6591C45.0845 88.7708 45.1016 88.858 45.1357 88.9205C45.1697 88.9811 45.2171 89.0237 45.2777 89.0483C45.3402 89.0729 45.4122 89.0852 45.4936 89.0852C45.5504 89.0852 45.6072 89.0805 45.6641 89.071C45.7209 89.0597 45.7644 89.0511 45.7947 89.0455L45.9851 89.946C45.9245 89.965 45.8393 89.9867 45.7294 90.0114C45.6196 90.0379 45.486 90.054 45.3288 90.0597C45.0372 90.071 44.7815 90.0322 44.5618 89.9432C44.344 89.8542 44.1745 89.7159 44.0533 89.5284C43.9321 89.3409 43.8724 89.1042 43.8743 88.8182V84.5909ZM46.6939 90V85.6364H47.9041V90H46.6939ZM47.3018 85.0739C47.1219 85.0739 46.9676 85.0142 46.8388 84.8949C46.7119 84.7737 46.6484 84.6288 46.6484 84.4602C46.6484 84.2936 46.7119 84.1506 46.8388 84.0312C46.9676 83.91 47.1219 83.8494 47.3018 83.8494C47.4818 83.8494 47.6352 83.91 47.7621 84.0312C47.8909 84.1506 47.9553 84.2936 47.9553 84.4602C47.9553 84.6288 47.8909 84.7737 47.7621 84.8949C47.6352 85.0142 47.4818 85.0739 47.3018 85.0739ZM52.9418 85.6364L51.4162 90H50.0526L48.527 85.6364H49.8054L50.7116 88.7585H50.7571L51.6605 85.6364H52.9418ZM55.4091 90.0852C54.9602 90.0852 54.5739 89.9943 54.25 89.8125C53.928 89.6288 53.6799 89.3693 53.5057 89.0341C53.3314 88.697 53.2443 88.2983 53.2443 87.8381C53.2443 87.3892 53.3314 86.9953 53.5057 86.6562C53.6799 86.3172 53.9252 86.053 54.2415 85.8636C54.5597 85.6742 54.9328 85.5795 55.3608 85.5795C55.6487 85.5795 55.9167 85.6259 56.1648 85.7188C56.4148 85.8097 56.6326 85.947 56.8182 86.1307C57.0057 86.3144 57.1515 86.5455 57.2557 86.8239C57.3598 87.1004 57.4119 87.4242 57.4119 87.7955V88.1278H53.7273V87.3778H56.2727C56.2727 87.2036 56.2348 87.0492 56.1591 86.9148C56.0833 86.7803 55.9782 86.6752 55.8438 86.5994C55.7112 86.5218 55.5568 86.483 55.3807 86.483C55.197 86.483 55.0341 86.5256 54.892 86.6108C54.7519 86.6941 54.642 86.8068 54.5625 86.9489C54.483 87.089 54.4422 87.2453 54.4403 87.4176V88.1307C54.4403 88.3466 54.4801 88.5331 54.5597 88.6903C54.6411 88.8475 54.7557 88.9688 54.9034 89.054C55.0511 89.1392 55.2263 89.1818 55.429 89.1818C55.5634 89.1818 55.6866 89.1629 55.7983 89.125C55.91 89.0871 56.0057 89.0303 56.0852 88.9545C56.1648 88.8788 56.2254 88.786 56.267 88.6761L57.3864 88.75C57.3295 89.0189 57.2131 89.2538 57.0369 89.4545C56.8627 89.6534 56.6373 89.8087 56.3608 89.9205C56.0862 90.0303 55.7689 90.0852 55.4091 90.0852ZM61.8324 86.8807L60.7244 86.9489C60.7055 86.8542 60.6648 86.7689 60.6023 86.6932C60.5398 86.6155 60.4574 86.554 60.3551 86.5085C60.2547 86.4612 60.1345 86.4375 59.9943 86.4375C59.8068 86.4375 59.6487 86.4773 59.5199 86.5568C59.3911 86.6345 59.3267 86.7386 59.3267 86.8693C59.3267 86.9735 59.3684 87.0616 59.4517 87.1335C59.535 87.2055 59.678 87.2633 59.8807 87.3068L60.6705 87.4659C61.0947 87.553 61.411 87.6932 61.6193 87.8864C61.8277 88.0795 61.9318 88.3333 61.9318 88.6477C61.9318 88.9337 61.8475 89.1847 61.679 89.4006C61.5123 89.6165 61.2831 89.785 60.9915 89.9062C60.7017 90.0256 60.3674 90.0852 59.9886 90.0852C59.411 90.0852 58.9508 89.965 58.608 89.7244C58.267 89.482 58.0672 89.1525 58.0085 88.7358L59.1989 88.6733C59.2348 88.8494 59.322 88.9839 59.4602 89.0767C59.5985 89.1676 59.7756 89.2131 59.9915 89.2131C60.2036 89.2131 60.3741 89.1723 60.5028 89.0909C60.6335 89.0076 60.6998 88.9006 60.7017 88.7699C60.6998 88.66 60.6534 88.5701 60.5625 88.5C60.4716 88.428 60.3314 88.3731 60.142 88.3352L59.3864 88.1847C58.9602 88.0994 58.643 87.9517 58.4347 87.7415C58.2282 87.5312 58.125 87.2633 58.125 86.9375C58.125 86.6572 58.2008 86.4157 58.3523 86.2131C58.5057 86.0104 58.7206 85.8542 58.9972 85.7443C59.2756 85.6345 59.6013 85.5795 59.9744 85.5795C60.5256 85.5795 60.9593 85.696 61.2756 85.929C61.5938 86.1619 61.7794 86.4792 61.8324 86.8807ZM63.7337 88.2557V88.1591C63.7356 87.8277 63.7649 87.5634 63.8217 87.3665C63.8804 87.1695 63.9657 87.0104 64.0774 86.8892C64.1892 86.768 64.3236 86.6581 64.4808 86.5597C64.5982 86.4839 64.7034 86.4053 64.7962 86.3239C64.889 86.2424 64.9628 86.1525 65.0178 86.054C65.0727 85.9536 65.1001 85.8419 65.1001 85.7188C65.1001 85.5881 65.0689 85.4735 65.0064 85.375C64.9439 85.2765 64.8596 85.2008 64.7536 85.1477C64.6494 85.0947 64.5339 85.0682 64.407 85.0682C64.2839 85.0682 64.1674 85.0956 64.0575 85.1506C63.9477 85.2036 63.8577 85.2831 63.7876 85.3892C63.7176 85.4934 63.6797 85.6231 63.674 85.7784H62.5149C62.5244 85.3996 62.6153 85.0871 62.7876 84.8409C62.96 84.5928 63.1882 84.4081 63.4723 84.2869C63.7564 84.1638 64.0698 84.1023 64.4126 84.1023C64.7895 84.1023 65.1229 84.1648 65.4126 84.2898C65.7024 84.4129 65.9297 84.5919 66.0945 84.8267C66.2592 85.0616 66.3416 85.3447 66.3416 85.6761C66.3416 85.8977 66.3047 86.0947 66.2308 86.267C66.1589 86.4375 66.0575 86.589 65.9268 86.7216C65.7962 86.8523 65.6418 86.9706 65.4638 87.0767C65.3142 87.1657 65.1911 87.2585 65.0945 87.3551C64.9998 87.4517 64.9287 87.5634 64.8814 87.6903C64.8359 87.8172 64.8123 87.9735 64.8104 88.1591V88.2557H63.7337ZM64.2962 90.0739C64.1068 90.0739 63.9448 90.0076 63.8104 89.875C63.6778 89.7405 63.6125 89.5795 63.6143 89.392C63.6125 89.2064 63.6778 89.0473 63.8104 88.9148C63.9448 88.7822 64.1068 88.7159 64.2962 88.7159C64.4761 88.7159 64.6342 88.7822 64.7706 88.9148C64.907 89.0473 64.9761 89.2064 64.978 89.392C64.9761 89.517 64.9429 89.6316 64.8786 89.7358C64.8161 89.8381 64.7337 89.9205 64.6314 89.983C64.5291 90.0436 64.4174 90.0739 64.2962 90.0739Z" fill="white"/>
<g filter="url(#filter2_d_1_2)">
<rect y="130" width="76" height="25" rx="2" fill="#2B333B"/>
<rect x="0.5" y="130.5" width="75" height="24" rx="1.5" stroke="#151F28"/>
</g>
<path d="M17.1658 140.855C17.1431 140.626 17.0456 140.448 16.8732 140.321C16.7009 140.194 16.467 140.131 16.1715 140.131C15.9708 140.131 15.8013 140.159 15.663 140.216C15.5247 140.271 15.4187 140.348 15.3448 140.446C15.2728 140.545 15.2369 140.656 15.2369 140.781C15.2331 140.885 15.2549 140.976 15.3022 141.054C15.3514 141.132 15.4187 141.199 15.5039 141.256C15.5891 141.311 15.6876 141.359 15.7994 141.401C15.9111 141.44 16.0304 141.474 16.1573 141.503L16.68 141.628C16.9338 141.685 17.1668 141.76 17.3789 141.855C17.591 141.95 17.7747 142.066 17.93 142.205C18.0853 142.343 18.2056 142.506 18.2908 142.693C18.378 142.881 18.4225 143.096 18.4244 143.338C18.4225 143.694 18.3316 144.003 18.1516 144.264C17.9736 144.524 17.716 144.725 17.3789 144.869C17.0437 145.011 16.6393 145.082 16.1658 145.082C15.6961 145.082 15.2871 145.01 14.9386 144.866C14.592 144.723 14.3211 144.509 14.1261 144.227C13.9329 143.943 13.8316 143.592 13.8221 143.173H15.0124C15.0257 143.368 15.0816 143.531 15.18 143.662C15.2804 143.791 15.4139 143.888 15.5806 143.955C15.7492 144.019 15.9395 144.051 16.1516 144.051C16.36 144.051 16.5408 144.021 16.6942 143.96C16.8496 143.9 16.9698 143.815 17.055 143.707C17.1403 143.599 17.1829 143.475 17.1829 143.335C17.1829 143.205 17.1441 143.095 17.0664 143.006C16.9906 142.917 16.8789 142.841 16.7312 142.778C16.5853 142.716 16.4064 142.659 16.1942 142.608L15.5607 142.449C15.0702 142.33 14.6829 142.143 14.3988 141.889C14.1147 141.635 13.9736 141.294 13.9755 140.864C13.9736 140.511 14.0674 140.204 14.2567 139.94C14.448 139.677 14.7103 139.472 15.0437 139.324C15.377 139.176 15.7558 139.102 16.18 139.102C16.6119 139.102 16.9888 139.176 17.3107 139.324C17.6346 139.472 17.8865 139.677 18.0664 139.94C18.2463 140.204 18.3391 140.509 18.3448 140.855H17.1658ZM21.2006 145.085C20.7594 145.085 20.3777 144.991 20.0558 144.804C19.7357 144.615 19.4885 144.351 19.3143 144.014C19.14 143.675 19.0529 143.282 19.0529 142.835C19.0529 142.384 19.14 141.991 19.3143 141.653C19.4885 141.314 19.7357 141.051 20.0558 140.864C20.3777 140.674 20.7594 140.58 21.2006 140.58C21.6419 140.58 22.0226 140.674 22.3427 140.864C22.6647 141.051 22.9128 141.314 23.087 141.653C23.2612 141.991 23.3484 142.384 23.3484 142.835C23.3484 143.282 23.2612 143.675 23.087 144.014C22.9128 144.351 22.6647 144.615 22.3427 144.804C22.0226 144.991 21.6419 145.085 21.2006 145.085ZM21.2063 144.148C21.4071 144.148 21.5747 144.091 21.7092 143.977C21.8436 143.862 21.945 143.705 22.0131 143.506C22.0832 143.307 22.1183 143.08 22.1183 142.827C22.1183 142.573 22.0832 142.347 22.0131 142.148C21.945 141.949 21.8436 141.792 21.7092 141.676C21.5747 141.561 21.4071 141.503 21.2063 141.503C21.0037 141.503 20.8332 141.561 20.695 141.676C20.5586 141.792 20.4554 141.949 20.3853 142.148C20.3171 142.347 20.283 142.573 20.283 142.827C20.283 143.08 20.3171 143.307 20.3853 143.506C20.4554 143.705 20.5586 143.862 20.695 143.977C20.8332 144.091 21.0037 144.148 21.2063 144.148ZM26.9336 143.142V140.636H28.1438V145H26.9819V144.207H26.9364C26.8379 144.463 26.6741 144.669 26.445 144.824C26.2177 144.979 25.9402 145.057 25.6126 145.057C25.3209 145.057 25.0643 144.991 24.8427 144.858C24.6211 144.725 24.4478 144.537 24.3228 144.293C24.1997 144.048 24.1372 143.756 24.1353 143.415V140.636H25.3455V143.199C25.3474 143.456 25.4165 143.66 25.5529 143.81C25.6893 143.959 25.872 144.034 26.1012 144.034C26.247 144.034 26.3834 144.001 26.5103 143.935C26.6372 143.866 26.7395 143.766 26.8171 143.634C26.8967 143.501 26.9355 143.337 26.9336 143.142ZM29.1119 145V140.636H30.2852V141.398H30.3306C30.4102 141.127 30.5437 140.922 30.7312 140.784C30.9187 140.644 31.1346 140.574 31.3789 140.574C31.4395 140.574 31.5049 140.578 31.5749 140.585C31.645 140.593 31.7066 140.603 31.7596 140.616V141.69C31.7028 141.673 31.6242 141.658 31.5238 141.645C31.4234 141.632 31.3316 141.625 31.2482 141.625C31.0702 141.625 30.9111 141.664 30.771 141.741C30.6327 141.817 30.5228 141.923 30.4414 142.06C30.3619 142.196 30.3221 142.353 30.3221 142.531V145H29.1119ZM34.1538 145.085C33.7068 145.085 33.3223 144.991 33.0004 144.801C32.6803 144.61 32.4341 144.345 32.2617 144.006C32.0913 143.667 32.006 143.277 32.006 142.835C32.006 142.388 32.0922 141.996 32.2646 141.659C32.4388 141.32 32.686 141.056 33.006 140.866C33.3261 140.675 33.7068 140.58 34.1481 140.58C34.5288 140.58 34.8621 140.649 35.1481 140.787C35.4341 140.925 35.6604 141.119 35.8271 141.369C35.9937 141.619 36.0856 141.913 36.1026 142.25H34.9606C34.9284 142.032 34.8432 141.857 34.7049 141.724C34.5685 141.59 34.3896 141.523 34.168 141.523C33.9805 141.523 33.8166 141.574 33.6765 141.676C33.5382 141.777 33.4303 141.923 33.3526 142.116C33.275 142.31 33.2362 142.544 33.2362 142.818C33.2362 143.097 33.274 143.333 33.3498 143.528C33.4274 143.723 33.5363 143.872 33.6765 143.974C33.8166 144.077 33.9805 144.128 34.168 144.128C34.3062 144.128 34.4303 144.099 34.5401 144.043C34.6519 143.986 34.7437 143.903 34.8157 143.795C34.8896 143.686 34.9379 143.554 34.9606 143.401H36.1026C36.0837 143.734 35.9928 144.027 35.8299 144.281C35.6689 144.533 35.4464 144.73 35.1623 144.872C34.8782 145.014 34.542 145.085 34.1538 145.085ZM38.8661 145.085C38.4173 145.085 38.0309 144.994 37.707 144.812C37.3851 144.629 37.137 144.369 36.9627 144.034C36.7885 143.697 36.7013 143.298 36.7013 142.838C36.7013 142.389 36.7885 141.995 36.9627 141.656C37.137 141.317 37.3822 141.053 37.6985 140.864C38.0167 140.674 38.3898 140.58 38.8178 140.58C39.1057 140.58 39.3737 140.626 39.6218 140.719C39.8718 140.81 40.0896 140.947 40.2752 141.131C40.4627 141.314 40.6085 141.545 40.7127 141.824C40.8169 142.1 40.869 142.424 40.869 142.795V143.128H37.1843V142.378H39.7298C39.7298 142.204 39.6919 142.049 39.6161 141.915C39.5404 141.78 39.4353 141.675 39.3008 141.599C39.1682 141.522 39.0138 141.483 38.8377 141.483C38.654 141.483 38.4911 141.526 38.3491 141.611C38.2089 141.694 38.0991 141.807 38.0195 141.949C37.94 142.089 37.8993 142.245 37.8974 142.418V143.131C37.8974 143.347 37.9371 143.533 38.0167 143.69C38.0981 143.848 38.2127 143.969 38.3604 144.054C38.5082 144.139 38.6834 144.182 38.886 144.182C39.0205 144.182 39.1436 144.163 39.2553 144.125C39.3671 144.087 39.4627 144.03 39.5423 143.955C39.6218 143.879 39.6824 143.786 39.7241 143.676L40.8434 143.75C40.7866 144.019 40.6701 144.254 40.494 144.455C40.3197 144.653 40.0943 144.809 39.8178 144.92C39.5432 145.03 39.226 145.085 38.8661 145.085ZM45.4819 145.085C45.0349 145.085 44.6504 144.991 44.3285 144.801C44.0084 144.61 43.7622 144.345 43.5898 144.006C43.4194 143.667 43.3342 143.277 43.3342 142.835C43.3342 142.388 43.4203 141.996 43.5927 141.659C43.7669 141.32 44.0141 141.056 44.3342 140.866C44.6542 140.675 45.0349 140.58 45.4762 140.58C45.8569 140.58 46.1902 140.649 46.4762 140.787C46.7622 140.925 46.9885 141.119 47.1552 141.369C47.3219 141.619 47.4137 141.913 47.4308 142.25H46.2887C46.2565 142.032 46.1713 141.857 46.033 141.724C45.8967 141.59 45.7177 141.523 45.4961 141.523C45.3086 141.523 45.1448 141.574 45.0046 141.676C44.8664 141.777 44.7584 141.923 44.6808 142.116C44.6031 142.31 44.5643 142.544 44.5643 142.818C44.5643 143.097 44.6022 143.333 44.6779 143.528C44.7556 143.723 44.8645 143.872 45.0046 143.974C45.1448 144.077 45.3086 144.128 45.4961 144.128C45.6344 144.128 45.7584 144.099 45.8683 144.043C45.98 143.986 46.0719 143.903 46.1438 143.795C46.2177 143.686 46.266 143.554 46.2887 143.401H47.4308C47.4118 143.734 47.3209 144.027 47.158 144.281C46.997 144.533 46.7745 144.73 46.4904 144.872C46.2063 145.014 45.8701 145.085 45.4819 145.085ZM50.1772 145.085C49.7359 145.085 49.3543 144.991 49.0323 144.804C48.7122 144.615 48.4651 144.351 48.2908 144.014C48.1166 143.675 48.0295 143.282 48.0295 142.835C48.0295 142.384 48.1166 141.991 48.2908 141.653C48.4651 141.314 48.7122 141.051 49.0323 140.864C49.3543 140.674 49.7359 140.58 50.1772 140.58C50.6185 140.58 50.9992 140.674 51.3192 140.864C51.6412 141.051 51.8893 141.314 52.0636 141.653C52.2378 141.991 52.3249 142.384 52.3249 142.835C52.3249 143.282 52.2378 143.675 52.0636 144.014C51.8893 144.351 51.6412 144.615 51.3192 144.804C50.9992 144.991 50.6185 145.085 50.1772 145.085ZM50.1829 144.148C50.3836 144.148 50.5513 144.091 50.6857 143.977C50.8202 143.862 50.9215 143.705 50.9897 143.506C51.0598 143.307 51.0948 143.08 51.0948 142.827C51.0948 142.573 51.0598 142.347 50.9897 142.148C50.9215 141.949 50.8202 141.792 50.6857 141.676C50.5513 141.561 50.3836 141.503 50.1829 141.503C49.9802 141.503 49.8098 141.561 49.6715 141.676C49.5352 141.792 49.4319 141.949 49.3619 142.148C49.2937 142.347 49.2596 142.573 49.2596 142.827C49.2596 143.08 49.2937 143.307 49.3619 143.506C49.4319 143.705 49.5352 143.862 49.6715 143.977C49.8098 144.091 49.9802 144.148 50.1829 144.148ZM54.7198 145.071C54.3884 145.071 54.0882 144.986 53.8192 144.815C53.5522 144.643 53.3401 144.39 53.1829 144.057C53.0276 143.722 52.9499 143.311 52.9499 142.824C52.9499 142.324 53.0304 141.908 53.1914 141.577C53.3524 141.243 53.5664 140.994 53.8335 140.83C54.1024 140.663 54.3969 140.58 54.717 140.58C54.9613 140.58 55.1649 140.621 55.3278 140.705C55.4925 140.786 55.6251 140.888 55.7255 141.011C55.8278 141.133 55.9054 141.252 55.9585 141.369H55.9954V139.182H57.2028V145H56.0096V144.301H55.9585C55.9016 144.422 55.8211 144.543 55.717 144.662C55.6147 144.779 55.4812 144.877 55.3164 144.955C55.1535 145.032 54.9547 145.071 54.7198 145.071ZM55.1033 144.108C55.2984 144.108 55.4632 144.055 55.5977 143.949C55.734 143.841 55.8382 143.69 55.9102 143.497C55.984 143.304 56.021 143.078 56.021 142.818C56.021 142.559 55.985 142.333 55.913 142.142C55.841 141.951 55.7369 141.803 55.6005 141.699C55.4641 141.595 55.2984 141.543 55.1033 141.543C54.9045 141.543 54.7369 141.597 54.6005 141.705C54.4641 141.812 54.3609 141.962 54.2908 142.153C54.2208 142.345 54.1857 142.566 54.1857 142.818C54.1857 143.072 54.2208 143.296 54.2908 143.491C54.3628 143.685 54.466 143.836 54.6005 143.946C54.7369 144.054 54.9045 144.108 55.1033 144.108ZM60.1864 145.085C59.7376 145.085 59.3512 144.994 59.0273 144.812C58.7054 144.629 58.4573 144.369 58.283 144.034C58.1088 143.697 58.0217 143.298 58.0217 142.838C58.0217 142.389 58.1088 141.995 58.283 141.656C58.4573 141.317 58.7025 141.053 59.0188 140.864C59.337 140.674 59.7101 140.58 60.1381 140.58C60.426 140.58 60.694 140.626 60.9421 140.719C61.1921 140.81 61.4099 140.947 61.5955 141.131C61.783 141.314 61.9289 141.545 62.033 141.824C62.1372 142.1 62.1893 142.424 62.1893 142.795V143.128H58.5046V142.378H61.0501C61.0501 142.204 61.0122 142.049 60.9364 141.915C60.8607 141.78 60.7556 141.675 60.6211 141.599C60.4885 141.522 60.3342 141.483 60.158 141.483C59.9743 141.483 59.8114 141.526 59.6694 141.611C59.5292 141.694 59.4194 141.807 59.3398 141.949C59.2603 142.089 59.2196 142.245 59.2177 142.418V143.131C59.2177 143.347 59.2575 143.533 59.337 143.69C59.4184 143.848 59.533 143.969 59.6808 144.054C59.8285 144.139 60.0037 144.182 60.2063 144.182C60.3408 144.182 60.4639 144.163 60.5756 144.125C60.6874 144.087 60.783 144.03 60.8626 143.955C60.9421 143.879 61.0027 143.786 61.0444 143.676L62.1637 143.75C62.1069 144.019 61.9904 144.254 61.8143 144.455C61.64 144.653 61.4147 144.809 61.1381 144.92C60.8635 145.03 60.5463 145.085 60.1864 145.085Z" fill="white"/>
<g filter="url(#filter3_d_1_2)">
<rect x="138" y="65" width="76" height="25" rx="2" fill="#2B333B"/>
<rect x="138.5" y="65.5" width="75" height="24" rx="1.5" stroke="#151F28"/>
</g>
<path d="M153.486 80V74.1818H155.782C156.221 74.1818 156.596 74.2604 156.907 74.4176C157.219 74.5729 157.457 74.7936 157.62 75.0795C157.784 75.3636 157.867 75.6979 157.867 76.0824C157.867 76.4687 157.783 76.8011 157.617 77.0795C157.45 77.3561 157.209 77.5682 156.892 77.7159C156.578 77.8636 156.197 77.9375 155.75 77.9375H154.213V76.9489H155.551C155.786 76.9489 155.981 76.9167 156.137 76.8523C156.292 76.7879 156.408 76.6913 156.483 76.5625C156.561 76.4337 156.6 76.2737 156.6 76.0824C156.6 75.8892 156.561 75.7263 156.483 75.5938C156.408 75.4612 156.291 75.3608 156.134 75.2926C155.979 75.2225 155.783 75.1875 155.546 75.1875H154.716V80H153.486ZM156.628 77.3523L158.074 80H156.716L155.301 77.3523H156.628ZM160.632 80.0852C160.183 80.0852 159.797 79.9943 159.473 79.8125C159.151 79.6288 158.903 79.3693 158.728 79.0341C158.554 78.697 158.467 78.2983 158.467 77.8381C158.467 77.3892 158.554 76.9953 158.728 76.6562C158.903 76.3172 159.148 76.053 159.464 75.8636C159.782 75.6742 160.155 75.5795 160.583 75.5795C160.871 75.5795 161.139 75.6259 161.387 75.7188C161.637 75.8097 161.855 75.947 162.041 76.1307C162.228 76.3144 162.374 76.5455 162.478 76.8239C162.583 77.1004 162.635 77.4242 162.635 77.7955V78.1278H158.95V77.3778H161.495C161.495 77.2036 161.458 77.0492 161.382 76.9148C161.306 76.7803 161.201 76.6752 161.066 76.5994C160.934 76.5218 160.779 76.483 160.603 76.483C160.42 76.483 160.257 76.5256 160.115 76.6108C159.975 76.6941 159.865 76.8068 159.785 76.9489C159.706 77.089 159.665 77.2453 159.663 77.4176V78.1307C159.663 78.3466 159.703 78.5331 159.782 78.6903C159.864 78.8475 159.978 78.9688 160.126 79.054C160.274 79.1392 160.449 79.1818 160.652 79.1818C160.786 79.1818 160.909 79.1629 161.021 79.125C161.133 79.0871 161.228 79.0303 161.308 78.9545C161.387 78.8788 161.448 78.786 161.49 78.6761L162.609 78.75C162.552 79.0189 162.436 79.2538 162.26 79.4545C162.085 79.6534 161.86 79.8087 161.583 79.9205C161.309 80.0303 160.992 80.0852 160.632 80.0852ZM167.055 76.8807L165.947 76.9489C165.928 76.8542 165.887 76.7689 165.825 76.6932C165.762 76.6155 165.68 76.554 165.578 76.5085C165.477 76.4612 165.357 76.4375 165.217 76.4375C165.029 76.4375 164.871 76.4773 164.743 76.5568C164.614 76.6345 164.549 76.7386 164.549 76.8693C164.549 76.9735 164.591 77.0616 164.674 77.1335C164.758 77.2055 164.901 77.2633 165.103 77.3068L165.893 77.4659C166.317 77.553 166.634 77.6932 166.842 77.8864C167.05 78.0795 167.154 78.3333 167.154 78.6477C167.154 78.9337 167.07 79.1847 166.902 79.4006C166.735 79.6165 166.506 79.785 166.214 79.9062C165.924 80.0256 165.59 80.0852 165.211 80.0852C164.634 80.0852 164.173 79.965 163.831 79.7244C163.49 79.482 163.29 79.1525 163.231 78.7358L164.422 78.6733C164.458 78.8494 164.545 78.9839 164.683 79.0767C164.821 79.1676 164.998 79.2131 165.214 79.2131C165.426 79.2131 165.597 79.1723 165.725 79.0909C165.856 79.0076 165.922 78.9006 165.924 78.7699C165.922 78.66 165.876 78.5701 165.785 78.5C165.694 78.428 165.554 78.3731 165.365 78.3352L164.609 78.1847C164.183 78.0994 163.866 77.9517 163.657 77.7415C163.451 77.5312 163.348 77.2633 163.348 76.9375C163.348 76.6572 163.423 76.4157 163.575 76.2131C163.728 76.0104 163.943 75.8542 164.22 75.7443C164.498 75.6345 164.824 75.5795 165.197 75.5795C165.748 75.5795 166.182 75.696 166.498 75.929C166.816 76.1619 167.002 76.4792 167.055 76.8807ZM170.715 78.142V75.6364H171.925V80H170.763V79.2074H170.718C170.619 79.4631 170.455 79.6686 170.226 79.8239C169.999 79.9792 169.721 80.0568 169.394 80.0568C169.102 80.0568 168.846 79.9905 168.624 79.858C168.402 79.7254 168.229 79.5369 168.104 79.2926C167.981 79.0483 167.918 78.7557 167.917 78.4148V75.6364H169.127V78.1989C169.129 78.4564 169.198 78.66 169.334 78.8097C169.471 78.9593 169.653 79.0341 169.882 79.0341C170.028 79.0341 170.165 79.0009 170.292 78.9347C170.418 78.8665 170.521 78.7661 170.598 78.6335C170.678 78.5009 170.717 78.3371 170.715 78.142ZM174.103 74.1818V80H172.893V74.1818H174.103ZM177.394 75.6364V76.5455H174.766V75.6364H177.394ZM175.363 74.5909H176.573V78.6591C176.573 78.7708 176.59 78.858 176.624 78.9205C176.658 78.9811 176.705 79.0237 176.766 79.0483C176.828 79.0729 176.9 79.0852 176.982 79.0852C177.039 79.0852 177.096 79.0805 177.152 79.071C177.209 79.0597 177.253 79.0511 177.283 79.0455L177.473 79.946C177.413 79.965 177.328 79.9867 177.218 80.0114C177.108 80.0379 176.974 80.054 176.817 80.0597C176.525 80.071 176.27 80.0322 176.05 79.9432C175.832 79.8542 175.663 79.7159 175.542 79.5284C175.42 79.3409 175.361 79.1042 175.363 78.8182V74.5909ZM182.005 80.0852C181.558 80.0852 181.174 79.9905 180.852 79.8011C180.532 79.6098 180.286 79.3447 180.113 79.0057C179.943 78.6667 179.858 78.2765 179.858 77.8352C179.858 77.3883 179.944 76.9962 180.116 76.6591C180.29 76.3201 180.538 76.0559 180.858 75.8665C181.178 75.6752 181.558 75.5795 182 75.5795C182.38 75.5795 182.714 75.6487 183 75.7869C183.286 75.9252 183.512 76.1193 183.679 76.3693C183.845 76.6193 183.937 76.9129 183.954 77.25H182.812C182.78 77.0322 182.695 76.857 182.556 76.7244C182.42 76.59 182.241 76.5227 182.02 76.5227C181.832 76.5227 181.668 76.5739 181.528 76.6761C181.39 76.7765 181.282 76.9233 181.204 77.1165C181.127 77.3097 181.088 77.5436 181.088 77.8182C181.088 78.0966 181.126 78.3333 181.201 78.5284C181.279 78.7235 181.388 78.8722 181.528 78.9744C181.668 79.0767 181.832 79.1278 182.02 79.1278C182.158 79.1278 182.282 79.0994 182.392 79.0426C182.503 78.9858 182.595 78.9034 182.667 78.7955C182.741 78.6856 182.789 78.554 182.812 78.4006H183.954C183.935 78.7339 183.844 79.0275 183.681 79.2812C183.52 79.5331 183.298 79.7301 183.014 79.8722C182.73 80.0142 182.394 80.0852 182.005 80.0852ZM186.701 80.0852C186.259 80.0852 185.878 79.9915 185.556 79.804C185.236 79.6146 184.989 79.3513 184.814 79.0142C184.64 78.6752 184.553 78.2822 184.553 77.8352C184.553 77.3845 184.64 76.9905 184.814 76.6534C184.989 76.3144 185.236 76.0511 185.556 75.8636C185.878 75.6742 186.259 75.5795 186.701 75.5795C187.142 75.5795 187.523 75.6742 187.843 75.8636C188.165 76.0511 188.413 76.3144 188.587 76.6534C188.761 76.9905 188.848 77.3845 188.848 77.8352C188.848 78.2822 188.761 78.6752 188.587 79.0142C188.413 79.3513 188.165 79.6146 187.843 79.804C187.523 79.9915 187.142 80.0852 186.701 80.0852ZM186.706 79.1477C186.907 79.1477 187.075 79.0909 187.209 78.9773C187.344 78.8617 187.445 78.7045 187.513 78.5057C187.583 78.3068 187.618 78.0805 187.618 77.8267C187.618 77.5729 187.583 77.3466 187.513 77.1477C187.445 76.9489 187.344 76.7917 187.209 76.6761C187.075 76.5606 186.907 76.5028 186.706 76.5028C186.504 76.5028 186.333 76.5606 186.195 76.6761C186.059 76.7917 185.955 76.9489 185.885 77.1477C185.817 77.3466 185.783 77.5729 185.783 77.8267C185.783 78.0805 185.817 78.3068 185.885 78.5057C185.955 78.7045 186.059 78.8617 186.195 78.9773C186.333 79.0909 186.504 79.1477 186.706 79.1477ZM191.243 80.071C190.912 80.071 190.612 79.9858 190.343 79.8153C190.076 79.643 189.864 79.3902 189.706 79.0568C189.551 78.7216 189.473 78.3106 189.473 77.8239C189.473 77.3239 189.554 76.9081 189.715 76.5767C189.876 76.2434 190.09 75.9943 190.357 75.8295C190.626 75.6629 190.92 75.5795 191.24 75.5795C191.485 75.5795 191.688 75.6212 191.851 75.7045C192.016 75.786 192.149 75.8883 192.249 76.0114C192.351 76.1326 192.429 76.2519 192.482 76.3693H192.519V74.1818H193.726V80H192.533V79.3011H192.482C192.425 79.4223 192.345 79.5426 192.24 79.6619C192.138 79.7794 192.005 79.8769 191.84 79.9545C191.677 80.0322 191.478 80.071 191.243 80.071ZM191.627 79.108C191.822 79.108 191.987 79.0549 192.121 78.9489C192.257 78.8409 192.362 78.6903 192.434 78.4972C192.507 78.304 192.544 78.0777 192.544 77.8182C192.544 77.5587 192.508 77.3333 192.436 77.142C192.364 76.9508 192.26 76.803 192.124 76.6989C191.988 76.5947 191.822 76.5426 191.627 76.5426C191.428 76.5426 191.26 76.5966 191.124 76.7045C190.988 76.8125 190.884 76.9621 190.814 77.1534C190.744 77.3447 190.709 77.5663 190.709 77.8182C190.709 78.072 190.744 78.2964 190.814 78.4915C190.886 78.6847 190.989 78.8362 191.124 78.946C191.26 79.054 191.428 79.108 191.627 79.108ZM196.71 80.0852C196.261 80.0852 195.875 79.9943 195.551 79.8125C195.229 79.6288 194.981 79.3693 194.806 79.0341C194.632 78.697 194.545 78.2983 194.545 77.8381C194.545 77.3892 194.632 76.9953 194.806 76.6562C194.981 76.3172 195.226 76.053 195.542 75.8636C195.86 75.6742 196.234 75.5795 196.662 75.5795C196.949 75.5795 197.217 75.6259 197.466 75.7188C197.716 75.8097 197.933 75.947 198.119 76.1307C198.306 76.3144 198.452 76.5455 198.556 76.8239C198.661 77.1004 198.713 77.4242 198.713 77.7955V78.1278H195.028V77.3778H197.574C197.574 77.2036 197.536 77.0492 197.46 76.9148C197.384 76.7803 197.279 76.6752 197.145 76.5994C197.012 76.5218 196.858 76.483 196.681 76.483C196.498 76.483 196.335 76.5256 196.193 76.6108C196.053 76.6941 195.943 76.8068 195.863 76.9489C195.784 77.089 195.743 77.2453 195.741 77.4176V78.1307C195.741 78.3466 195.781 78.5331 195.86 78.6903C195.942 78.8475 196.056 78.9688 196.204 79.054C196.352 79.1392 196.527 79.1818 196.73 79.1818C196.864 79.1818 196.987 79.1629 197.099 79.125C197.211 79.0871 197.306 79.0303 197.386 78.9545C197.466 78.8788 197.526 78.786 197.568 78.6761L198.687 78.75C198.63 79.0189 198.514 79.2538 198.338 79.4545C198.163 79.6534 197.938 79.8087 197.662 79.9205C197.387 80.0303 197.07 80.0852 196.71 80.0852Z" fill="white"/>
<g filter="url(#filter4_d_1_2)">
<rect x="270" y="65" width="84" height="25" rx="2" fill="#2B333B"/>
<rect x="270.5" y="65.5" width="83" height="24" rx="1.5" stroke="#151F28"/>
</g>
<path d="M276.825 80H275.507L277.515 74.1818H279.1L281.106 80H279.788L278.331 75.5114H278.285L276.825 80ZM276.743 77.7131H279.856V78.6733H276.743V77.7131ZM283.552 80.0852C283.105 80.0852 282.721 79.9905 282.399 79.8011C282.079 79.6098 281.833 79.3447 281.66 79.0057C281.49 78.6667 281.404 78.2765 281.404 77.8352C281.404 77.3883 281.491 76.9962 281.663 76.6591C281.837 76.3201 282.084 76.0559 282.404 75.8665C282.725 75.6752 283.105 75.5795 283.547 75.5795C283.927 75.5795 284.261 75.6487 284.547 75.7869C284.833 75.9252 285.059 76.1193 285.225 76.3693C285.392 76.6193 285.484 76.9129 285.501 77.25H284.359C284.327 77.0322 284.242 76.857 284.103 76.7244C283.967 76.59 283.788 76.5227 283.566 76.5227C283.379 76.5227 283.215 76.5739 283.075 76.6761C282.937 76.7765 282.829 76.9233 282.751 77.1165C282.673 77.3097 282.635 77.5436 282.635 77.8182C282.635 78.0966 282.672 78.3333 282.748 78.5284C282.826 78.7235 282.935 78.8722 283.075 78.9744C283.215 79.0767 283.379 79.1278 283.566 79.1278C283.705 79.1278 283.829 79.0994 283.939 79.0426C284.05 78.9858 284.142 78.9034 284.214 78.7955C284.288 78.6856 284.336 78.554 284.359 78.4006H285.501C285.482 78.7339 285.391 79.0275 285.228 79.2812C285.067 79.5331 284.845 79.7301 284.561 79.8722C284.277 80.0142 283.94 80.0852 283.552 80.0852ZM288.597 75.6364V76.5455H285.969V75.6364H288.597ZM286.566 74.5909H287.776V78.6591C287.776 78.7708 287.793 78.858 287.827 78.9205C287.861 78.9811 287.908 79.0237 287.969 79.0483C288.032 79.0729 288.104 79.0852 288.185 79.0852C288.242 79.0852 288.299 79.0805 288.355 79.071C288.412 79.0597 288.456 79.0511 288.486 79.0455L288.676 79.946C288.616 79.965 288.531 79.9867 288.421 80.0114C288.311 80.0379 288.177 80.054 288.02 80.0597C287.729 80.071 287.473 80.0322 287.253 79.9432C287.035 79.8542 286.866 79.7159 286.745 79.5284C286.623 79.3409 286.564 79.1042 286.566 78.8182V74.5909ZM292.184 78.142V75.6364H293.394V80H292.232V79.2074H292.186C292.088 79.4631 291.924 79.6686 291.695 79.8239C291.468 79.9792 291.19 80.0568 290.863 80.0568C290.571 80.0568 290.314 79.9905 290.093 79.858C289.871 79.7254 289.698 79.5369 289.573 79.2926C289.45 79.0483 289.387 78.7557 289.385 78.4148V75.6364H290.596V78.1989C290.597 78.4564 290.667 78.66 290.803 78.8097C290.939 78.9593 291.122 79.0341 291.351 79.0341C291.497 79.0341 291.633 79.0009 291.76 78.9347C291.887 78.8665 291.989 78.7661 292.067 78.6335C292.147 78.5009 292.185 78.3371 292.184 78.142ZM295.606 80.0824C295.328 80.0824 295.08 80.0341 294.862 79.9375C294.644 79.839 294.472 79.6941 294.345 79.5028C294.22 79.3097 294.157 79.0691 294.157 78.7812C294.157 78.5388 294.202 78.3352 294.291 78.1705C294.38 78.0057 294.501 77.8731 294.654 77.7727C294.808 77.6723 294.982 77.5966 295.177 77.5455C295.374 77.4943 295.581 77.4583 295.797 77.4375C296.05 77.411 296.255 77.3864 296.41 77.3636C296.565 77.339 296.678 77.303 296.748 77.2557C296.818 77.2083 296.853 77.1383 296.853 77.0455V77.0284C296.853 76.8485 296.797 76.7093 296.683 76.6108C296.571 76.5123 296.412 76.4631 296.206 76.4631C295.988 76.4631 295.815 76.5114 295.686 76.608C295.557 76.7027 295.472 76.822 295.43 76.9659L294.311 76.875C294.368 76.6098 294.479 76.3807 294.646 76.1875C294.813 75.9924 295.028 75.8428 295.291 75.7386C295.556 75.6326 295.863 75.5795 296.211 75.5795C296.454 75.5795 296.686 75.608 296.907 75.6648C297.131 75.7216 297.329 75.8097 297.501 75.929C297.675 76.0483 297.813 76.2017 297.913 76.3892C298.013 76.5748 298.064 76.7973 298.064 77.0568V80H296.916V79.3949H296.882C296.812 79.5312 296.718 79.6515 296.6 79.7557C296.483 79.858 296.342 79.9384 296.177 79.9972C296.012 80.054 295.822 80.0824 295.606 80.0824ZM295.953 79.2472C296.131 79.2472 296.288 79.2121 296.424 79.142C296.561 79.0701 296.668 78.9735 296.745 78.8523C296.823 78.7311 296.862 78.5937 296.862 78.4403V77.9773C296.824 78.0019 296.772 78.0246 296.706 78.0455C296.641 78.0644 296.568 78.0824 296.487 78.0994C296.405 78.1146 296.324 78.1288 296.243 78.142C296.161 78.1534 296.087 78.1638 296.021 78.1733C295.879 78.1941 295.755 78.2273 295.649 78.2727C295.543 78.3182 295.46 78.3797 295.402 78.4574C295.343 78.5331 295.314 78.6278 295.314 78.7415C295.314 78.9062 295.373 79.0322 295.493 79.1193C295.614 79.2045 295.767 79.2472 295.953 79.2472ZM300.213 74.1818V80H299.002V74.1818H300.213ZM305.005 80.0852C304.558 80.0852 304.174 79.9905 303.852 79.8011C303.532 79.6098 303.286 79.3447 303.113 79.0057C302.943 78.6667 302.858 78.2765 302.858 77.8352C302.858 77.3883 302.944 76.9962 303.116 76.6591C303.29 76.3201 303.538 76.0559 303.858 75.8665C304.178 75.6752 304.558 75.5795 305 75.5795C305.38 75.5795 305.714 75.6487 306 75.7869C306.286 75.9252 306.512 76.1193 306.679 76.3693C306.845 76.6193 306.937 76.9129 306.954 77.25H305.812C305.78 77.0322 305.695 76.857 305.556 76.7244C305.42 76.59 305.241 76.5227 305.02 76.5227C304.832 76.5227 304.668 76.5739 304.528 76.6761C304.39 76.7765 304.282 76.9233 304.204 77.1165C304.127 77.3097 304.088 77.5436 304.088 77.8182C304.088 78.0966 304.126 78.3333 304.201 78.5284C304.279 78.7235 304.388 78.8722 304.528 78.9744C304.668 79.0767 304.832 79.1278 305.02 79.1278C305.158 79.1278 305.282 79.0994 305.392 79.0426C305.503 78.9858 305.595 78.9034 305.667 78.7955C305.741 78.6856 305.789 78.554 305.812 78.4006H306.954C306.935 78.7339 306.844 79.0275 306.681 79.2812C306.52 79.5331 306.298 79.7301 306.014 79.8722C305.73 80.0142 305.394 80.0852 305.005 80.0852ZM309.701 80.0852C309.259 80.0852 308.878 79.9915 308.556 79.804C308.236 79.6146 307.989 79.3513 307.814 79.0142C307.64 78.6752 307.553 78.2822 307.553 77.8352C307.553 77.3845 307.64 76.9905 307.814 76.6534C307.989 76.3144 308.236 76.0511 308.556 75.8636C308.878 75.6742 309.259 75.5795 309.701 75.5795C310.142 75.5795 310.523 75.6742 310.843 75.8636C311.165 76.0511 311.413 76.3144 311.587 76.6534C311.761 76.9905 311.848 77.3845 311.848 77.8352C311.848 78.2822 311.761 78.6752 311.587 79.0142C311.413 79.3513 311.165 79.6146 310.843 79.804C310.523 79.9915 310.142 80.0852 309.701 80.0852ZM309.706 79.1477C309.907 79.1477 310.075 79.0909 310.209 78.9773C310.344 78.8617 310.445 78.7045 310.513 78.5057C310.583 78.3068 310.618 78.0805 310.618 77.8267C310.618 77.5729 310.583 77.3466 310.513 77.1477C310.445 76.9489 310.344 76.7917 310.209 76.6761C310.075 76.5606 309.907 76.5028 309.706 76.5028C309.504 76.5028 309.333 76.5606 309.195 76.6761C309.059 76.7917 308.955 76.9489 308.885 77.1477C308.817 77.3466 308.783 77.5729 308.783 77.8267C308.783 78.0805 308.817 78.3068 308.885 78.5057C308.955 78.7045 309.059 78.8617 309.195 78.9773C309.333 79.0909 309.504 79.1477 309.706 79.1477ZM312.635 80V75.6364H313.789V76.4062H313.84C313.931 76.1506 314.082 75.9489 314.294 75.8011C314.507 75.6534 314.76 75.5795 315.056 75.5795C315.355 75.5795 315.61 75.6544 315.82 75.804C316.03 75.9517 316.17 76.1525 316.24 76.4062H316.286C316.375 76.1562 316.536 75.9564 316.769 75.8068C317.004 75.6553 317.281 75.5795 317.601 75.5795C318.008 75.5795 318.339 75.7093 318.593 75.9688C318.848 76.2263 318.976 76.5919 318.976 77.0653V80H317.769V77.304C317.769 77.0616 317.704 76.8797 317.576 76.7585C317.447 76.6373 317.286 76.5767 317.093 76.5767C316.873 76.5767 316.702 76.6468 316.578 76.7869C316.455 76.9252 316.394 77.108 316.394 77.3352V80H315.221V77.2784C315.221 77.0644 315.159 76.8939 315.036 76.767C314.915 76.6402 314.755 76.5767 314.556 76.5767C314.421 76.5767 314.3 76.6108 314.192 76.679C314.086 76.7453 314.002 76.839 313.939 76.9602C313.877 77.0795 313.846 77.2197 313.846 77.3807V80H312.635ZM319.932 81.6364V75.6364H321.125V76.3693H321.179C321.232 76.2519 321.309 76.1326 321.409 76.0114C321.512 75.8883 321.644 75.786 321.807 75.7045C321.972 75.6212 322.176 75.5795 322.421 75.5795C322.739 75.5795 323.033 75.6629 323.301 75.8295C323.57 75.9943 323.785 76.2434 323.946 76.5767C324.107 76.9081 324.188 77.3239 324.188 77.8239C324.188 78.3106 324.109 78.7216 323.952 79.0568C323.797 79.3902 323.585 79.643 323.316 79.8153C323.049 79.9858 322.749 80.071 322.418 80.071C322.183 80.071 321.983 80.0322 321.819 79.9545C321.656 79.8769 321.522 79.7794 321.418 79.6619C321.314 79.5426 321.234 79.4223 321.179 79.3011H321.142V81.6364H319.932ZM321.117 77.8182C321.117 78.0777 321.153 78.304 321.225 78.4972C321.297 78.6903 321.401 78.8409 321.537 78.9489C321.674 79.0549 321.839 79.108 322.034 79.108C322.231 79.108 322.398 79.054 322.534 78.946C322.671 78.8362 322.774 78.6847 322.844 78.4915C322.916 78.2964 322.952 78.072 322.952 77.8182C322.952 77.5663 322.917 77.3447 322.847 77.1534C322.777 76.9621 322.674 76.8125 322.537 76.7045C322.401 76.5966 322.233 76.5426 322.034 76.5426C321.837 76.5426 321.671 76.5947 321.534 76.6989C321.4 76.803 321.297 76.9508 321.225 77.142C321.153 77.3333 321.117 77.5587 321.117 77.8182ZM324.995 80V75.6364H326.205V80H324.995ZM325.603 75.0739C325.423 75.0739 325.268 75.0142 325.14 74.8949C325.013 74.7737 324.949 74.6288 324.949 74.4602C324.949 74.2936 325.013 74.1506 325.14 74.0312C325.268 73.91 325.423 73.8494 325.603 73.8494C325.783 73.8494 325.936 73.91 326.063 74.0312C326.192 74.1506 326.256 74.2936 326.256 74.4602C326.256 74.6288 326.192 74.7737 326.063 74.8949C325.936 75.0142 325.783 75.0739 325.603 75.0739ZM328.385 74.1818V80H327.174V74.1818H328.385ZM330.598 80.0824C330.32 80.0824 330.072 80.0341 329.854 79.9375C329.636 79.839 329.464 79.6941 329.337 79.5028C329.212 79.3097 329.15 79.0691 329.15 78.7812C329.15 78.5388 329.194 78.3352 329.283 78.1705C329.372 78.0057 329.493 77.8731 329.647 77.7727C329.8 77.6723 329.974 77.5966 330.169 77.5455C330.366 77.4943 330.573 77.4583 330.789 77.4375C331.042 77.411 331.247 77.3864 331.402 77.3636C331.558 77.339 331.67 77.303 331.74 77.2557C331.81 77.2083 331.846 77.1383 331.846 77.0455V77.0284C331.846 76.8485 331.789 76.7093 331.675 76.6108C331.563 76.5123 331.404 76.4631 331.198 76.4631C330.98 76.4631 330.807 76.5114 330.678 76.608C330.549 76.7027 330.464 76.822 330.422 76.9659L329.303 76.875C329.36 76.6098 329.471 76.3807 329.638 76.1875C329.805 75.9924 330.02 75.8428 330.283 75.7386C330.548 75.6326 330.855 75.5795 331.203 75.5795C331.446 75.5795 331.678 75.608 331.9 75.6648C332.123 75.7216 332.321 75.8097 332.493 75.929C332.667 76.0483 332.805 76.2017 332.905 76.3892C333.006 76.5748 333.056 76.7973 333.056 77.0568V80H331.908V79.3949H331.874C331.804 79.5312 331.71 79.6515 331.593 79.7557C331.475 79.858 331.334 79.9384 331.169 79.9972C331.005 80.054 330.814 80.0824 330.598 80.0824ZM330.945 79.2472C331.123 79.2472 331.28 79.2121 331.417 79.142C331.553 79.0701 331.66 78.9735 331.738 78.8523C331.815 78.7311 331.854 78.5937 331.854 78.4403V77.9773C331.816 78.0019 331.764 78.0246 331.698 78.0455C331.633 78.0644 331.56 78.0824 331.479 78.0994C331.398 78.1146 331.316 78.1288 331.235 78.142C331.153 78.1534 331.079 78.1638 331.013 78.1733C330.871 78.1941 330.747 78.2273 330.641 78.2727C330.535 78.3182 330.453 78.3797 330.394 78.4574C330.335 78.5331 330.306 78.6278 330.306 78.7415C330.306 78.9062 330.365 79.0322 330.485 79.1193C330.606 79.2045 330.759 79.2472 330.945 79.2472ZM336.316 75.6364V76.5455H333.688V75.6364H336.316ZM334.284 74.5909H335.495V78.6591C335.495 78.7708 335.512 78.858 335.546 78.9205C335.58 78.9811 335.627 79.0237 335.688 79.0483C335.75 79.0729 335.822 79.0852 335.904 79.0852C335.961 79.0852 336.017 79.0805 336.074 79.071C336.131 79.0597 336.175 79.0511 336.205 79.0455L336.395 79.946C336.335 79.965 336.249 79.9867 336.14 80.0114C336.03 80.0379 335.896 80.054 335.739 80.0597C335.447 80.071 335.192 80.0322 334.972 79.9432C334.754 79.8542 334.585 79.7159 334.463 79.5284C334.342 79.3409 334.283 79.1042 334.284 78.8182V74.5909ZM337.104 80V75.6364H338.314V80H337.104ZM337.712 75.0739C337.532 75.0739 337.378 75.0142 337.249 74.8949C337.122 74.7737 337.059 74.6288 337.059 74.4602C337.059 74.2936 337.122 74.1506 337.249 74.0312C337.378 73.91 337.532 73.8494 337.712 73.8494C337.892 73.8494 338.045 73.91 338.172 74.0312C338.301 74.1506 338.365 74.2936 338.365 74.4602C338.365 74.6288 338.301 74.7737 338.172 74.8949C338.045 75.0142 337.892 75.0739 337.712 75.0739ZM341.255 80.0852C340.814 80.0852 340.432 79.9915 340.11 79.804C339.79 79.6146 339.543 79.3513 339.369 79.0142C339.195 78.6752 339.108 78.2822 339.108 77.8352C339.108 77.3845 339.195 76.9905 339.369 76.6534C339.543 76.3144 339.79 76.0511 340.11 75.8636C340.432 75.6742 340.814 75.5795 341.255 75.5795C341.697 75.5795 342.077 75.6742 342.397 75.8636C342.719 76.0511 342.967 76.3144 343.142 76.6534C343.316 76.9905 343.403 77.3845 343.403 77.8352C343.403 78.2822 343.316 78.6752 343.142 79.0142C342.967 79.3513 342.719 79.6146 342.397 79.804C342.077 79.9915 341.697 80.0852 341.255 80.0852ZM341.261 79.1477C341.462 79.1477 341.629 79.0909 341.764 78.9773C341.898 78.8617 342 78.7045 342.068 78.5057C342.138 78.3068 342.173 78.0805 342.173 77.8267C342.173 77.5729 342.138 77.3466 342.068 77.1477C342 76.9489 341.898 76.7917 341.764 76.6761C341.629 76.5606 341.462 76.5028 341.261 76.5028C341.058 76.5028 340.888 76.5606 340.75 76.6761C340.613 76.7917 340.51 76.9489 340.44 77.1477C340.372 77.3466 340.338 77.5729 340.338 77.8267C340.338 78.0805 340.372 78.3068 340.44 78.5057C340.51 78.7045 340.613 78.8617 340.75 78.9773C340.888 79.0909 341.058 79.1477 341.261 79.1477ZM345.4 77.4773V80H344.19V75.6364H345.343V76.4062H345.395C345.491 76.1525 345.653 75.9517 345.88 75.804C346.108 75.6544 346.383 75.5795 346.707 75.5795C347.01 75.5795 347.274 75.6458 347.5 75.7784C347.725 75.911 347.9 76.1004 348.025 76.3466C348.15 76.5909 348.213 76.8826 348.213 77.2216V80H347.002V77.4375C347.004 77.1705 346.936 76.9621 346.798 76.8125C346.66 76.661 346.469 76.5852 346.227 76.5852C346.064 76.5852 345.92 76.6203 345.795 76.6903C345.672 76.7604 345.575 76.8627 345.505 76.9972C345.437 77.1297 345.402 77.2898 345.4 77.4773Z" fill="white"/>
<path d="M37.6464 54.3536C37.8417 54.5488 38.1583 54.5488 38.3536 54.3536L41.5355 51.1716C41.7308 50.9763 41.7308 50.6597 41.5355 50.4645C41.3403 50.2692 41.0237 50.2692 40.8284 50.4645L38 53.2929L35.1716 50.4645C34.9763 50.2692 34.6597 50.2692 34.4645 50.4645C34.2692 50.6597 34.2692 50.9763 34.4645 51.1716L37.6464 54.3536ZM37.5 28V54H38.5V28H37.5Z" fill="white"/>
<path d="M37.6464 126.354C37.8417 126.549 38.1583 126.549 38.3536 126.354L41.5355 123.172C41.7308 122.976 41.7308 122.66 41.5355 122.464C41.3403 122.269 41.0237 122.269 40.8284 122.464L38 125.293L35.1716 122.464C34.9763 122.269 34.6597 122.269 34.4645 122.464C34.2692 122.66 34.2692 122.976 34.4645 123.172L37.6464 126.354ZM37.5 100V126H38.5V100H37.5Z" fill="white"/>
<path d="M176.354 93.6464C176.158 93.4512 175.842 93.4512 175.646 93.6464L172.464 96.8284C172.269 97.0237 172.269 97.3403 172.464 97.5355C172.66 97.7308 172.976 97.7308 173.172 97.5355L176 94.7071L178.828 97.5355C179.024 97.7308 179.34 97.7308 179.536 97.5355C179.731 97.3403 179.731 97.0237 179.536 96.8284L176.354 93.6464ZM176.5 145V94H175.5V145H176.5Z" fill="white"/>
<path d="M136.354 80.3536C136.549 80.1583 136.549 79.8417 136.354 79.6464L133.172 76.4645C132.976 76.2692 132.66 76.2692 132.464 76.4645C132.269 76.6597 132.269 76.9763 132.464 77.1716L135.293 80L132.464 82.8284C132.269 83.0237 132.269 83.3403 132.464 83.5355C132.66 83.7308 132.976 83.7308 133.172 83.5355L136.354 80.3536ZM93 80.5H136V79.5H93V80.5Z" fill="white"/>
<path d="M266.354 80.3536C266.549 80.1583 266.549 79.8417 266.354 79.6464L263.172 76.4645C262.976 76.2692 262.66 76.2692 262.464 76.4645C262.269 76.6597 262.269 76.9763 262.464 77.1716L265.293 80L262.464 82.8284C262.269 83.0237 262.269 83.3403 262.464 83.5355C262.66 83.7308 262.976 83.7308 263.172 83.5355L266.354 80.3536ZM216 80.5H266V79.5H216V80.5Z" fill="white"/>
<line x1="176" y1="144.5" x2="79" y2="144.5" stroke="white"/>
</g>
<defs>
<filter id="filter0_d_1_2" x="-2" y="-2" width="82" height="31" filterUnits="userSpaceOnUse" color-interpolation-filters="sRGB">
<feFlood flood-opacity="0" result="BackgroundImageFix"/>
<feColorMatrix in="SourceAlpha" type="matrix" values="0 0 0 0 0 0 0 0 0 0 0 0 0 0 0 0 0 0 127 0" result="hardAlpha"/>
<feOffset dx="1" dy="1"/>
<feGaussianBlur stdDeviation="1.5"/>
<feComposite in2="hardAlpha" operator="out"/>
<feColorMatrix type="matrix" values="0 0 0 0 0 0 0 0 0 0 0 0 0 0 0 0 0 0 0.55 0"/>
<feBlend mode="normal" in2="BackgroundImageFix" result="effect1_dropShadow_1_2"/>
<feBlend mode="normal" in="SourceGraphic" in2="effect1_dropShadow_1_2" result="shape"/>
</filter>
<filter id="filter1_d_1_2" x="-2" y="56" width="96" height="45" filterUnits="userSpaceOnUse" color-interpolation-filters="sRGB">
<feFlood flood-opacity="0" result="BackgroundImageFix"/>
<feColorMatrix in="SourceAlpha" type="matrix" values="0 0 0 0 0 0 0 0 0 0 0 0 0 0 0 0 0 0 127 0" result="hardAlpha"/>
<feOffset dx="1" dy="1"/>
<feGaussianBlur stdDeviation="1.5"/>
<feComposite in2="hardAlpha" operator="out"/>
<feColorMatrix type="matrix" values="0 0 0 0 0 0 0 0 0 0 0 0 0 0 0 0 0 0 0.55 0"/>
<feBlend mode="normal" in2="BackgroundImageFix" result="effect1_dropShadow_1_2"/>
<feBlend mode="normal" in="SourceGraphic" in2="effect1_dropShadow_1_2" result="shape"/>
</filter>
<filter id="filter2_d_1_2" x="-2" y="128" width="82" height="31" filterUnits="userSpaceOnUse" color-interpolation-filters="sRGB">
<feFlood flood-opacity="0" result="BackgroundImageFix"/>
<feColorMatrix in="SourceAlpha" type="matrix" values="0 0 0 0 0 0 0 0 0 0 0 0 0 0 0 0 0 0 127 0" result="hardAlpha"/>
<feOffset dx="1" dy="1"/>
<feGaussianBlur stdDeviation="1.5"/>
<feComposite in2="hardAlpha" operator="out"/>
<feColorMatrix type="matrix" values="0 0 0 0 0 0 0 0 0 0 0 0 0 0 0 0 0 0 0.55 0"/>
<feBlend mode="normal" in2="BackgroundImageFix" result="effect1_dropShadow_1_2"/>
<feBlend mode="normal" in="SourceGraphic" in2="effect1_dropShadow_1_2" result="shape"/>
</filter>
<filter id="filter3_d_1_2" x="136" y="63" width="82" height="31" filterUnits="userSpaceOnUse" color-interpolation-filters="sRGB">
<feFlood flood-opacity="0" result="BackgroundImageFix"/>
<feColorMatrix in="SourceAlpha" type="matrix" values="0 0 0 0 0 0 0 0 0 0 0 0 0 0 0 0 0 0 127 0" result="hardAlpha"/>
<feOffset dx="1" dy="1"/>
<feGaussianBlur stdDeviation="1.5"/>
<feComposite in2="hardAlpha" operator="out"/>
<feColorMatrix type="matrix" values="0 0 0 0 0 0 0 0 0 0 0 0 0 0 0 0 0 0 0.55 0"/>
<feBlend mode="normal" in2="BackgroundImageFix" result="effect1_dropShadow_1_2"/>
<feBlend mode="normal" in="SourceGraphic" in2="effect1_dropShadow_1_2" result="shape"/>
</filter>
<filter id="filter4_d_1_2" x="268" y="63" width="90" height="31" filterUnits="userSpaceOnUse" color-interpolation-filters="sRGB">
<feFlood flood-opacity="0" result="BackgroundImageFix"/>
<feColorMatrix in="SourceAlpha" type="matrix" values="0 0 0 0 0 0 0 0 0 0 0 0 0 0 0 0 0 0 127 0" result="hardAlpha"/>
<feOffset dx="1" dy="1"/>
<feGaussianBlur stdDeviation="1.5"/>
<feComposite in2="hardAlpha" operator="out"/>
<feColorMatrix type="matrix" values="0 0 0 0 0 0 0 0 0 0 0 0 0 0 0 0 0 0 0.55 0"/>
<feBlend mode="normal" in2="BackgroundImageFix" result="effect1_dropShadow_1_2"/>
<feBlend mode="normal" in="SourceGraphic" in2="effect1_dropShadow_1_2" result="shape"/>
</filter>
<clipPath id="clip0_1_2">
<rect width="354" height="155" fill="white"/>
</clipPath>
</defs>
</svg>
